<svg width="390" height="844" viewBox="0 0 390 844" fill="none" xmlns="http://www.w3.org/2000/svg">
<g clip-path="url(#clip0_884_58618)">
<rect width="390" height="844" rx="20" fill="black"/>
<rect x="15" y="694" width="360" height="60" rx="20" fill="black"/>
<path d="M164.284 719.068L165.908 718.564C166.552 719.516 167.168 720.776 167.336 721.616L165.656 722.204C165.46 721.364 164.9 720.048 164.284 719.068ZM159.608 716.94L160.7 715.652C161.708 716.352 162.912 717.388 163.472 718.144L162.352 719.628C161.82 718.816 160.616 717.696 159.608 716.94ZM162.716 713.86L164.676 714.616C163.892 715.596 163.08 716.604 162.436 717.276L160.98 716.632C161.568 715.848 162.324 714.644 162.716 713.86ZM164.62 715.904L166.356 716.688C164.984 718.2 163.248 719.992 161.904 721.084L160.616 720.44C161.96 719.236 163.668 717.248 164.62 715.904ZM167.56 722.148H169.828V729.988H167.56V722.148ZM159.384 720.216C161.12 720.104 163.472 719.964 165.992 719.768L166.02 721.476C163.696 721.7 161.484 721.896 159.58 722.036L159.384 720.216ZM171.368 718.9L173.048 718.424C173.748 719.432 174.42 720.832 174.644 721.784L172.88 722.372C172.684 721.42 172.04 719.992 171.368 718.9ZM166.272 716.8L167.476 715.568C168.568 716.352 169.884 717.528 170.472 718.34L169.212 719.74C168.652 718.9 167.364 717.64 166.272 716.8ZM169.52 713.832L171.536 714.616C170.668 715.68 169.772 716.772 169.044 717.5L167.56 716.828C168.204 716.016 169.072 714.7 169.52 713.832ZM171.508 715.932L173.3 716.744C171.844 718.312 170.024 720.132 168.568 721.28L167.252 720.58C168.68 719.376 170.5 717.332 171.508 715.932ZM166.832 720.216C168.568 720.132 170.836 719.992 173.3 719.824L173.328 721.504C171.172 721.728 169.044 721.868 167.224 722.036L166.832 720.216ZM160.224 722.596H162.296V725.032H165.32V726.88H160.224V722.596ZM171.592 722.596H173.664V726.88H169.352V725.032H171.592V722.596ZM163.976 722.148H166.216V724.864C166.216 727.048 165.684 729.148 162.128 730.38C161.848 729.848 161.148 728.98 160.672 728.56C163.584 727.692 163.976 726.264 163.976 724.78V722.148ZM156.864 708.876H163.892V710.892H156.864V708.876ZM169.744 708.876H176.856V710.892H169.744V708.876ZM175.708 705.292H178.956V726.684C178.956 728.28 178.704 729.204 177.752 729.764C176.8 730.324 175.512 730.38 173.664 730.38C173.552 729.484 173.132 727.972 172.712 727.104C173.748 727.16 174.868 727.16 175.232 727.16C175.596 727.16 175.708 727.02 175.708 726.656V705.292ZM157.172 705.292H166.048V714.448H157.172V712.18H162.884V707.56H157.172V705.292ZM177.388 705.292V707.56H171.06V712.18H177.388V714.448H167.868V705.292H177.388ZM155.184 705.292H158.376V730.52H155.184V705.292ZM182.064 708.512H194.272V711.62H182.064V708.512ZM186.6 714.616H191.192V717.668H186.6V714.616ZM186.46 704.256H189.792V709.52H186.46V704.256ZM200.572 708.008C199.508 711.088 197.268 715.008 194.468 717.08C194.16 716.1 193.46 714.7 192.928 713.888C195.644 711.928 197.856 707.56 198.808 704.116H202.112C203.456 708.036 205.752 712.04 208.412 713.636C207.796 714.56 207.18 715.932 206.732 717.052C203.904 714.98 201.664 711.172 200.572 708.008ZM184.78 710.472H188.056C187.944 718.9 187.636 726.208 183.884 730.716C183.38 729.904 182.316 728.784 181.476 728.196C184.668 724.332 184.724 717.976 184.78 710.472ZM190.128 714.616H193.292C193.292 714.616 193.292 715.568 193.264 715.96C193.124 724.864 192.984 728.168 192.256 729.176C191.724 729.988 191.164 730.24 190.352 730.408C189.652 730.52 188.532 730.548 187.356 730.492C187.3 729.596 186.964 728.308 186.488 727.468C187.412 727.552 188.168 727.552 188.616 727.552C188.98 727.552 189.204 727.468 189.428 727.132C189.848 726.488 190.016 723.632 190.128 715.232V714.616ZM197.324 716.968L199.536 714.868C201.3 716.016 203.484 717.696 204.492 718.984L202.112 721.364C201.188 720.048 199.088 718.2 197.324 716.968ZM194.916 724.64L196.96 722.036C200.18 723.408 204.436 725.732 206.452 727.58L204.24 730.548C202.336 728.672 198.22 726.152 194.916 724.64ZM228.712 706.72L231.232 704.984C232.772 706.3 234.592 708.176 235.432 709.492L232.716 711.396C231.988 710.052 230.224 708.092 228.712 706.72ZM210.372 712.18H235.656V715.372H210.372V712.18ZM209.84 720.104C213.228 719.6 218.548 718.676 223.448 717.78L223.7 720.832C219.164 721.784 214.292 722.764 210.68 723.492L209.84 720.104ZM215.692 707.672H219.08V726.6C219.08 728.42 218.716 729.344 217.568 729.876C216.448 730.408 214.796 730.52 212.5 730.52C212.36 729.568 211.8 728.056 211.296 727.104C212.892 727.188 214.516 727.188 215.02 727.16C215.524 727.16 215.692 727.02 215.692 726.544V707.672ZM221.432 704.396L223.7 707.252C220.06 708.372 215.272 709.128 211.212 709.576C211.044 708.792 210.624 707.532 210.232 706.776C214.18 706.244 218.548 705.376 221.432 704.396ZM224.176 704.452H227.704C227.508 715.736 230.028 727.216 232.576 727.216C233.164 727.216 233.472 725.844 233.64 722.512C234.34 723.296 235.488 724.08 236.384 724.444C235.852 729.4 234.788 730.632 232.24 730.632C226.444 730.632 224.26 717.024 224.176 704.452ZM231.792 716.296L234.76 717.556C231.848 722.764 227.284 726.936 222.216 729.624C221.712 728.784 220.788 727.664 219.948 726.908C224.736 724.724 229.3 720.916 231.792 716.296Z" fill="white"/>
<path d="M173.238 735.225L170.414 743H169.26L172.512 734.469H173.256L173.238 735.225ZM175.605 743L172.775 735.225L172.758 734.469H173.502L176.766 743H175.605ZM175.459 739.842V740.768H170.666V739.842H175.459ZM177.738 734H178.828V741.77L178.734 743H177.738V734ZM183.111 739.777V739.9C183.111 740.361 183.057 740.789 182.947 741.184C182.838 741.574 182.678 741.914 182.467 742.203C182.256 742.492 181.998 742.717 181.693 742.877C181.389 743.037 181.039 743.117 180.645 743.117C180.242 743.117 179.889 743.049 179.584 742.912C179.283 742.771 179.029 742.57 178.822 742.309C178.615 742.047 178.449 741.73 178.324 741.359C178.203 740.988 178.119 740.57 178.072 740.105V739.566C178.119 739.098 178.203 738.678 178.324 738.307C178.449 737.936 178.615 737.619 178.822 737.357C179.029 737.092 179.283 736.891 179.584 736.754C179.885 736.613 180.234 736.543 180.633 736.543C181.031 736.543 181.385 736.621 181.693 736.777C182.002 736.93 182.26 737.148 182.467 737.434C182.678 737.719 182.838 738.061 182.947 738.459C183.057 738.854 183.111 739.293 183.111 739.777ZM182.021 739.9V739.777C182.021 739.461 181.992 739.164 181.934 738.887C181.875 738.605 181.781 738.359 181.652 738.148C181.523 737.934 181.354 737.766 181.143 737.645C180.932 737.52 180.672 737.457 180.363 737.457C180.09 737.457 179.852 737.504 179.648 737.598C179.449 737.691 179.279 737.818 179.139 737.979C178.998 738.135 178.883 738.314 178.793 738.518C178.707 738.717 178.643 738.924 178.6 739.139V740.551C178.662 740.824 178.764 741.088 178.904 741.342C179.049 741.592 179.24 741.797 179.479 741.957C179.721 742.117 180.02 742.197 180.375 742.197C180.668 742.197 180.918 742.139 181.125 742.021C181.336 741.9 181.506 741.734 181.635 741.523C181.768 741.312 181.865 741.068 181.928 740.791C181.99 740.514 182.021 740.217 182.021 739.9ZM184.195 739.9V739.766C184.195 739.309 184.262 738.885 184.395 738.494C184.527 738.1 184.719 737.758 184.969 737.469C185.219 737.176 185.521 736.949 185.877 736.789C186.232 736.625 186.631 736.543 187.072 736.543C187.518 736.543 187.918 736.625 188.273 736.789C188.633 736.949 188.938 737.176 189.188 737.469C189.441 737.758 189.635 738.1 189.768 738.494C189.9 738.885 189.967 739.309 189.967 739.766V739.9C189.967 740.357 189.9 740.781 189.768 741.172C189.635 741.562 189.441 741.904 189.188 742.197C188.938 742.486 188.635 742.713 188.279 742.877C187.928 743.037 187.529 743.117 187.084 743.117C186.639 743.117 186.238 743.037 185.883 742.877C185.527 742.713 185.223 742.486 184.969 742.197C184.719 741.904 184.527 741.562 184.395 741.172C184.262 740.781 184.195 740.357 184.195 739.9ZM185.279 739.766V739.9C185.279 740.217 185.316 740.516 185.391 740.797C185.465 741.074 185.576 741.32 185.725 741.535C185.877 741.75 186.066 741.92 186.293 742.045C186.52 742.166 186.783 742.227 187.084 742.227C187.381 742.227 187.641 742.166 187.863 742.045C188.09 741.92 188.277 741.75 188.426 741.535C188.574 741.32 188.686 741.074 188.76 740.797C188.838 740.516 188.877 740.217 188.877 739.9V739.766C188.877 739.453 188.838 739.158 188.76 738.881C188.686 738.6 188.572 738.352 188.42 738.137C188.271 737.918 188.084 737.746 187.857 737.621C187.635 737.496 187.373 737.434 187.072 737.434C186.775 737.434 186.514 737.496 186.287 737.621C186.064 737.746 185.877 737.918 185.725 738.137C185.576 738.352 185.465 738.6 185.391 738.881C185.316 739.158 185.279 739.453 185.279 739.766ZM195.205 741.535V736.66H196.295V743H195.258L195.205 741.535ZM195.41 740.199L195.861 740.188C195.861 740.609 195.816 741 195.727 741.359C195.641 741.715 195.5 742.023 195.305 742.285C195.109 742.547 194.854 742.752 194.537 742.9C194.221 743.045 193.836 743.117 193.383 743.117C193.074 743.117 192.791 743.072 192.533 742.982C192.279 742.893 192.061 742.754 191.877 742.566C191.693 742.379 191.551 742.135 191.449 741.834C191.352 741.533 191.303 741.172 191.303 740.75V736.66H192.387V740.762C192.387 741.047 192.418 741.283 192.48 741.471C192.547 741.654 192.635 741.801 192.744 741.91C192.857 742.016 192.982 742.09 193.119 742.133C193.26 742.176 193.404 742.197 193.553 742.197C194.014 742.197 194.379 742.109 194.648 741.934C194.918 741.754 195.111 741.514 195.229 741.213C195.35 740.908 195.41 740.57 195.41 740.199ZM200.602 736.66V737.492H197.174V736.66H200.602ZM198.334 735.119H199.418V741.43C199.418 741.645 199.451 741.807 199.518 741.916C199.584 742.025 199.67 742.098 199.775 742.133C199.881 742.168 199.994 742.186 200.115 742.186C200.205 742.186 200.299 742.178 200.396 742.162C200.498 742.143 200.574 742.127 200.625 742.115L200.631 743C200.545 743.027 200.432 743.053 200.291 743.076C200.154 743.104 199.988 743.117 199.793 743.117C199.527 743.117 199.283 743.064 199.061 742.959C198.838 742.854 198.66 742.678 198.527 742.432C198.398 742.182 198.334 741.846 198.334 741.424V735.119ZM205.928 737.92V743H204.838V736.66H205.869L205.928 737.92ZM205.705 739.59L205.201 739.572C205.205 739.139 205.262 738.738 205.371 738.371C205.48 738 205.643 737.678 205.857 737.404C206.072 737.131 206.34 736.92 206.66 736.771C206.98 736.619 207.352 736.543 207.773 736.543C208.07 736.543 208.344 736.586 208.594 736.672C208.844 736.754 209.061 736.885 209.244 737.064C209.428 737.244 209.57 737.475 209.672 737.756C209.773 738.037 209.824 738.377 209.824 738.775V743H208.74V738.828C208.74 738.496 208.684 738.23 208.57 738.031C208.461 737.832 208.305 737.688 208.102 737.598C207.898 737.504 207.66 737.457 207.387 737.457C207.066 737.457 206.799 737.514 206.584 737.627C206.369 737.74 206.197 737.896 206.068 738.096C205.939 738.295 205.846 738.523 205.787 738.781C205.732 739.035 205.705 739.305 205.705 739.59ZM209.812 738.992L209.086 739.215C209.09 738.867 209.146 738.533 209.256 738.213C209.369 737.893 209.531 737.607 209.742 737.357C209.957 737.107 210.221 736.91 210.533 736.766C210.846 736.617 211.203 736.543 211.605 736.543C211.945 736.543 212.246 736.588 212.508 736.678C212.773 736.768 212.996 736.906 213.176 737.094C213.359 737.277 213.498 737.514 213.592 737.803C213.686 738.092 213.732 738.436 213.732 738.834V743H212.643V738.822C212.643 738.467 212.586 738.191 212.473 737.996C212.363 737.797 212.207 737.658 212.004 737.58C211.805 737.498 211.566 737.457 211.289 737.457C211.051 737.457 210.84 737.498 210.656 737.58C210.473 737.662 210.318 737.775 210.193 737.92C210.068 738.061 209.973 738.223 209.906 738.406C209.844 738.59 209.812 738.785 209.812 738.992ZM218.004 743.117C217.562 743.117 217.162 743.043 216.803 742.895C216.447 742.742 216.141 742.529 215.883 742.256C215.629 741.982 215.434 741.658 215.297 741.283C215.16 740.908 215.092 740.498 215.092 740.053V739.807C215.092 739.291 215.168 738.832 215.32 738.43C215.473 738.023 215.68 737.68 215.941 737.398C216.203 737.117 216.5 736.904 216.832 736.76C217.164 736.615 217.508 736.543 217.863 736.543C218.316 736.543 218.707 736.621 219.035 736.777C219.367 736.934 219.639 737.152 219.85 737.434C220.061 737.711 220.217 738.039 220.318 738.418C220.42 738.793 220.471 739.203 220.471 739.648V740.135H215.736V739.25H219.387V739.168C219.371 738.887 219.312 738.613 219.211 738.348C219.113 738.082 218.957 737.863 218.742 737.691C218.527 737.52 218.234 737.434 217.863 737.434C217.617 737.434 217.391 737.486 217.184 737.592C216.977 737.693 216.799 737.846 216.65 738.049C216.502 738.252 216.387 738.5 216.305 738.793C216.223 739.086 216.182 739.424 216.182 739.807V740.053C216.182 740.354 216.223 740.637 216.305 740.902C216.391 741.164 216.514 741.395 216.674 741.594C216.838 741.793 217.035 741.949 217.266 742.062C217.5 742.176 217.766 742.232 218.062 742.232C218.445 742.232 218.77 742.154 219.035 741.998C219.301 741.842 219.533 741.633 219.732 741.371L220.389 741.893C220.252 742.1 220.078 742.297 219.867 742.484C219.656 742.672 219.396 742.824 219.088 742.941C218.783 743.059 218.422 743.117 218.004 743.117Z" fill="white"/>
<rect x="15.5" y="762.5" width="359" height="170" rx="19.5" stroke="white"/>
<rect x="15.25" y="762.25" width="359.5" height="170.5" rx="19.75" fill="black" stroke="white" stroke-width="0.5"/>
<path d="M41.008 795.536H49.864V798.104H41.008V795.536ZM43.6 800.648H47.824V802.976H43.6V800.648ZM50.56 810.776H54.16V812.696H50.56V810.776ZM58.072 810.776H61.72V812.696H58.072V810.776ZM43.6 805.52H47.824V807.872H43.6V805.52ZM42.088 796.904H44.464V811.952H42.088V796.904ZM46.312 796.88H48.712V817.16H46.312V796.88ZM56.656 806.48H58.984V817.16H56.656V806.48ZM49.792 807.224H51.88V813.584H49.792V807.224ZM60.352 807.224H62.512V813.536H60.352V807.224ZM40.576 811.352C42.376 811.112 44.944 810.68 47.464 810.248L47.68 812.72C45.4 813.176 43.024 813.656 41.056 814.016L40.576 811.352ZM53.2 806.504H55.504V810.776C55.504 813.464 55 815.84 51.616 817.28C51.352 816.728 50.68 815.792 50.2 815.408C52.84 814.28 53.2 812.6 53.2 810.728V806.504ZM49.168 804.224C50.752 804.128 52.936 803.96 55.216 803.792L55.24 805.64C53.176 805.832 51.136 806.048 49.432 806.192L49.168 804.224ZM49.456 799.352L50.656 797.672C51.736 798.56 53.032 799.784 53.56 800.696L52.336 802.544C51.808 801.608 50.56 800.264 49.456 799.352ZM53.752 802.664L55.432 802.184C56.008 803.288 56.488 804.752 56.56 805.712L54.784 806.288C54.736 805.328 54.304 803.816 53.752 802.664ZM52.336 794.624L54.664 795.32C53.8 796.832 52.84 798.608 52.096 799.688L50.584 799.088C51.208 797.864 51.952 795.944 52.336 794.624ZM54.112 797.72L56.2 798.464C54.856 800.744 53.104 803.528 51.712 805.208L50.248 804.584C51.616 802.76 53.2 799.832 54.112 797.72ZM56.128 804.152C57.736 804.056 59.92 803.888 62.176 803.72L62.224 805.52C60.184 805.76 58.168 805.976 56.488 806.144L56.128 804.152ZM55.912 799.304L57.04 797.552C58.216 798.416 59.536 799.64 60.088 800.576L58.864 802.496C58.336 801.536 57.064 800.192 55.912 799.304ZM60.424 802.688L62.128 802.136C62.8 803.384 63.376 805.016 63.472 806.072L61.648 806.696C61.552 805.64 61.048 803.984 60.424 802.688ZM58.864 794.624L61.24 795.344C60.376 796.88 59.416 798.632 58.648 799.736L57.016 799.088C57.688 797.864 58.456 795.968 58.864 794.624ZM60.688 797.648L62.92 798.44C61.552 800.696 59.824 803.48 58.408 805.184L56.896 804.488C58.24 802.688 59.8 799.736 60.688 797.648ZM75.088 807.92H85.816V817.088H83.008V810.392H77.776V817.16H75.088V807.92ZM76.648 813.704H83.896V816.176H76.648V813.704ZM77.872 794.624L80.656 795.104C79.384 798.032 77.488 800.936 74.536 803.288C74.128 802.712 73.216 801.776 72.616 801.416C75.28 799.472 76.984 796.88 77.872 794.624ZM78.208 796.76H84.184V799.208H76.984L78.208 796.76ZM83.44 796.76H83.992L84.448 796.64L86.2 797.624C84.064 803.192 79.552 806.984 74.68 808.856C74.368 808.184 73.504 807.056 72.952 806.576C77.656 804.992 81.832 801.728 83.44 797.24V796.76ZM77.872 798.992C79.792 802.04 83.68 804.824 87.688 806.144C87.064 806.672 86.272 807.752 85.84 808.448C81.688 806.816 77.872 803.648 75.496 799.952L77.872 798.992ZM68.32 794.648L70.816 795.584C69.832 797.408 68.728 799.544 67.792 800.888L65.872 800.048C66.736 798.632 67.768 796.328 68.32 794.648ZM71.08 797.48L73.408 798.536C71.68 801.296 69.328 804.632 67.504 806.72L65.848 805.784C67.624 803.6 69.832 800.072 71.08 797.48ZM64.624 800.336L65.992 798.368C67.264 799.472 68.752 800.984 69.376 802.088L67.888 804.32C67.312 803.168 65.848 801.488 64.624 800.336ZM70.36 803.216L72.256 802.424C73.192 804.032 74.104 806.144 74.368 807.512L72.328 808.424C72.088 807.032 71.248 804.872 70.36 803.216ZM64.6 805.208C66.808 805.136 70.048 805.016 73.216 804.872L73.192 807.152C70.24 807.368 67.168 807.56 64.84 807.728L64.6 805.208ZM70.888 809.192L72.904 808.544C73.504 809.912 74.128 811.712 74.392 812.912L72.28 813.656C72.04 812.456 71.416 810.608 70.888 809.192ZM65.632 808.736L68.008 809.144C67.768 811.448 67.24 813.848 66.544 815.384C66.04 815.072 64.96 814.568 64.36 814.328C65.056 812.912 65.44 810.776 65.632 808.736ZM68.32 806.48H70.84V817.184H68.32V806.48ZM89.896 796.928L91.144 794.984C92.752 795.368 95.032 796.136 96.232 796.712L94.936 798.896C93.832 798.296 91.552 797.432 89.896 796.928ZM88.84 801.008C90.616 800.672 93.208 800.048 95.752 799.472L96.016 801.728C93.928 802.352 91.72 803 89.92 803.504L88.84 801.008ZM99.472 796.232H108.688V798.248H97.864L99.472 796.232ZM108.016 796.232H108.424L108.856 796.136L110.752 796.616C110.128 797.936 109.264 799.376 108.472 800.264L106.24 799.592C106.888 798.824 107.608 797.576 108.016 796.544V796.232ZM101.92 797.072H104.512C104.032 800.504 102.688 802.568 97.312 803.648C97.072 803.072 96.472 802.112 95.992 801.608C100.624 800.888 101.56 799.496 101.92 797.072ZM104.344 797.696C104.752 799.472 105.808 801.032 111.256 801.656C110.728 802.232 110.104 803.312 109.84 804.032C103.84 803.072 102.664 800.456 102.04 797.912L104.344 797.696ZM99.4 794.624L101.92 795.032C100.984 796.952 99.808 798.704 97.984 800.192C97.48 799.688 96.496 799.088 95.824 798.824C97.576 797.624 98.752 796.016 99.4 794.624ZM94.888 807.68V808.712H105.328V807.68H94.888ZM94.888 810.344V811.4H105.328V810.344H94.888ZM94.888 805.04V806.048H105.328V805.04H94.888ZM92.104 803.312H108.232V813.104H92.104V803.312ZM101.344 814.352L103.744 812.984C106.264 813.896 109.24 815.096 110.944 815.936L107.584 817.232C106.24 816.416 103.768 815.264 101.344 814.352ZM96.016 812.912L98.656 814.088C96.688 815.36 93.568 816.56 91.12 817.256C90.616 816.68 89.632 815.624 88.984 815.144C91.528 814.664 94.384 813.824 96.016 812.912ZM122.08 795.56H131.392V798.296H122.08V795.56ZM121.816 803.624H129.424V806.312H121.816V803.624ZM124.432 797.384H127.168V803.456C127.168 808.016 126.736 813.296 122.752 817.184C122.296 816.56 121.312 815.576 120.64 815.144C124.072 811.76 124.432 807.272 124.432 803.432V797.384ZM129.904 795.56H132.856C132.616 803.744 132.712 813.68 133.864 814.016C134.008 814.064 134.176 812.384 134.224 810.728C134.68 811.472 135.4 812.624 135.808 813.056C135.424 816.824 134.152 817.64 132.616 816.968C129.736 815.888 129.928 805.76 129.904 795.56ZM113.848 801.992H121.096V804.152H113.848V801.992ZM113.92 795.368H121.024V797.552H113.92V795.368ZM113.848 805.256H121.096V807.44H113.848V805.256ZM112.696 798.608H121.888V800.888H112.696V798.608ZM115.096 808.592H121.12V815.888H115.096V813.608H118.672V810.872H115.096V808.592ZM113.8 808.592H116.224V816.848H113.8V808.592Z" fill="white"/>
<path d="M40.504 838.268H44.932V839.552H40.504V838.268ZM41.8 840.824H43.912V841.988H41.8V840.824ZM45.28 845.888H47.08V846.848H45.28V845.888ZM49.036 845.888H50.86V846.848H49.036V845.888ZM41.8 843.26H43.912V844.436H41.8V843.26ZM41.044 838.952H42.232V846.476H41.044V838.952ZM43.156 838.94H44.356V849.08H43.156V838.94ZM48.328 843.74H49.492V849.08H48.328V843.74ZM44.896 844.112H45.94V847.292H44.896V844.112ZM50.176 844.112H51.256V847.268H50.176V844.112ZM40.288 846.176C41.188 846.056 42.472 845.84 43.732 845.624L43.84 846.86C42.7 847.088 41.512 847.328 40.528 847.508L40.288 846.176ZM46.6 843.752H47.752V845.888C47.752 847.232 47.5 848.42 45.808 849.14C45.676 848.864 45.34 848.396 45.1 848.204C46.42 847.64 46.6 846.8 46.6 845.864V843.752ZM44.584 842.612C45.376 842.564 46.468 842.48 47.608 842.396L47.62 843.32C46.588 843.416 45.568 843.524 44.716 843.596L44.584 842.612ZM44.728 840.176L45.328 839.336C45.868 839.78 46.516 840.392 46.78 840.848L46.168 841.772C45.904 841.304 45.28 840.632 44.728 840.176ZM46.876 841.832L47.716 841.592C48.004 842.144 48.244 842.876 48.28 843.356L47.392 843.644C47.368 843.164 47.152 842.408 46.876 841.832ZM46.168 837.812L47.332 838.16C46.9 838.916 46.42 839.804 46.048 840.344L45.292 840.044C45.604 839.432 45.976 838.472 46.168 837.812ZM47.056 839.36L48.1 839.732C47.428 840.872 46.552 842.264 45.856 843.104L45.124 842.792C45.808 841.88 46.6 840.416 47.056 839.36ZM48.064 842.576C48.868 842.528 49.96 842.444 51.088 842.36L51.112 843.26C50.092 843.38 49.084 843.488 48.244 843.572L48.064 842.576ZM47.956 840.152L48.52 839.276C49.108 839.708 49.768 840.32 50.044 840.788L49.432 841.748C49.168 841.268 48.532 840.596 47.956 840.152ZM50.212 841.844L51.064 841.568C51.4 842.192 51.688 843.008 51.736 843.536L50.824 843.848C50.776 843.32 50.524 842.492 50.212 841.844ZM49.432 837.812L50.62 838.172C50.188 838.94 49.708 839.816 49.324 840.368L48.508 840.044C48.844 839.432 49.228 838.484 49.432 837.812ZM50.344 839.324L51.46 839.72C50.776 840.848 49.912 842.24 49.204 843.092L48.448 842.744C49.12 841.844 49.9 840.368 50.344 839.324ZM57.544 844.46H62.908V849.044H61.504V845.696H58.888V849.08H57.544V844.46ZM58.324 847.352H61.948V848.588H58.324V847.352ZM58.936 837.812L60.328 838.052C59.692 839.516 58.744 840.968 57.268 842.144C57.064 841.856 56.608 841.388 56.308 841.208C57.64 840.236 58.492 838.94 58.936 837.812ZM59.104 838.88H62.092V840.104H58.492L59.104 838.88ZM61.72 838.88H61.996L62.224 838.82L63.1 839.312C62.032 842.096 59.776 843.992 57.34 844.928C57.184 844.592 56.752 844.028 56.476 843.788C58.828 842.996 60.916 841.364 61.72 839.12V838.88ZM58.936 839.996C59.896 841.52 61.84 842.912 63.844 843.572C63.532 843.836 63.136 844.376 62.92 844.724C60.844 843.908 58.936 842.324 57.748 840.476L58.936 839.996ZM54.16 837.824L55.408 838.292C54.916 839.204 54.364 840.272 53.896 840.944L52.936 840.524C53.368 839.816 53.884 838.664 54.16 837.824ZM55.54 839.24L56.704 839.768C55.84 841.148 54.664 842.816 53.752 843.86L52.924 843.392C53.812 842.3 54.916 840.536 55.54 839.24ZM52.312 840.668L52.996 839.684C53.632 840.236 54.376 840.992 54.688 841.544L53.944 842.66C53.656 842.084 52.924 841.244 52.312 840.668ZM55.18 842.108L56.128 841.712C56.596 842.516 57.052 843.572 57.184 844.256L56.164 844.712C56.044 844.016 55.624 842.936 55.18 842.108ZM52.3 843.104C53.404 843.068 55.024 843.008 56.608 842.936L56.596 844.076C55.12 844.184 53.584 844.28 52.42 844.364L52.3 843.104ZM55.444 845.096L56.452 844.772C56.752 845.456 57.064 846.356 57.196 846.956L56.14 847.328C56.02 846.728 55.708 845.804 55.444 845.096ZM52.816 844.868L54.004 845.072C53.884 846.224 53.62 847.424 53.272 848.192C53.02 848.036 52.48 847.784 52.18 847.664C52.528 846.956 52.72 845.888 52.816 844.868ZM54.16 843.74H55.42V849.092H54.16V843.74ZM66.52 845.048H73.336V845.9H66.52V845.048ZM66.532 843.548H74.164V847.4H66.532V846.428H72.736V844.508H66.532V843.548ZM69.184 844.076H70.564V847.436C70.564 847.88 70.696 847.952 71.428 847.952C71.764 847.952 73.276 847.952 73.708 847.952C74.308 847.952 74.428 847.76 74.5 846.74C74.8 846.944 75.34 847.124 75.712 847.196C75.544 848.66 75.136 849.044 73.828 849.044C73.444 849.044 71.656 849.044 71.296 849.044C69.64 849.044 69.184 848.696 69.184 847.436V844.076ZM65.812 843.548H67.192V847.928H65.812V843.548ZM65.524 838.244H74.428V839.3H65.524V838.244ZM66.448 841.112H68.824V841.892H66.448V841.112ZM66.22 842.312H68.824V843.092H66.22V842.312ZM71.116 842.312H73.744V843.092H71.116V842.312ZM71.116 841.112H73.468V841.892H71.116V841.112ZM69.256 838.664H70.66V843.224H69.256V838.664ZM64.708 839.744H75.304V842.204H73.972V840.704H65.98V842.204H64.708V839.744ZM81.664 844.232H87.196V849.032H85.756V845.528H83.02V849.092H81.664V844.232ZM86.356 837.932L87.364 839.132C85.732 839.612 83.524 839.888 81.628 840.02C81.58 839.672 81.388 839.132 81.22 838.808C83.044 838.652 85.084 838.34 86.356 837.932ZM83.62 839.06H85.096V844.88H83.62V839.06ZM81.028 841.292H87.688V842.648H81.028V841.292ZM82.576 847.208H86.44V848.504H82.576V847.208ZM76.936 841.58H80.56V842.66H76.936V841.58ZM77.008 838.184H80.56V839.276H77.008V838.184ZM76.936 843.26H80.56V844.34H76.936V843.26ZM76.348 839.852H80.944V840.98H76.348V839.852ZM77.644 844.952H80.62V848.6H77.644V847.472H79.384V846.092H77.644V844.952ZM76.9 844.952H78.112V849.08H76.9V844.952Z" fill="white"/>
<path d="M118.064 843.055V844.355C118.064 845.055 118.002 845.645 117.877 846.125C117.752 846.605 117.572 846.992 117.338 847.285C117.104 847.578 116.82 847.791 116.488 847.924C116.16 848.053 115.789 848.117 115.375 848.117C115.047 848.117 114.744 848.076 114.467 847.994C114.189 847.912 113.939 847.781 113.717 847.602C113.498 847.418 113.311 847.18 113.154 846.887C112.998 846.594 112.879 846.238 112.797 845.82C112.715 845.402 112.674 844.914 112.674 844.355V843.055C112.674 842.355 112.736 841.77 112.861 841.297C112.99 840.824 113.172 840.445 113.406 840.16C113.641 839.871 113.922 839.664 114.25 839.539C114.582 839.414 114.953 839.352 115.363 839.352C115.695 839.352 116 839.393 116.277 839.475C116.559 839.553 116.809 839.68 117.027 839.855C117.246 840.027 117.432 840.258 117.584 840.547C117.74 840.832 117.859 841.182 117.941 841.596C118.023 842.01 118.064 842.496 118.064 843.055ZM116.975 844.531V842.873C116.975 842.49 116.951 842.154 116.904 841.865C116.861 841.572 116.797 841.322 116.711 841.115C116.625 840.908 116.516 840.74 116.383 840.611C116.254 840.482 116.104 840.389 115.932 840.33C115.764 840.268 115.574 840.236 115.363 840.236C115.105 840.236 114.877 840.285 114.678 840.383C114.479 840.477 114.311 840.627 114.174 840.834C114.041 841.041 113.939 841.312 113.869 841.648C113.799 841.984 113.764 842.393 113.764 842.873V844.531C113.764 844.914 113.785 845.252 113.828 845.545C113.875 845.838 113.943 846.092 114.033 846.307C114.123 846.518 114.232 846.691 114.361 846.828C114.49 846.965 114.639 847.066 114.807 847.133C114.979 847.195 115.168 847.227 115.375 847.227C115.641 847.227 115.873 847.176 116.072 847.074C116.271 846.973 116.438 846.814 116.57 846.6C116.707 846.381 116.809 846.102 116.875 845.762C116.941 845.418 116.975 845.008 116.975 844.531ZM120.537 847.092H120.648C121.273 847.092 121.781 847.004 122.172 846.828C122.562 846.652 122.863 846.416 123.074 846.119C123.285 845.822 123.43 845.488 123.508 845.117C123.586 844.742 123.625 844.357 123.625 843.963V842.656C123.625 842.27 123.58 841.926 123.49 841.625C123.404 841.324 123.283 841.072 123.127 840.869C122.975 840.666 122.801 840.512 122.605 840.406C122.41 840.301 122.203 840.248 121.984 840.248C121.734 840.248 121.51 840.299 121.311 840.4C121.115 840.498 120.949 840.637 120.812 840.816C120.68 840.996 120.578 841.207 120.508 841.449C120.438 841.691 120.402 841.955 120.402 842.24C120.402 842.494 120.434 842.74 120.496 842.979C120.559 843.217 120.654 843.432 120.783 843.623C120.912 843.814 121.072 843.967 121.264 844.08C121.459 844.189 121.688 844.244 121.949 844.244C122.191 844.244 122.418 844.197 122.629 844.104C122.844 844.006 123.033 843.875 123.197 843.711C123.365 843.543 123.498 843.354 123.596 843.143C123.697 842.932 123.756 842.711 123.771 842.48H124.287C124.287 842.805 124.223 843.125 124.094 843.441C123.969 843.754 123.793 844.039 123.566 844.297C123.34 844.555 123.074 844.762 122.77 844.918C122.465 845.07 122.133 845.146 121.773 845.146C121.352 845.146 120.986 845.064 120.678 844.9C120.369 844.736 120.115 844.518 119.916 844.244C119.721 843.971 119.574 843.666 119.477 843.33C119.383 842.99 119.336 842.646 119.336 842.299C119.336 841.893 119.393 841.512 119.506 841.156C119.619 840.801 119.787 840.488 120.01 840.219C120.232 839.945 120.508 839.732 120.836 839.58C121.168 839.428 121.551 839.352 121.984 839.352C122.473 839.352 122.889 839.449 123.232 839.645C123.576 839.84 123.855 840.102 124.07 840.43C124.289 840.758 124.449 841.127 124.551 841.537C124.652 841.947 124.703 842.369 124.703 842.803V843.195C124.703 843.637 124.674 844.086 124.615 844.543C124.561 844.996 124.453 845.43 124.293 845.844C124.137 846.258 123.908 846.629 123.607 846.957C123.307 847.281 122.914 847.539 122.43 847.73C121.949 847.918 121.355 848.012 120.648 848.012H120.537V847.092ZM129.771 839.422V848H128.688V840.775L126.502 841.572V840.594L129.602 839.422H129.771ZM138.549 847.109V848H132.965V847.221L135.76 844.109C136.104 843.727 136.369 843.402 136.557 843.137C136.748 842.867 136.881 842.627 136.955 842.416C137.033 842.201 137.072 841.982 137.072 841.76C137.072 841.479 137.014 841.225 136.896 840.998C136.783 840.768 136.615 840.584 136.393 840.447C136.17 840.311 135.9 840.242 135.584 840.242C135.205 840.242 134.889 840.316 134.635 840.465C134.385 840.609 134.197 840.812 134.072 841.074C133.947 841.336 133.885 841.637 133.885 841.977H132.801C132.801 841.496 132.906 841.057 133.117 840.658C133.328 840.26 133.641 839.943 134.055 839.709C134.469 839.471 134.979 839.352 135.584 839.352C136.123 839.352 136.584 839.447 136.967 839.639C137.35 839.826 137.643 840.092 137.846 840.436C138.053 840.775 138.156 841.174 138.156 841.631C138.156 841.881 138.113 842.135 138.027 842.393C137.945 842.646 137.83 842.9 137.682 843.154C137.537 843.408 137.367 843.658 137.172 843.904C136.98 844.15 136.775 844.393 136.557 844.631L134.271 847.109H138.549ZM142.082 843.928V844.818H139.223V843.928H142.082ZM144.607 843.201H145.381C145.76 843.201 146.072 843.139 146.318 843.014C146.568 842.885 146.754 842.711 146.875 842.492C147 842.27 147.062 842.02 147.062 841.742C147.062 841.414 147.008 841.139 146.898 840.916C146.789 840.693 146.625 840.525 146.406 840.412C146.188 840.299 145.91 840.242 145.574 840.242C145.27 840.242 145 840.303 144.766 840.424C144.535 840.541 144.354 840.709 144.221 840.928C144.092 841.146 144.027 841.404 144.027 841.701H142.943C142.943 841.268 143.053 840.873 143.271 840.518C143.49 840.162 143.797 839.879 144.191 839.668C144.59 839.457 145.051 839.352 145.574 839.352C146.09 839.352 146.541 839.443 146.928 839.627C147.314 839.807 147.615 840.076 147.83 840.436C148.045 840.791 148.152 841.234 148.152 841.766C148.152 841.98 148.102 842.211 148 842.457C147.902 842.699 147.748 842.926 147.537 843.137C147.33 843.348 147.061 843.521 146.729 843.658C146.396 843.791 145.998 843.857 145.533 843.857H144.607V843.201ZM144.607 844.092V843.441H145.533C146.076 843.441 146.525 843.506 146.881 843.635C147.236 843.764 147.516 843.936 147.719 844.15C147.926 844.365 148.07 844.602 148.152 844.859C148.238 845.113 148.281 845.367 148.281 845.621C148.281 846.02 148.213 846.373 148.076 846.682C147.943 846.99 147.754 847.252 147.508 847.467C147.266 847.682 146.98 847.844 146.652 847.953C146.324 848.062 145.967 848.117 145.58 848.117C145.209 848.117 144.859 848.064 144.531 847.959C144.207 847.854 143.92 847.701 143.67 847.502C143.42 847.299 143.225 847.051 143.084 846.758C142.943 846.461 142.873 846.123 142.873 845.744H143.957C143.957 846.041 144.021 846.301 144.15 846.523C144.283 846.746 144.471 846.92 144.713 847.045C144.959 847.166 145.248 847.227 145.58 847.227C145.912 847.227 146.197 847.17 146.436 847.057C146.678 846.939 146.863 846.764 146.992 846.529C147.125 846.295 147.191 846 147.191 845.645C147.191 845.289 147.117 844.998 146.969 844.771C146.82 844.541 146.609 844.371 146.336 844.262C146.066 844.148 145.748 844.092 145.381 844.092H144.607ZM155.541 845.129V846.02H149.377V845.381L153.197 839.469H154.082L153.133 841.18L150.607 845.129H155.541ZM154.352 839.469V848H153.268V839.469H154.352ZM157.896 843.939L157.029 843.717L157.457 839.469H161.834V840.471H158.377L158.119 842.791C158.275 842.701 158.473 842.617 158.711 842.539C158.953 842.461 159.23 842.422 159.543 842.422C159.938 842.422 160.291 842.49 160.604 842.627C160.916 842.76 161.182 842.951 161.4 843.201C161.623 843.451 161.793 843.752 161.91 844.104C162.027 844.455 162.086 844.848 162.086 845.281C162.086 845.691 162.029 846.068 161.916 846.412C161.807 846.756 161.641 847.057 161.418 847.314C161.195 847.568 160.914 847.766 160.574 847.906C160.238 848.047 159.842 848.117 159.385 848.117C159.041 848.117 158.715 848.07 158.406 847.977C158.102 847.879 157.828 847.732 157.586 847.537C157.348 847.338 157.152 847.092 157 846.799C156.852 846.502 156.758 846.154 156.719 845.756H157.75C157.797 846.076 157.891 846.346 158.031 846.564C158.172 846.783 158.355 846.949 158.582 847.062C158.812 847.172 159.08 847.227 159.385 847.227C159.643 847.227 159.871 847.182 160.07 847.092C160.27 847.002 160.438 846.873 160.574 846.705C160.711 846.537 160.814 846.334 160.885 846.096C160.959 845.857 160.996 845.59 160.996 845.293C160.996 845.023 160.959 844.773 160.885 844.543C160.811 844.312 160.699 844.111 160.551 843.939C160.406 843.768 160.229 843.635 160.018 843.541C159.807 843.443 159.564 843.395 159.291 843.395C158.928 843.395 158.652 843.443 158.465 843.541C158.281 843.639 158.092 843.771 157.896 843.939ZM165.648 843.928V844.818H162.789V843.928H165.648ZM170.752 839.457H170.846V840.377H170.752C170.178 840.377 169.697 840.471 169.311 840.658C168.924 840.842 168.617 841.09 168.391 841.402C168.164 841.711 168 842.059 167.898 842.445C167.801 842.832 167.752 843.225 167.752 843.623V844.877C167.752 845.256 167.797 845.592 167.887 845.885C167.977 846.174 168.1 846.418 168.256 846.617C168.412 846.816 168.588 846.967 168.783 847.068C168.982 847.17 169.189 847.221 169.404 847.221C169.654 847.221 169.877 847.174 170.072 847.08C170.268 846.982 170.432 846.848 170.564 846.676C170.701 846.5 170.805 846.293 170.875 846.055C170.945 845.816 170.98 845.555 170.98 845.27C170.98 845.016 170.949 844.771 170.887 844.537C170.824 844.299 170.729 844.088 170.6 843.904C170.471 843.717 170.309 843.57 170.113 843.465C169.922 843.355 169.693 843.301 169.428 843.301C169.127 843.301 168.846 843.375 168.584 843.523C168.326 843.668 168.113 843.859 167.945 844.098C167.781 844.332 167.688 844.588 167.664 844.865L167.09 844.859C167.145 844.422 167.246 844.049 167.395 843.74C167.547 843.428 167.734 843.174 167.957 842.979C168.184 842.779 168.436 842.635 168.713 842.545C168.994 842.451 169.291 842.404 169.604 842.404C170.029 842.404 170.396 842.484 170.705 842.645C171.014 842.805 171.268 843.02 171.467 843.289C171.666 843.555 171.812 843.855 171.906 844.191C172.004 844.523 172.053 844.865 172.053 845.217C172.053 845.619 171.996 845.996 171.883 846.348C171.77 846.699 171.6 847.008 171.373 847.273C171.15 847.539 170.875 847.746 170.547 847.895C170.219 848.043 169.838 848.117 169.404 848.117C168.943 848.117 168.541 848.023 168.197 847.836C167.854 847.645 167.568 847.391 167.342 847.074C167.115 846.758 166.945 846.406 166.832 846.02C166.719 845.633 166.662 845.24 166.662 844.842V844.332C166.662 843.73 166.723 843.141 166.844 842.562C166.965 841.984 167.174 841.461 167.471 840.992C167.771 840.523 168.188 840.15 168.719 839.873C169.25 839.596 169.928 839.457 170.752 839.457ZM178.855 839.469V840.078L175.322 848H174.18L177.707 840.359H173.09V839.469H178.855ZM185.471 845.691C185.471 846.211 185.35 846.652 185.107 847.016C184.869 847.375 184.545 847.648 184.135 847.836C183.729 848.023 183.27 848.117 182.758 848.117C182.246 848.117 181.785 848.023 181.375 847.836C180.965 847.648 180.641 847.375 180.402 847.016C180.164 846.652 180.045 846.211 180.045 845.691C180.045 845.352 180.109 845.041 180.238 844.76C180.371 844.475 180.557 844.227 180.795 844.016C181.037 843.805 181.322 843.643 181.65 843.529C181.982 843.412 182.348 843.354 182.746 843.354C183.27 843.354 183.736 843.455 184.146 843.658C184.557 843.857 184.879 844.133 185.113 844.484C185.352 844.836 185.471 845.238 185.471 845.691ZM184.381 845.668C184.381 845.352 184.312 845.072 184.176 844.83C184.039 844.584 183.848 844.393 183.602 844.256C183.355 844.119 183.07 844.051 182.746 844.051C182.414 844.051 182.127 844.119 181.885 844.256C181.646 844.393 181.461 844.584 181.328 844.83C181.195 845.072 181.129 845.352 181.129 845.668C181.129 845.996 181.193 846.277 181.322 846.512C181.455 846.742 181.643 846.92 181.885 847.045C182.131 847.166 182.422 847.227 182.758 847.227C183.094 847.227 183.383 847.166 183.625 847.045C183.867 846.92 184.053 846.742 184.182 846.512C184.314 846.277 184.381 845.996 184.381 845.668ZM185.271 841.689C185.271 842.104 185.162 842.477 184.943 842.809C184.725 843.141 184.426 843.402 184.047 843.594C183.668 843.785 183.238 843.881 182.758 843.881C182.27 843.881 181.834 843.785 181.451 843.594C181.072 843.402 180.775 843.141 180.561 842.809C180.346 842.477 180.238 842.104 180.238 841.689C180.238 841.193 180.346 840.771 180.561 840.424C180.779 840.076 181.078 839.811 181.457 839.627C181.836 839.443 182.268 839.352 182.752 839.352C183.24 839.352 183.674 839.443 184.053 839.627C184.432 839.811 184.729 840.076 184.943 840.424C185.162 840.771 185.271 841.193 185.271 841.689ZM184.188 841.707C184.188 841.422 184.127 841.17 184.006 840.951C183.885 840.732 183.717 840.561 183.502 840.436C183.287 840.307 183.037 840.242 182.752 840.242C182.467 840.242 182.217 840.303 182.002 840.424C181.791 840.541 181.625 840.709 181.504 840.928C181.387 841.146 181.328 841.406 181.328 841.707C181.328 842 181.387 842.256 181.504 842.475C181.625 842.693 181.793 842.863 182.008 842.984C182.223 843.105 182.473 843.166 182.758 843.166C183.043 843.166 183.291 843.105 183.502 842.984C183.717 842.863 183.885 842.693 184.006 842.475C184.127 842.256 184.188 842 184.188 841.707Z" fill="white"/>
<rect width="390" height="618" fill="#D9D9D9"/>
<rect y="507.996" width="390" height="110.004" fill="url(#paint0_linear_884_58618)"/>
<path d="M57.208 498.56L61.42 499.244C60.628 504.5 59.08 509.648 56.992 512.888C56.2 512.24 54.328 511.124 53.32 510.584C55.372 507.776 56.596 503.168 57.208 498.56ZM63.004 496.796H67.36V528.188H63.004V496.796ZM56.74 514.184H73.588V518.18H56.74V514.184ZM54.508 525.524H74.884V529.592H54.508V525.524ZM58.468 503.78H73.948V507.884H56.848L58.468 503.78ZM41.152 503.6H52.096V507.56H41.152V503.6ZM45.4 496.436L49.504 496.832C48.244 504.428 46.372 513.968 44.788 520.484L41.332 518.432C42.736 512.852 44.428 503.528 45.4 496.436ZM42.88 517.532L45.436 514.508C48.856 517.172 53.356 521.024 55.336 523.724L52.564 527.216C50.656 524.444 46.336 520.34 42.88 517.532ZM50.584 503.6H51.304L52.024 503.528L54.508 503.816C53.86 518.144 50.8 525.992 43.816 530.276C43.24 529.196 42.16 527.648 41.296 526.784C47.2 523.724 50.08 515.948 50.584 504.356V503.6ZM89.716 524.912H105.844V528.836H89.716V524.912ZM87.916 499.964H100.66V503.78H87.916V499.964ZM88.852 496.22L93.712 497.192C90.652 502.448 86.332 507.272 79.852 511.16C79.24 510.08 77.8 508.496 76.828 507.74C82.768 504.608 86.764 500.216 88.852 496.22ZM99.292 499.964H100.12L100.84 499.748L103.828 501.332C99.616 512.528 90.004 519.872 79.276 523.472C78.736 522.284 77.656 520.52 76.756 519.62C86.692 516.74 95.98 509.756 99.292 500.684V499.964ZM83.2 507.884L86.404 505.076C88.888 506.84 92.164 509.396 93.748 511.268L90.256 514.4C88.888 512.528 85.684 509.756 83.2 507.884ZM103.828 513.932H108.328V530.276H103.828V513.932ZM91.552 513.932H105.988V517.856H91.552V530.204H87.232V517.136L90.508 513.932H91.552Z" fill="white"/>
<path d="M45.256 553.928H47.692V554.576H45.256V553.928ZM44.584 548.12H48.364V548.828H44.584V548.12ZM44.236 550.748H51.532V551.492H44.236V550.748ZM45.412 552.212H48.1V556.328H45.412V555.656H47.368V552.884H45.412V552.212ZM44.884 552.212H45.604V557.084H44.884V552.212ZM46.036 546.944H46.828V548.624H46.036V546.944ZM50.44 552.104L51.196 552.26C50.524 554.792 49.264 556.724 47.5 557.96C47.392 557.816 47.116 557.504 46.936 557.36C48.688 556.268 49.852 554.432 50.44 552.104ZM44.944 549.044L45.568 548.9C45.796 549.428 45.952 550.124 45.976 550.592L45.316 550.748C45.304 550.292 45.148 549.584 44.944 549.044ZM49.648 547.7L50.272 547.376C50.8 547.964 51.316 548.78 51.544 549.332L50.884 549.692C50.668 549.14 50.152 548.3 49.648 547.7ZM47.236 548.876L47.968 549.044C47.776 549.62 47.584 550.292 47.416 550.724L46.816 550.58C46.972 550.1 47.164 549.368 47.236 548.876ZM40.6 547.448H44.608V548.252H40.6V547.448ZM41.536 549.968H43.696V550.724H41.536V549.968ZM41.536 552.44H43.696V553.208H41.536V552.44ZM41.164 547.856H41.92V555.536H41.164V547.856ZM43.24 547.844H44.02V557.972H43.24V547.844ZM40.396 555.416C41.224 555.272 42.424 555.032 43.648 554.78L43.708 555.572C42.58 555.812 41.452 556.064 40.552 556.256L40.396 555.416ZM48.64 546.944H49.456C49.456 552.296 49.84 556.868 50.62 556.904C50.8 556.904 50.944 556.232 51.016 555.104C51.16 555.284 51.484 555.5 51.628 555.572C51.4 557.456 50.968 557.948 50.584 557.936C49.012 557.912 48.736 553.124 48.64 546.944ZM59.608 550.364H60.424V555.248H59.608V550.364ZM57.724 553.004H62.5V553.7H57.724V553.004ZM56.344 554.852H63.64V555.608H56.344V554.852ZM57.196 551.144H62.512V551.876H58.024V557.948H57.196V551.144ZM62.116 551.144H62.968V556.988C62.968 557.432 62.872 557.684 62.548 557.804C62.236 557.948 61.744 557.96 60.988 557.96C60.952 557.732 60.808 557.384 60.688 557.168C61.24 557.192 61.756 557.18 61.912 557.18C62.068 557.168 62.116 557.132 62.116 556.988V551.144ZM62.032 547.1L62.716 547.748C61.42 548.072 59.56 548.3 57.988 548.42C57.952 548.24 57.832 547.94 57.748 547.748C59.26 547.628 61.024 547.364 62.032 547.1ZM57.652 547.556L58.54 547.736C58.228 548.9 57.736 550.088 57.196 550.844C57.016 550.712 56.62 550.496 56.404 550.4C56.968 549.68 57.4 548.612 57.652 547.556ZM59.272 548.66L60.028 548.468C60.304 548.972 60.52 549.656 60.592 550.112L59.8 550.34C59.74 549.884 59.524 549.176 59.272 548.66ZM61.54 548.42L62.272 548.12C62.788 548.816 63.304 549.752 63.532 550.376L62.752 550.724C62.548 550.1 62.032 549.128 61.54 548.42ZM54.292 547.964H55.144V557.984H54.292V547.964ZM52.528 550.4H56.608V551.228H52.528V550.4ZM54.28 550.724L54.832 550.928C54.448 552.596 53.644 554.732 52.852 555.86C52.756 555.608 52.54 555.248 52.384 555.044C53.128 554.06 53.932 552.188 54.28 550.724ZM55.948 547.184L56.632 547.82C55.6 548.264 54.052 548.6 52.732 548.792C52.696 548.6 52.576 548.312 52.468 548.132C53.728 547.916 55.156 547.568 55.948 547.184ZM55.108 551.78C55.396 552.032 56.452 553.16 56.692 553.448L56.164 554.12C55.9 553.664 55.036 552.536 54.7 552.14L55.108 551.78Z" fill="white"/>
<path d="M50.008 580.552L52.12 581.08C50.608 584.704 48.52 589.192 46.744 592.096L45.088 591.568C46.792 588.616 48.88 583.936 50.008 580.552ZM42.136 591.016C46.528 590.872 53.512 590.584 59.944 590.272L59.896 592C53.608 592.36 46.888 592.72 42.376 592.912L42.136 591.016ZM54.616 585.808L56.344 585.016C58.528 587.536 61 590.872 62.2 593.056L60.376 594.04C59.248 591.856 56.752 588.352 54.616 585.808ZM47.584 572.56L49.576 573.112C47.968 576.976 45.448 580.648 42.904 583.024C42.52 582.664 41.68 582.016 41.176 581.728C43.816 579.568 46.192 576.112 47.584 572.56ZM56.176 572.536C57.76 575.68 60.784 579.472 62.992 581.464C62.512 581.848 61.84 582.544 61.48 583C59.248 580.72 56.248 576.64 54.4 573.28L56.176 572.536ZM66.112 573.4H84.208V575.128H66.112V573.4ZM66.256 577.648H80.728V579.256H66.256V577.648ZM83.488 573.4H85.288V591.232C85.288 592.48 85.048 593.104 84.208 593.44C83.368 593.752 81.856 593.776 79.72 593.776C79.624 593.224 79.36 592.336 79.072 591.808C80.752 591.856 82.384 591.856 82.888 591.832C83.344 591.808 83.488 591.688 83.488 591.232V573.4ZM67.792 581.848H69.544V591.304H67.792V581.848ZM69.232 581.848H79.072V589.528H69.232V587.944H77.296V583.456H69.232V581.848ZM96.736 591.304H108.328V592.96H96.736V591.304ZM95.92 574.264H104.728V575.872H95.92V574.264ZM97 571.768L99.016 572.176C97.216 575.296 94.336 578.56 90.16 581.032C89.896 580.576 89.296 579.952 88.888 579.64C92.848 577.48 95.608 574.384 97 571.768ZM104.128 574.264H104.464L104.8 574.168L106 574.816C103.12 582.064 96.352 586.888 89.824 589C89.608 588.52 89.152 587.776 88.768 587.392C94.984 585.592 101.632 580.888 104.128 574.576V574.264ZM92.92 578.536L94.264 577.384C96.16 578.68 98.464 580.6 99.568 581.968L98.104 583.264C97.096 581.896 94.816 579.88 92.92 578.536ZM107.44 583.72H109.288V593.968H107.44V583.72ZM97.552 583.72H108.352V585.376H97.552V593.92H95.752V585.136L97.192 583.72H97.552ZM127.216 578.728H128.848V588.496H127.216V578.728ZM123.448 584.008H133V585.4H123.448V584.008ZM120.688 587.704H135.28V589.216H120.688V587.704ZM122.392 580.288H133.024V581.752H124.048V593.896H122.392V580.288ZM132.232 580.288H133.936V591.976C133.936 592.864 133.744 593.368 133.096 593.608C132.472 593.896 131.488 593.92 129.976 593.92C129.904 593.464 129.616 592.768 129.376 592.336C130.48 592.384 131.512 592.36 131.824 592.36C132.136 592.336 132.232 592.264 132.232 591.976V580.288ZM132.064 572.2L133.432 573.496C130.84 574.144 127.12 574.6 123.976 574.84C123.904 574.48 123.664 573.88 123.496 573.496C126.52 573.256 130.048 572.728 132.064 572.2ZM123.304 573.112L125.08 573.472C124.456 575.8 123.472 578.176 122.392 579.688C122.032 579.424 121.24 578.992 120.808 578.8C121.936 577.36 122.8 575.224 123.304 573.112ZM126.544 575.32L128.056 574.936C128.608 575.944 129.04 577.312 129.184 578.224L127.6 578.68C127.48 577.768 127.048 576.352 126.544 575.32ZM131.08 574.84L132.544 574.24C133.576 575.632 134.608 577.504 135.064 578.752L133.504 579.448C133.096 578.2 132.064 576.256 131.08 574.84ZM116.584 573.928H118.288V593.968H116.584V573.928ZM113.056 578.8H121.216V580.456H113.056V578.8ZM116.56 579.448L117.664 579.856C116.896 583.192 115.288 587.464 113.704 589.72C113.512 589.216 113.08 588.496 112.768 588.088C114.256 586.12 115.864 582.376 116.56 579.448ZM119.896 572.368L121.264 573.64C119.2 574.528 116.104 575.2 113.464 575.584C113.392 575.2 113.152 574.624 112.936 574.264C115.456 573.832 118.312 573.136 119.896 572.368ZM118.216 581.56C118.792 582.064 120.904 584.32 121.384 584.896L120.328 586.24C119.8 585.328 118.072 583.072 117.4 582.28L118.216 581.56Z" fill="white"/>
<g clip-path="url(#clip1_884_58618)">
<circle cx="58" cy="656" r="18" fill="#505050"/>
<path d="M49 649C49 647.895 49.8954 647 51 647H54.2792C54.7097 647 55.0918 647.275 55.2279 647.684L56.7257 652.177C56.8831 652.649 56.6694 653.165 56.2243 653.388L53.967 654.516C55.0692 656.961 57.0388 658.931 59.4835 660.033L60.6121 657.776C60.8347 657.331 61.3507 657.117 61.8228 657.274L66.3162 658.772C66.7246 658.908 67 659.29 67 659.721V663C67 664.105 66.1046 665 65 665H64C55.7157 665 49 658.284 49 650V649Z" stroke="white" stroke-width="2" stroke-linecap="round" stroke-linejoin="round"/>
</g>
<g clip-path="url(#clip2_884_58618)">
<circle cx="102" cy="656" r="18" fill="#505050"/>
<path d="M93 652L100.891 657.26C101.562 657.708 102.438 657.708 103.109 657.26L111 652M95 663H109C110.105 663 111 662.105 111 661V651C111 649.895 110.105 649 109 649H95C93.8954 649 93 649.895 93 651V661C93 662.105 93.8954 663 95 663Z" stroke="white" stroke-width="2" stroke-linecap="round" stroke-linejoin="round"/>
</g>
<g clip-path="url(#clip3_884_58618)">
<circle cx="146" cy="656" r="18" fill="#505050"/>
<path d="M151 652H153C154.105 652 155 652.895 155 654V660C155 661.105 154.105 662 153 662H151V666L147 662H143C142.448 662 141.948 661.776 141.586 661.414M141.586 661.414L145 658H149C150.105 658 151 657.105 151 656V650C151 648.895 150.105 648 149 648H139C137.895 648 137 648.895 137 650V656C137 657.105 137.895 658 139 658H141V662L141.586 661.414Z" stroke="white" stroke-width="2" stroke-linecap="round" stroke-linejoin="round"/>
</g>
<g clip-path="url(#clip4_884_58618)">
<circle cx="58" cy="814" r="18" fill="#418BDA"/>
<path d="M59 806C59 805.448 58.5523 805 58 805C57.4477 805 57 805.448 57 806H59ZM57 807C57 807.552 57.4477 808 58 808C58.5523 808 59 807.552 59 807H57ZM64 817C63.4477 817 63 817.448 63 818C63 818.552 63.4477 819 64 819V817ZM66 819C66.5523 819 67 818.552 67 818C67 817.448 66.5523 817 66 817V819ZM58 818V817C57.4477 817 57 817.448 57 818H58ZM60 819C60.5523 819 61 818.552 61 818C61 817.448 60.5523 817 60 817V819ZM57 822C57 822.552 57.4477 823 58 823C58.5523 823 59 822.552 59 822H57ZM59 811C59 810.448 58.5523 810 58 810C57.4477 810 57 810.448 57 811H59ZM58 814H57C57 814.552 57.4477 815 58 815V814ZM62 821C61.4477 821 61 821.448 61 822C61 822.552 61.4477 823 62 823V821ZM66 823C66.5523 823 67 822.552 67 822C67 821.448 66.5523 821 66 821V823ZM50 813C49.4477 813 49 813.448 49 814C49 814.552 49.4477 815 50 815V813ZM54 815C54.5523 815 55 814.552 55 814C55 813.448 54.5523 813 54 813V815ZM58.01 815C58.5623 815 59.01 814.552 59.01 814C59.01 813.448 58.5623 813 58.01 813V815ZM62.01 815C62.5623 815 63.01 814.552 63.01 814C63.01 813.448 62.5623 813 62.01 813V815ZM66 813C65.4477 813 65 813.448 65 814C65 814.552 65.4477 815 66 815V813ZM66.01 815C66.5623 815 67.01 814.552 67.01 814C67.01 813.448 66.5623 813 66.01 813V815ZM51 807H53V805H51V807ZM53 807V809H55V807H53ZM53 809H51V811H53V809ZM51 809V807H49V809H51ZM51 809H49C49 810.105 49.8954 811 51 811V809ZM53 809V811C54.1046 811 55 810.105 55 809H53ZM53 807H55C55 805.895 54.1046 805 53 805V807ZM51 805C49.8954 805 49 805.895 49 807H51V805ZM63 807H65V805H63V807ZM65 807V809H67V807H65ZM65 809H63V811H65V809ZM63 809V807H61V809H63ZM63 809H61C61 810.105 61.8954 811 63 811V809ZM65 809V811C66.1046 811 67 810.105 67 809H65ZM65 807H67C67 805.895 66.1046 805 65 805V807ZM63 805C61.8954 805 61 805.895 61 807H63V805ZM51 819H53V817H51V819ZM53 819V821H55V819H53ZM53 821H51V823H53V821ZM51 821V819H49V821H51ZM51 821H49C49 822.105 49.8954 823 51 823V821ZM53 821V823C54.1046 823 55 822.105 55 821H53ZM53 819H55C55 817.895 54.1046 817 53 817V819ZM51 817C49.8954 817 49 817.895 49 819H51V817ZM57 806V807H59V806H57ZM64 819H66V817H64V819ZM58 819H60V817H58V819ZM57 818V822H59V818H57ZM57 811V814H59V811H57ZM62 823H66V821H62V823ZM50 815H54V813H50V815ZM58 815H58.01V813H58V815ZM66 815H66.01V813H66V815ZM58 815H62.01V813H58V815Z" fill="white"/>
</g>
<g clip-path="url(#clip5_884_58618)">
<circle cx="102" cy="814" r="18" fill="#418BDA"/>
<path d="M98.6839 815.342C98.8862 814.938 99 814.482 99 814C99 813.518 98.8862 813.062 98.6839 812.658M98.6839 815.342C98.1913 816.325 97.1745 817 96 817C94.3431 817 93 815.657 93 814C93 812.343 94.3431 811 96 811C97.1745 811 98.1913 811.675 98.6839 812.658M98.6839 815.342L105.316 818.658M98.6839 812.658L105.316 809.342M105.316 809.342C105.809 810.325 106.826 811 108 811C109.657 811 111 809.657 111 808C111 806.343 109.657 805 108 805C106.343 805 105 806.343 105 808C105 808.482 105.114 808.938 105.316 809.342ZM105.316 818.658C105.114 819.062 105 819.518 105 820C105 821.657 106.343 823 108 823C109.657 823 111 821.657 111 820C111 818.343 109.657 817 108 817C106.826 817 105.809 817.675 105.316 818.658Z" stroke="white" stroke-width="2" stroke-linecap="round" stroke-linejoin="round"/>
</g>
<g clip-path="url(#clip6_884_58618)">
<rect x="270" y="796" width="80" height="36" rx="18" fill="#418BDA"/>
<path d="M338 811V814M338 814V817M338 814H341M338 814H335M333 809C333 811.209 331.209 813 329 813C326.791 813 325 811.209 325 809C325 806.791 326.791 805 329 805C331.209 805 333 806.791 333 809ZM323 822C323 818.686 325.686 816 329 816C332.314 816 335 818.686 335 822V823H323V822Z" stroke="white" stroke-width="2" stroke-linecap="round" stroke-linejoin="round"/>
<path d="M289.26 817.028H292.524V817.904H289.26V817.028ZM282.636 810.2H287.244V811.076H282.636V810.2ZM288.852 809.42H292.956V818.696H292.044V810.284H289.728V818.78H288.852V809.42ZM287.004 810.2H287.88C287.88 810.2 287.88 810.536 287.88 810.656C287.784 815.996 287.7 817.748 287.316 818.276C287.1 818.588 286.884 818.696 286.524 818.732C286.188 818.78 285.636 818.78 285.096 818.744C285.084 818.48 284.988 818.084 284.832 817.832C285.396 817.88 285.912 817.88 286.14 817.88C286.32 817.892 286.428 817.856 286.536 817.7C286.812 817.328 286.92 815.552 287.004 810.416V810.2ZM284.34 808.088H285.216C285.204 812.516 285.144 816.68 283.032 818.972C282.876 818.768 282.564 818.492 282.336 818.36C284.34 816.248 284.328 812.288 284.34 808.088ZM299.364 808.544H304.632V809.384H299.364V808.544ZM298.956 812.756H305.556V813.62H298.956V812.756ZM301.788 811.16H302.688V817.832C302.688 818.372 302.556 818.636 302.184 818.78C301.788 818.924 301.164 818.948 300.204 818.936C300.156 818.696 300 818.3 299.88 818.06C300.636 818.084 301.308 818.084 301.524 818.072C301.728 818.06 301.788 818 301.788 817.82V811.16ZM304.308 808.544H304.524L304.716 808.496L305.304 808.928C304.584 809.948 303.468 811.112 302.508 811.832C302.376 811.664 302.124 811.424 301.968 811.304C302.832 810.656 303.828 809.528 304.308 808.748V808.544ZM294.516 810.404H298.464V811.244H294.516V810.404ZM296.328 807.932L297.18 808.028C296.724 810.428 295.968 813.668 295.428 815.66L294.672 815.264C295.2 813.428 295.92 810.212 296.328 807.932ZM295.116 814.88L295.62 814.256C296.964 815.012 298.548 816.164 299.268 817.052L298.728 817.784C298.008 816.884 296.46 815.66 295.116 814.88ZM298.164 810.404H298.308L298.476 810.368L299.016 810.476C298.692 815.12 297.384 817.664 295.176 818.984C295.056 818.768 294.804 818.444 294.612 818.264C296.616 817.208 297.864 814.664 298.164 810.584V810.404ZM310.536 812.816C311.592 815.66 313.92 817.496 317.496 818.144C317.292 818.336 317.04 818.708 316.92 818.96C313.272 818.192 310.968 816.224 309.756 813.056L310.536 812.816ZM314.964 812.396H315.132L315.3 812.348L315.912 812.624C314.904 816.248 312.288 818.084 309.204 818.972C309.096 818.732 308.88 818.384 308.688 818.204C311.556 817.484 314.088 815.708 314.964 812.564V812.396ZM306.828 809.924H317.196V810.8H306.828V809.924ZM310.044 812.396H315.06V813.272H309.792L310.044 812.396ZM310.044 807.92H310.968C310.884 809.3 310.68 815.588 307.2 818.576C307.02 818.348 306.708 818.12 306.42 817.952C309.876 815.204 309.984 809.012 310.044 807.92Z" fill="white"/>
</g>
</g>
<defs>
<linearGradient id="paint0_linear_884_58618" x1="195" y1="618" x2="195" y2="507.996" gradientUnits="userSpaceOnUse">
<stop/>
<stop offset="1" stop-opacity="0"/>
</linearGradient>
<clipPath id="clip0_884_58618">
<rect width="390" height="844" rx="20" fill="white"/>
</clipPath>
<clipPath id="clip1_884_58618">
<rect width="36" height="36" fill="white" transform="translate(40 638)"/>
</clipPath>
<clipPath id="clip2_884_58618">
<rect width="36" height="36" fill="white" transform="translate(84 638)"/>
</clipPath>
<clipPath id="clip3_884_58618">
<rect width="36" height="36" fill="white" transform="translate(128 638)"/>
</clipPath>
<clipPath id="clip4_884_58618">
<rect width="36" height="36" fill="white" transform="translate(40 796)"/>
</clipPath>
<clipPath id="clip5_884_58618">
<rect width="36" height="36" fill="white" transform="translate(84 796)"/>
</clipPath>
<clipPath id="clip6_884_58618">
<rect width="80" height="36" fill="white" transform="translate(270 796)"/>
</clipPath>
</defs>
</svg>
