<svg width="390" height="844" viewBox="0 0 390 844" fill="none" xmlns="http://www.w3.org/2000/svg">
<rect width="390" height="844" rx="20" fill="url(#paint0_radial_884_58671)"/>
<rect x="15" y="588" width="360" height="60" rx="20" fill="url(#paint1_radial_884_58671)"/>
<path d="M164.284 613.068L165.908 612.564C166.552 613.516 167.168 614.776 167.336 615.616L165.656 616.204C165.46 615.364 164.9 614.048 164.284 613.068ZM159.608 610.94L160.7 609.652C161.708 610.352 162.912 611.388 163.472 612.144L162.352 613.628C161.82 612.816 160.616 611.696 159.608 610.94ZM162.716 607.86L164.676 608.616C163.892 609.596 163.08 610.604 162.436 611.276L160.98 610.632C161.568 609.848 162.324 608.644 162.716 607.86ZM164.62 609.904L166.356 610.688C164.984 612.2 163.248 613.992 161.904 615.084L160.616 614.44C161.96 613.236 163.668 611.248 164.62 609.904ZM167.56 616.148H169.828V623.988H167.56V616.148ZM159.384 614.216C161.12 614.104 163.472 613.964 165.992 613.768L166.02 615.476C163.696 615.7 161.484 615.896 159.58 616.036L159.384 614.216ZM171.368 612.9L173.048 612.424C173.748 613.432 174.42 614.832 174.644 615.784L172.88 616.372C172.684 615.42 172.04 613.992 171.368 612.9ZM166.272 610.8L167.476 609.568C168.568 610.352 169.884 611.528 170.472 612.34L169.212 613.74C168.652 612.9 167.364 611.64 166.272 610.8ZM169.52 607.832L171.536 608.616C170.668 609.68 169.772 610.772 169.044 611.5L167.56 610.828C168.204 610.016 169.072 608.7 169.52 607.832ZM171.508 609.932L173.3 610.744C171.844 612.312 170.024 614.132 168.568 615.28L167.252 614.58C168.68 613.376 170.5 611.332 171.508 609.932ZM166.832 614.216C168.568 614.132 170.836 613.992 173.3 613.824L173.328 615.504C171.172 615.728 169.044 615.868 167.224 616.036L166.832 614.216ZM160.224 616.596H162.296V619.032H165.32V620.88H160.224V616.596ZM171.592 616.596H173.664V620.88H169.352V619.032H171.592V616.596ZM163.976 616.148H166.216V618.864C166.216 621.048 165.684 623.148 162.128 624.38C161.848 623.848 161.148 622.98 160.672 622.56C163.584 621.692 163.976 620.264 163.976 618.78V616.148ZM156.864 602.876H163.892V604.892H156.864V602.876ZM169.744 602.876H176.856V604.892H169.744V602.876ZM175.708 599.292H178.956V620.684C178.956 622.28 178.704 623.204 177.752 623.764C176.8 624.324 175.512 624.38 173.664 624.38C173.552 623.484 173.132 621.972 172.712 621.104C173.748 621.16 174.868 621.16 175.232 621.16C175.596 621.16 175.708 621.02 175.708 620.656V599.292ZM157.172 599.292H166.048V608.448H157.172V606.18H162.884V601.56H157.172V599.292ZM177.388 599.292V601.56H171.06V606.18H177.388V608.448H167.868V599.292H177.388ZM155.184 599.292H158.376V624.52H155.184V599.292ZM182.064 602.512H194.272V605.62H182.064V602.512ZM186.6 608.616H191.192V611.668H186.6V608.616ZM186.46 598.256H189.792V603.52H186.46V598.256ZM200.572 602.008C199.508 605.088 197.268 609.008 194.468 611.08C194.16 610.1 193.46 608.7 192.928 607.888C195.644 605.928 197.856 601.56 198.808 598.116H202.112C203.456 602.036 205.752 606.04 208.412 607.636C207.796 608.56 207.18 609.932 206.732 611.052C203.904 608.98 201.664 605.172 200.572 602.008ZM184.78 604.472H188.056C187.944 612.9 187.636 620.208 183.884 624.716C183.38 623.904 182.316 622.784 181.476 622.196C184.668 618.332 184.724 611.976 184.78 604.472ZM190.128 608.616H193.292C193.292 608.616 193.292 609.568 193.264 609.96C193.124 618.864 192.984 622.168 192.256 623.176C191.724 623.988 191.164 624.24 190.352 624.408C189.652 624.52 188.532 624.548 187.356 624.492C187.3 623.596 186.964 622.308 186.488 621.468C187.412 621.552 188.168 621.552 188.616 621.552C188.98 621.552 189.204 621.468 189.428 621.132C189.848 620.488 190.016 617.632 190.128 609.232V608.616ZM197.324 610.968L199.536 608.868C201.3 610.016 203.484 611.696 204.492 612.984L202.112 615.364C201.188 614.048 199.088 612.2 197.324 610.968ZM194.916 618.64L196.96 616.036C200.18 617.408 204.436 619.732 206.452 621.58L204.24 624.548C202.336 622.672 198.22 620.152 194.916 618.64ZM228.712 600.72L231.232 598.984C232.772 600.3 234.592 602.176 235.432 603.492L232.716 605.396C231.988 604.052 230.224 602.092 228.712 600.72ZM210.372 606.18H235.656V609.372H210.372V606.18ZM209.84 614.104C213.228 613.6 218.548 612.676 223.448 611.78L223.7 614.832C219.164 615.784 214.292 616.764 210.68 617.492L209.84 614.104ZM215.692 601.672H219.08V620.6C219.08 622.42 218.716 623.344 217.568 623.876C216.448 624.408 214.796 624.52 212.5 624.52C212.36 623.568 211.8 622.056 211.296 621.104C212.892 621.188 214.516 621.188 215.02 621.16C215.524 621.16 215.692 621.02 215.692 620.544V601.672ZM221.432 598.396L223.7 601.252C220.06 602.372 215.272 603.128 211.212 603.576C211.044 602.792 210.624 601.532 210.232 600.776C214.18 600.244 218.548 599.376 221.432 598.396ZM224.176 598.452H227.704C227.508 609.736 230.028 621.216 232.576 621.216C233.164 621.216 233.472 619.844 233.64 616.512C234.34 617.296 235.488 618.08 236.384 618.444C235.852 623.4 234.788 624.632 232.24 624.632C226.444 624.632 224.26 611.024 224.176 598.452ZM231.792 610.296L234.76 611.556C231.848 616.764 227.284 620.936 222.216 623.624C221.712 622.784 220.788 621.664 219.948 620.908C224.736 618.724 229.3 614.916 231.792 610.296Z" fill="white"/>
<path d="M173.238 629.225L170.414 637H169.26L172.512 628.469H173.256L173.238 629.225ZM175.605 637L172.775 629.225L172.758 628.469H173.502L176.766 637H175.605ZM175.459 633.842V634.768H170.666V633.842H175.459ZM177.738 628H178.828V635.77L178.734 637H177.738V628ZM183.111 633.777V633.9C183.111 634.361 183.057 634.789 182.947 635.184C182.838 635.574 182.678 635.914 182.467 636.203C182.256 636.492 181.998 636.717 181.693 636.877C181.389 637.037 181.039 637.117 180.645 637.117C180.242 637.117 179.889 637.049 179.584 636.912C179.283 636.771 179.029 636.57 178.822 636.309C178.615 636.047 178.449 635.73 178.324 635.359C178.203 634.988 178.119 634.57 178.072 634.105V633.566C178.119 633.098 178.203 632.678 178.324 632.307C178.449 631.936 178.615 631.619 178.822 631.357C179.029 631.092 179.283 630.891 179.584 630.754C179.885 630.613 180.234 630.543 180.633 630.543C181.031 630.543 181.385 630.621 181.693 630.777C182.002 630.93 182.26 631.148 182.467 631.434C182.678 631.719 182.838 632.061 182.947 632.459C183.057 632.854 183.111 633.293 183.111 633.777ZM182.021 633.9V633.777C182.021 633.461 181.992 633.164 181.934 632.887C181.875 632.605 181.781 632.359 181.652 632.148C181.523 631.934 181.354 631.766 181.143 631.645C180.932 631.52 180.672 631.457 180.363 631.457C180.09 631.457 179.852 631.504 179.648 631.598C179.449 631.691 179.279 631.818 179.139 631.979C178.998 632.135 178.883 632.314 178.793 632.518C178.707 632.717 178.643 632.924 178.6 633.139V634.551C178.662 634.824 178.764 635.088 178.904 635.342C179.049 635.592 179.24 635.797 179.479 635.957C179.721 636.117 180.02 636.197 180.375 636.197C180.668 636.197 180.918 636.139 181.125 636.021C181.336 635.9 181.506 635.734 181.635 635.523C181.768 635.312 181.865 635.068 181.928 634.791C181.99 634.514 182.021 634.217 182.021 633.9ZM184.195 633.9V633.766C184.195 633.309 184.262 632.885 184.395 632.494C184.527 632.1 184.719 631.758 184.969 631.469C185.219 631.176 185.521 630.949 185.877 630.789C186.232 630.625 186.631 630.543 187.072 630.543C187.518 630.543 187.918 630.625 188.273 630.789C188.633 630.949 188.938 631.176 189.188 631.469C189.441 631.758 189.635 632.1 189.768 632.494C189.9 632.885 189.967 633.309 189.967 633.766V633.9C189.967 634.357 189.9 634.781 189.768 635.172C189.635 635.562 189.441 635.904 189.188 636.197C188.938 636.486 188.635 636.713 188.279 636.877C187.928 637.037 187.529 637.117 187.084 637.117C186.639 637.117 186.238 637.037 185.883 636.877C185.527 636.713 185.223 636.486 184.969 636.197C184.719 635.904 184.527 635.562 184.395 635.172C184.262 634.781 184.195 634.357 184.195 633.9ZM185.279 633.766V633.9C185.279 634.217 185.316 634.516 185.391 634.797C185.465 635.074 185.576 635.32 185.725 635.535C185.877 635.75 186.066 635.92 186.293 636.045C186.52 636.166 186.783 636.227 187.084 636.227C187.381 636.227 187.641 636.166 187.863 636.045C188.09 635.92 188.277 635.75 188.426 635.535C188.574 635.32 188.686 635.074 188.76 634.797C188.838 634.516 188.877 634.217 188.877 633.9V633.766C188.877 633.453 188.838 633.158 188.76 632.881C188.686 632.6 188.572 632.352 188.42 632.137C188.271 631.918 188.084 631.746 187.857 631.621C187.635 631.496 187.373 631.434 187.072 631.434C186.775 631.434 186.514 631.496 186.287 631.621C186.064 631.746 185.877 631.918 185.725 632.137C185.576 632.352 185.465 632.6 185.391 632.881C185.316 633.158 185.279 633.453 185.279 633.766ZM195.205 635.535V630.66H196.295V637H195.258L195.205 635.535ZM195.41 634.199L195.861 634.188C195.861 634.609 195.816 635 195.727 635.359C195.641 635.715 195.5 636.023 195.305 636.285C195.109 636.547 194.854 636.752 194.537 636.9C194.221 637.045 193.836 637.117 193.383 637.117C193.074 637.117 192.791 637.072 192.533 636.982C192.279 636.893 192.061 636.754 191.877 636.566C191.693 636.379 191.551 636.135 191.449 635.834C191.352 635.533 191.303 635.172 191.303 634.75V630.66H192.387V634.762C192.387 635.047 192.418 635.283 192.48 635.471C192.547 635.654 192.635 635.801 192.744 635.91C192.857 636.016 192.982 636.09 193.119 636.133C193.26 636.176 193.404 636.197 193.553 636.197C194.014 636.197 194.379 636.109 194.648 635.934C194.918 635.754 195.111 635.514 195.229 635.213C195.35 634.908 195.41 634.57 195.41 634.199ZM200.602 630.66V631.492H197.174V630.66H200.602ZM198.334 629.119H199.418V635.43C199.418 635.645 199.451 635.807 199.518 635.916C199.584 636.025 199.67 636.098 199.775 636.133C199.881 636.168 199.994 636.186 200.115 636.186C200.205 636.186 200.299 636.178 200.396 636.162C200.498 636.143 200.574 636.127 200.625 636.115L200.631 637C200.545 637.027 200.432 637.053 200.291 637.076C200.154 637.104 199.988 637.117 199.793 637.117C199.527 637.117 199.283 637.064 199.061 636.959C198.838 636.854 198.66 636.678 198.527 636.432C198.398 636.182 198.334 635.846 198.334 635.424V629.119ZM205.928 631.92V637H204.838V630.66H205.869L205.928 631.92ZM205.705 633.59L205.201 633.572C205.205 633.139 205.262 632.738 205.371 632.371C205.48 632 205.643 631.678 205.857 631.404C206.072 631.131 206.34 630.92 206.66 630.771C206.98 630.619 207.352 630.543 207.773 630.543C208.07 630.543 208.344 630.586 208.594 630.672C208.844 630.754 209.061 630.885 209.244 631.064C209.428 631.244 209.57 631.475 209.672 631.756C209.773 632.037 209.824 632.377 209.824 632.775V637H208.74V632.828C208.74 632.496 208.684 632.23 208.57 632.031C208.461 631.832 208.305 631.688 208.102 631.598C207.898 631.504 207.66 631.457 207.387 631.457C207.066 631.457 206.799 631.514 206.584 631.627C206.369 631.74 206.197 631.896 206.068 632.096C205.939 632.295 205.846 632.523 205.787 632.781C205.732 633.035 205.705 633.305 205.705 633.59ZM209.812 632.992L209.086 633.215C209.09 632.867 209.146 632.533 209.256 632.213C209.369 631.893 209.531 631.607 209.742 631.357C209.957 631.107 210.221 630.91 210.533 630.766C210.846 630.617 211.203 630.543 211.605 630.543C211.945 630.543 212.246 630.588 212.508 630.678C212.773 630.768 212.996 630.906 213.176 631.094C213.359 631.277 213.498 631.514 213.592 631.803C213.686 632.092 213.732 632.436 213.732 632.834V637H212.643V632.822C212.643 632.467 212.586 632.191 212.473 631.996C212.363 631.797 212.207 631.658 212.004 631.58C211.805 631.498 211.566 631.457 211.289 631.457C211.051 631.457 210.84 631.498 210.656 631.58C210.473 631.662 210.318 631.775 210.193 631.92C210.068 632.061 209.973 632.223 209.906 632.406C209.844 632.59 209.812 632.785 209.812 632.992ZM218.004 637.117C217.562 637.117 217.162 637.043 216.803 636.895C216.447 636.742 216.141 636.529 215.883 636.256C215.629 635.982 215.434 635.658 215.297 635.283C215.16 634.908 215.092 634.498 215.092 634.053V633.807C215.092 633.291 215.168 632.832 215.32 632.43C215.473 632.023 215.68 631.68 215.941 631.398C216.203 631.117 216.5 630.904 216.832 630.76C217.164 630.615 217.508 630.543 217.863 630.543C218.316 630.543 218.707 630.621 219.035 630.777C219.367 630.934 219.639 631.152 219.85 631.434C220.061 631.711 220.217 632.039 220.318 632.418C220.42 632.793 220.471 633.203 220.471 633.648V634.135H215.736V633.25H219.387V633.168C219.371 632.887 219.312 632.613 219.211 632.348C219.113 632.082 218.957 631.863 218.742 631.691C218.527 631.52 218.234 631.434 217.863 631.434C217.617 631.434 217.391 631.486 217.184 631.592C216.977 631.693 216.799 631.846 216.65 632.049C216.502 632.252 216.387 632.5 216.305 632.793C216.223 633.086 216.182 633.424 216.182 633.807V634.053C216.182 634.354 216.223 634.637 216.305 634.902C216.391 635.164 216.514 635.395 216.674 635.594C216.838 635.793 217.035 635.949 217.266 636.062C217.5 636.176 217.766 636.232 218.062 636.232C218.445 636.232 218.77 636.154 219.035 635.998C219.301 635.842 219.533 635.633 219.732 635.371L220.389 635.893C220.252 636.1 220.078 636.297 219.867 636.484C219.656 636.672 219.396 636.824 219.088 636.941C218.783 637.059 218.422 637.117 218.004 637.117Z" fill="white"/>
<rect x="15" y="656" width="360" height="171" rx="20" fill="url(#paint2_radial_884_58671)"/>
<path d="M41.008 689.536H49.864V692.104H41.008V689.536ZM43.6 694.648H47.824V696.976H43.6V694.648ZM50.56 704.776H54.16V706.696H50.56V704.776ZM58.072 704.776H61.72V706.696H58.072V704.776ZM43.6 699.52H47.824V701.872H43.6V699.52ZM42.088 690.904H44.464V705.952H42.088V690.904ZM46.312 690.88H48.712V711.16H46.312V690.88ZM56.656 700.48H58.984V711.16H56.656V700.48ZM49.792 701.224H51.88V707.584H49.792V701.224ZM60.352 701.224H62.512V707.536H60.352V701.224ZM40.576 705.352C42.376 705.112 44.944 704.68 47.464 704.248L47.68 706.72C45.4 707.176 43.024 707.656 41.056 708.016L40.576 705.352ZM53.2 700.504H55.504V704.776C55.504 707.464 55 709.84 51.616 711.28C51.352 710.728 50.68 709.792 50.2 709.408C52.84 708.28 53.2 706.6 53.2 704.728V700.504ZM49.168 698.224C50.752 698.128 52.936 697.96 55.216 697.792L55.24 699.64C53.176 699.832 51.136 700.048 49.432 700.192L49.168 698.224ZM49.456 693.352L50.656 691.672C51.736 692.56 53.032 693.784 53.56 694.696L52.336 696.544C51.808 695.608 50.56 694.264 49.456 693.352ZM53.752 696.664L55.432 696.184C56.008 697.288 56.488 698.752 56.56 699.712L54.784 700.288C54.736 699.328 54.304 697.816 53.752 696.664ZM52.336 688.624L54.664 689.32C53.8 690.832 52.84 692.608 52.096 693.688L50.584 693.088C51.208 691.864 51.952 689.944 52.336 688.624ZM54.112 691.72L56.2 692.464C54.856 694.744 53.104 697.528 51.712 699.208L50.248 698.584C51.616 696.76 53.2 693.832 54.112 691.72ZM56.128 698.152C57.736 698.056 59.92 697.888 62.176 697.72L62.224 699.52C60.184 699.76 58.168 699.976 56.488 700.144L56.128 698.152ZM55.912 693.304L57.04 691.552C58.216 692.416 59.536 693.64 60.088 694.576L58.864 696.496C58.336 695.536 57.064 694.192 55.912 693.304ZM60.424 696.688L62.128 696.136C62.8 697.384 63.376 699.016 63.472 700.072L61.648 700.696C61.552 699.64 61.048 697.984 60.424 696.688ZM58.864 688.624L61.24 689.344C60.376 690.88 59.416 692.632 58.648 693.736L57.016 693.088C57.688 691.864 58.456 689.968 58.864 688.624ZM60.688 691.648L62.92 692.44C61.552 694.696 59.824 697.48 58.408 699.184L56.896 698.488C58.24 696.688 59.8 693.736 60.688 691.648ZM75.088 701.92H85.816V711.088H83.008V704.392H77.776V711.16H75.088V701.92ZM76.648 707.704H83.896V710.176H76.648V707.704ZM77.872 688.624L80.656 689.104C79.384 692.032 77.488 694.936 74.536 697.288C74.128 696.712 73.216 695.776 72.616 695.416C75.28 693.472 76.984 690.88 77.872 688.624ZM78.208 690.76H84.184V693.208H76.984L78.208 690.76ZM83.44 690.76H83.992L84.448 690.64L86.2 691.624C84.064 697.192 79.552 700.984 74.68 702.856C74.368 702.184 73.504 701.056 72.952 700.576C77.656 698.992 81.832 695.728 83.44 691.24V690.76ZM77.872 692.992C79.792 696.04 83.68 698.824 87.688 700.144C87.064 700.672 86.272 701.752 85.84 702.448C81.688 700.816 77.872 697.648 75.496 693.952L77.872 692.992ZM68.32 688.648L70.816 689.584C69.832 691.408 68.728 693.544 67.792 694.888L65.872 694.048C66.736 692.632 67.768 690.328 68.32 688.648ZM71.08 691.48L73.408 692.536C71.68 695.296 69.328 698.632 67.504 700.72L65.848 699.784C67.624 697.6 69.832 694.072 71.08 691.48ZM64.624 694.336L65.992 692.368C67.264 693.472 68.752 694.984 69.376 696.088L67.888 698.32C67.312 697.168 65.848 695.488 64.624 694.336ZM70.36 697.216L72.256 696.424C73.192 698.032 74.104 700.144 74.368 701.512L72.328 702.424C72.088 701.032 71.248 698.872 70.36 697.216ZM64.6 699.208C66.808 699.136 70.048 699.016 73.216 698.872L73.192 701.152C70.24 701.368 67.168 701.56 64.84 701.728L64.6 699.208ZM70.888 703.192L72.904 702.544C73.504 703.912 74.128 705.712 74.392 706.912L72.28 707.656C72.04 706.456 71.416 704.608 70.888 703.192ZM65.632 702.736L68.008 703.144C67.768 705.448 67.24 707.848 66.544 709.384C66.04 709.072 64.96 708.568 64.36 708.328C65.056 706.912 65.44 704.776 65.632 702.736ZM68.32 700.48H70.84V711.184H68.32V700.48ZM89.896 690.928L91.144 688.984C92.752 689.368 95.032 690.136 96.232 690.712L94.936 692.896C93.832 692.296 91.552 691.432 89.896 690.928ZM88.84 695.008C90.616 694.672 93.208 694.048 95.752 693.472L96.016 695.728C93.928 696.352 91.72 697 89.92 697.504L88.84 695.008ZM99.472 690.232H108.688V692.248H97.864L99.472 690.232ZM108.016 690.232H108.424L108.856 690.136L110.752 690.616C110.128 691.936 109.264 693.376 108.472 694.264L106.24 693.592C106.888 692.824 107.608 691.576 108.016 690.544V690.232ZM101.92 691.072H104.512C104.032 694.504 102.688 696.568 97.312 697.648C97.072 697.072 96.472 696.112 95.992 695.608C100.624 694.888 101.56 693.496 101.92 691.072ZM104.344 691.696C104.752 693.472 105.808 695.032 111.256 695.656C110.728 696.232 110.104 697.312 109.84 698.032C103.84 697.072 102.664 694.456 102.04 691.912L104.344 691.696ZM99.4 688.624L101.92 689.032C100.984 690.952 99.808 692.704 97.984 694.192C97.48 693.688 96.496 693.088 95.824 692.824C97.576 691.624 98.752 690.016 99.4 688.624ZM94.888 701.68V702.712H105.328V701.68H94.888ZM94.888 704.344V705.4H105.328V704.344H94.888ZM94.888 699.04V700.048H105.328V699.04H94.888ZM92.104 697.312H108.232V707.104H92.104V697.312ZM101.344 708.352L103.744 706.984C106.264 707.896 109.24 709.096 110.944 709.936L107.584 711.232C106.24 710.416 103.768 709.264 101.344 708.352ZM96.016 706.912L98.656 708.088C96.688 709.36 93.568 710.56 91.12 711.256C90.616 710.68 89.632 709.624 88.984 709.144C91.528 708.664 94.384 707.824 96.016 706.912ZM122.08 689.56H131.392V692.296H122.08V689.56ZM121.816 697.624H129.424V700.312H121.816V697.624ZM124.432 691.384H127.168V697.456C127.168 702.016 126.736 707.296 122.752 711.184C122.296 710.56 121.312 709.576 120.64 709.144C124.072 705.76 124.432 701.272 124.432 697.432V691.384ZM129.904 689.56H132.856C132.616 697.744 132.712 707.68 133.864 708.016C134.008 708.064 134.176 706.384 134.224 704.728C134.68 705.472 135.4 706.624 135.808 707.056C135.424 710.824 134.152 711.64 132.616 710.968C129.736 709.888 129.928 699.76 129.904 689.56ZM113.848 695.992H121.096V698.152H113.848V695.992ZM113.92 689.368H121.024V691.552H113.92V689.368ZM113.848 699.256H121.096V701.44H113.848V699.256ZM112.696 692.608H121.888V694.888H112.696V692.608ZM115.096 702.592H121.12V709.888H115.096V707.608H118.672V704.872H115.096V702.592ZM113.8 702.592H116.224V710.848H113.8V702.592Z" fill="white"/>
<path d="M40.504 732.268H44.932V733.552H40.504V732.268ZM41.8 734.824H43.912V735.988H41.8V734.824ZM45.28 739.888H47.08V740.848H45.28V739.888ZM49.036 739.888H50.86V740.848H49.036V739.888ZM41.8 737.26H43.912V738.436H41.8V737.26ZM41.044 732.952H42.232V740.476H41.044V732.952ZM43.156 732.94H44.356V743.08H43.156V732.94ZM48.328 737.74H49.492V743.08H48.328V737.74ZM44.896 738.112H45.94V741.292H44.896V738.112ZM50.176 738.112H51.256V741.268H50.176V738.112ZM40.288 740.176C41.188 740.056 42.472 739.84 43.732 739.624L43.84 740.86C42.7 741.088 41.512 741.328 40.528 741.508L40.288 740.176ZM46.6 737.752H47.752V739.888C47.752 741.232 47.5 742.42 45.808 743.14C45.676 742.864 45.34 742.396 45.1 742.204C46.42 741.64 46.6 740.8 46.6 739.864V737.752ZM44.584 736.612C45.376 736.564 46.468 736.48 47.608 736.396L47.62 737.32C46.588 737.416 45.568 737.524 44.716 737.596L44.584 736.612ZM44.728 734.176L45.328 733.336C45.868 733.78 46.516 734.392 46.78 734.848L46.168 735.772C45.904 735.304 45.28 734.632 44.728 734.176ZM46.876 735.832L47.716 735.592C48.004 736.144 48.244 736.876 48.28 737.356L47.392 737.644C47.368 737.164 47.152 736.408 46.876 735.832ZM46.168 731.812L47.332 732.16C46.9 732.916 46.42 733.804 46.048 734.344L45.292 734.044C45.604 733.432 45.976 732.472 46.168 731.812ZM47.056 733.36L48.1 733.732C47.428 734.872 46.552 736.264 45.856 737.104L45.124 736.792C45.808 735.88 46.6 734.416 47.056 733.36ZM48.064 736.576C48.868 736.528 49.96 736.444 51.088 736.36L51.112 737.26C50.092 737.38 49.084 737.488 48.244 737.572L48.064 736.576ZM47.956 734.152L48.52 733.276C49.108 733.708 49.768 734.32 50.044 734.788L49.432 735.748C49.168 735.268 48.532 734.596 47.956 734.152ZM50.212 735.844L51.064 735.568C51.4 736.192 51.688 737.008 51.736 737.536L50.824 737.848C50.776 737.32 50.524 736.492 50.212 735.844ZM49.432 731.812L50.62 732.172C50.188 732.94 49.708 733.816 49.324 734.368L48.508 734.044C48.844 733.432 49.228 732.484 49.432 731.812ZM50.344 733.324L51.46 733.72C50.776 734.848 49.912 736.24 49.204 737.092L48.448 736.744C49.12 735.844 49.9 734.368 50.344 733.324ZM57.544 738.46H62.908V743.044H61.504V739.696H58.888V743.08H57.544V738.46ZM58.324 741.352H61.948V742.588H58.324V741.352ZM58.936 731.812L60.328 732.052C59.692 733.516 58.744 734.968 57.268 736.144C57.064 735.856 56.608 735.388 56.308 735.208C57.64 734.236 58.492 732.94 58.936 731.812ZM59.104 732.88H62.092V734.104H58.492L59.104 732.88ZM61.72 732.88H61.996L62.224 732.82L63.1 733.312C62.032 736.096 59.776 737.992 57.34 738.928C57.184 738.592 56.752 738.028 56.476 737.788C58.828 736.996 60.916 735.364 61.72 733.12V732.88ZM58.936 733.996C59.896 735.52 61.84 736.912 63.844 737.572C63.532 737.836 63.136 738.376 62.92 738.724C60.844 737.908 58.936 736.324 57.748 734.476L58.936 733.996ZM54.16 731.824L55.408 732.292C54.916 733.204 54.364 734.272 53.896 734.944L52.936 734.524C53.368 733.816 53.884 732.664 54.16 731.824ZM55.54 733.24L56.704 733.768C55.84 735.148 54.664 736.816 53.752 737.86L52.924 737.392C53.812 736.3 54.916 734.536 55.54 733.24ZM52.312 734.668L52.996 733.684C53.632 734.236 54.376 734.992 54.688 735.544L53.944 736.66C53.656 736.084 52.924 735.244 52.312 734.668ZM55.18 736.108L56.128 735.712C56.596 736.516 57.052 737.572 57.184 738.256L56.164 738.712C56.044 738.016 55.624 736.936 55.18 736.108ZM52.3 737.104C53.404 737.068 55.024 737.008 56.608 736.936L56.596 738.076C55.12 738.184 53.584 738.28 52.42 738.364L52.3 737.104ZM55.444 739.096L56.452 738.772C56.752 739.456 57.064 740.356 57.196 740.956L56.14 741.328C56.02 740.728 55.708 739.804 55.444 739.096ZM52.816 738.868L54.004 739.072C53.884 740.224 53.62 741.424 53.272 742.192C53.02 742.036 52.48 741.784 52.18 741.664C52.528 740.956 52.72 739.888 52.816 738.868ZM54.16 737.74H55.42V743.092H54.16V737.74ZM66.52 739.048H73.336V739.9H66.52V739.048ZM66.532 737.548H74.164V741.4H66.532V740.428H72.736V738.508H66.532V737.548ZM69.184 738.076H70.564V741.436C70.564 741.88 70.696 741.952 71.428 741.952C71.764 741.952 73.276 741.952 73.708 741.952C74.308 741.952 74.428 741.76 74.5 740.74C74.8 740.944 75.34 741.124 75.712 741.196C75.544 742.66 75.136 743.044 73.828 743.044C73.444 743.044 71.656 743.044 71.296 743.044C69.64 743.044 69.184 742.696 69.184 741.436V738.076ZM65.812 737.548H67.192V741.928H65.812V737.548ZM65.524 732.244H74.428V733.3H65.524V732.244ZM66.448 735.112H68.824V735.892H66.448V735.112ZM66.22 736.312H68.824V737.092H66.22V736.312ZM71.116 736.312H73.744V737.092H71.116V736.312ZM71.116 735.112H73.468V735.892H71.116V735.112ZM69.256 732.664H70.66V737.224H69.256V732.664ZM64.708 733.744H75.304V736.204H73.972V734.704H65.98V736.204H64.708V733.744ZM81.664 738.232H87.196V743.032H85.756V739.528H83.02V743.092H81.664V738.232ZM86.356 731.932L87.364 733.132C85.732 733.612 83.524 733.888 81.628 734.02C81.58 733.672 81.388 733.132 81.22 732.808C83.044 732.652 85.084 732.34 86.356 731.932ZM83.62 733.06H85.096V738.88H83.62V733.06ZM81.028 735.292H87.688V736.648H81.028V735.292ZM82.576 741.208H86.44V742.504H82.576V741.208ZM76.936 735.58H80.56V736.66H76.936V735.58ZM77.008 732.184H80.56V733.276H77.008V732.184ZM76.936 737.26H80.56V738.34H76.936V737.26ZM76.348 733.852H80.944V734.98H76.348V733.852ZM77.644 738.952H80.62V742.6H77.644V741.472H79.384V740.092H77.644V738.952ZM76.9 738.952H78.112V743.08H76.9V738.952Z" fill="white"/>
<path d="M118.064 737.055V738.355C118.064 739.055 118.002 739.645 117.877 740.125C117.752 740.605 117.572 740.992 117.338 741.285C117.104 741.578 116.82 741.791 116.488 741.924C116.16 742.053 115.789 742.117 115.375 742.117C115.047 742.117 114.744 742.076 114.467 741.994C114.189 741.912 113.939 741.781 113.717 741.602C113.498 741.418 113.311 741.18 113.154 740.887C112.998 740.594 112.879 740.238 112.797 739.82C112.715 739.402 112.674 738.914 112.674 738.355V737.055C112.674 736.355 112.736 735.77 112.861 735.297C112.99 734.824 113.172 734.445 113.406 734.16C113.641 733.871 113.922 733.664 114.25 733.539C114.582 733.414 114.953 733.352 115.363 733.352C115.695 733.352 116 733.393 116.277 733.475C116.559 733.553 116.809 733.68 117.027 733.855C117.246 734.027 117.432 734.258 117.584 734.547C117.74 734.832 117.859 735.182 117.941 735.596C118.023 736.01 118.064 736.496 118.064 737.055ZM116.975 738.531V736.873C116.975 736.49 116.951 736.154 116.904 735.865C116.861 735.572 116.797 735.322 116.711 735.115C116.625 734.908 116.516 734.74 116.383 734.611C116.254 734.482 116.104 734.389 115.932 734.33C115.764 734.268 115.574 734.236 115.363 734.236C115.105 734.236 114.877 734.285 114.678 734.383C114.479 734.477 114.311 734.627 114.174 734.834C114.041 735.041 113.939 735.312 113.869 735.648C113.799 735.984 113.764 736.393 113.764 736.873V738.531C113.764 738.914 113.785 739.252 113.828 739.545C113.875 739.838 113.943 740.092 114.033 740.307C114.123 740.518 114.232 740.691 114.361 740.828C114.49 740.965 114.639 741.066 114.807 741.133C114.979 741.195 115.168 741.227 115.375 741.227C115.641 741.227 115.873 741.176 116.072 741.074C116.271 740.973 116.438 740.814 116.57 740.6C116.707 740.381 116.809 740.102 116.875 739.762C116.941 739.418 116.975 739.008 116.975 738.531ZM120.537 741.092H120.648C121.273 741.092 121.781 741.004 122.172 740.828C122.562 740.652 122.863 740.416 123.074 740.119C123.285 739.822 123.43 739.488 123.508 739.117C123.586 738.742 123.625 738.357 123.625 737.963V736.656C123.625 736.27 123.58 735.926 123.49 735.625C123.404 735.324 123.283 735.072 123.127 734.869C122.975 734.666 122.801 734.512 122.605 734.406C122.41 734.301 122.203 734.248 121.984 734.248C121.734 734.248 121.51 734.299 121.311 734.4C121.115 734.498 120.949 734.637 120.812 734.816C120.68 734.996 120.578 735.207 120.508 735.449C120.438 735.691 120.402 735.955 120.402 736.24C120.402 736.494 120.434 736.74 120.496 736.979C120.559 737.217 120.654 737.432 120.783 737.623C120.912 737.814 121.072 737.967 121.264 738.08C121.459 738.189 121.688 738.244 121.949 738.244C122.191 738.244 122.418 738.197 122.629 738.104C122.844 738.006 123.033 737.875 123.197 737.711C123.365 737.543 123.498 737.354 123.596 737.143C123.697 736.932 123.756 736.711 123.771 736.48H124.287C124.287 736.805 124.223 737.125 124.094 737.441C123.969 737.754 123.793 738.039 123.566 738.297C123.34 738.555 123.074 738.762 122.77 738.918C122.465 739.07 122.133 739.146 121.773 739.146C121.352 739.146 120.986 739.064 120.678 738.9C120.369 738.736 120.115 738.518 119.916 738.244C119.721 737.971 119.574 737.666 119.477 737.33C119.383 736.99 119.336 736.646 119.336 736.299C119.336 735.893 119.393 735.512 119.506 735.156C119.619 734.801 119.787 734.488 120.01 734.219C120.232 733.945 120.508 733.732 120.836 733.58C121.168 733.428 121.551 733.352 121.984 733.352C122.473 733.352 122.889 733.449 123.232 733.645C123.576 733.84 123.855 734.102 124.07 734.43C124.289 734.758 124.449 735.127 124.551 735.537C124.652 735.947 124.703 736.369 124.703 736.803V737.195C124.703 737.637 124.674 738.086 124.615 738.543C124.561 738.996 124.453 739.43 124.293 739.844C124.137 740.258 123.908 740.629 123.607 740.957C123.307 741.281 122.914 741.539 122.43 741.73C121.949 741.918 121.355 742.012 120.648 742.012H120.537V741.092ZM131.5 742.144C128.992 742.144 127.228 740.392 127.228 737.56C127.228 734.752 128.98 733.048 131.5 733.048C134.008 733.048 135.748 734.752 135.748 737.56C135.748 740.392 134.044 742.144 131.5 742.144ZM131.5 741.184C133.36 741.184 134.608 739.768 134.608 737.56C134.608 735.364 133.372 734.008 131.5 734.008C129.616 734.008 128.38 735.364 128.38 737.56C128.38 739.768 129.628 741.184 131.5 741.184ZM139.852 742L142.828 737.476L140.044 733.192H141.28L142.708 735.46C142.96 735.856 143.2 736.216 143.524 736.732H143.572C143.872 736.216 144.088 735.856 144.34 735.46L145.744 733.192H146.92L144.148 737.5L147.136 742H145.864L144.352 739.624C144.088 739.192 143.8 738.748 143.452 738.22H143.404C143.08 738.748 142.804 739.192 142.54 739.624L141.052 742H139.852ZM152.582 737.928V738.818H149.723V737.928H152.582ZM158.816 742.144C156.308 742.144 154.544 740.392 154.544 737.56C154.544 734.752 156.296 733.048 158.816 733.048C161.324 733.048 163.064 734.752 163.064 737.56C163.064 740.392 161.36 742.144 158.816 742.144ZM158.816 741.184C160.676 741.184 161.924 739.768 161.924 737.56C161.924 735.364 160.688 734.008 158.816 734.008C156.932 734.008 155.696 735.364 155.696 737.56C155.696 739.768 156.944 741.184 158.816 741.184ZM170.816 742.144C168.308 742.144 166.544 740.392 166.544 737.56C166.544 734.752 168.296 733.048 170.816 733.048C173.324 733.048 175.064 734.752 175.064 737.56C175.064 740.392 173.36 742.144 170.816 742.144ZM170.816 741.184C172.676 741.184 173.924 739.768 173.924 737.56C173.924 735.364 172.688 734.008 170.816 734.008C168.932 734.008 167.696 735.364 167.696 737.56C167.696 739.768 168.944 741.184 170.816 741.184ZM182.816 742.144C180.308 742.144 178.544 740.392 178.544 737.56C178.544 734.752 180.296 733.048 182.816 733.048C185.324 733.048 187.064 734.752 187.064 737.56C187.064 740.392 185.36 742.144 182.816 742.144ZM182.816 741.184C184.676 741.184 185.924 739.768 185.924 737.56C185.924 735.364 184.688 734.008 182.816 734.008C180.932 734.008 179.696 735.364 179.696 737.56C179.696 739.768 180.944 741.184 182.816 741.184ZM191.898 737.928V738.818H189.039V737.928H191.898ZM194.485 742L197.461 737.476L194.677 733.192H195.913L197.341 735.46C197.593 735.856 197.833 736.216 198.157 736.732H198.205C198.505 736.216 198.721 735.856 198.973 735.46L200.377 733.192H201.553L198.781 737.5L201.769 742H200.497L198.985 739.624C198.721 739.192 198.433 738.748 198.085 738.22H198.037C197.713 738.748 197.437 739.192 197.173 739.624L195.685 742H194.485ZM206.485 742L209.461 737.476L206.677 733.192H207.913L209.341 735.46C209.593 735.856 209.833 736.216 210.157 736.732H210.205C210.505 736.216 210.721 735.856 210.973 735.46L212.377 733.192H213.553L210.781 737.5L213.769 742H212.497L210.985 739.624C210.721 739.192 210.433 738.748 210.085 738.22H210.037C209.713 738.748 209.437 739.192 209.173 739.624L207.685 742H206.485ZM218.485 742L221.461 737.476L218.677 733.192H219.913L221.341 735.46C221.593 735.856 221.833 736.216 222.157 736.732H222.205C222.505 736.216 222.721 735.856 222.973 735.46L224.377 733.192H225.553L222.781 737.5L225.769 742H224.497L222.985 739.624C222.721 739.192 222.433 738.748 222.085 738.22H222.037C221.713 738.748 221.437 739.192 221.173 739.624L219.685 742H218.485Z" fill="white"/>
<path d="M42.52 765.048H49.336V765.9H42.52V765.048ZM42.532 763.548H50.164V767.4H42.532V766.428H48.736V764.508H42.532V763.548ZM45.184 764.076H46.564V767.436C46.564 767.88 46.696 767.952 47.428 767.952C47.764 767.952 49.276 767.952 49.708 767.952C50.308 767.952 50.428 767.76 50.5 766.74C50.8 766.944 51.34 767.124 51.712 767.196C51.544 768.66 51.136 769.044 49.828 769.044C49.444 769.044 47.656 769.044 47.296 769.044C45.64 769.044 45.184 768.696 45.184 767.436V764.076ZM41.812 763.548H43.192V767.928H41.812V763.548ZM41.524 758.244H50.428V759.3H41.524V758.244ZM42.448 761.112H44.824V761.892H42.448V761.112ZM42.22 762.312H44.824V763.092H42.22V762.312ZM47.116 762.312H49.744V763.092H47.116V762.312ZM47.116 761.112H49.468V761.892H47.116V761.112ZM45.256 758.664H46.66V763.224H45.256V758.664ZM40.708 759.744H51.304V762.204H49.972V760.704H41.98V762.204H40.708V759.744ZM52.456 763.068H63.544V764.508H52.456V763.068ZM57.256 761.16H58.768V767.412C58.768 768.228 58.576 768.624 58 768.852C57.424 769.08 56.584 769.128 55.492 769.116C55.396 768.684 55.108 768.024 54.868 767.628C55.708 767.664 56.632 767.664 56.908 767.664C57.172 767.652 57.256 767.592 57.256 767.388V761.16ZM53.716 758.544H61.276V759.972H53.716V758.544ZM60.808 758.544H61.192L61.516 758.472L62.62 759.3C61.492 760.464 59.836 761.736 58.36 762.516C58.144 762.204 57.7 761.724 57.424 761.472C58.696 760.824 60.196 759.66 60.808 758.88V758.544ZM69.076 758.28H74.608V759.408H69.076V758.28ZM68.884 761.736H74.824V762.864H68.884V761.736ZM68.884 763.452H74.776V764.58H68.884V763.452ZM69.46 767.46H74.236V768.6H69.46V767.46ZM67.936 759.996H75.664V761.16H67.936V759.996ZM68.692 765.18H74.992V769.032H73.54V766.296H70.072V769.068H68.692V765.18ZM67.048 757.836L68.392 758.268C67.576 760.308 66.256 762.456 64.888 763.812C64.768 763.476 64.384 762.684 64.144 762.336C65.284 761.256 66.4 759.552 67.048 757.836ZM65.896 761.16L67.252 759.792L67.264 759.804V769.044H65.896V761.16ZM81.952 761.724H87.1V768.984H85.636V762.996H83.344V769.056H81.952V761.724ZM76.672 762.456H81.652V763.764H76.672V762.456ZM82.624 763.74H86.344V764.796H82.624V763.74ZM82.624 765.564H86.344V766.632H82.624V765.564ZM82.624 767.424H86.344V768.588H82.624V767.424ZM78.628 761.292H80.008V769.092H78.628V761.292ZM79.804 763.836C80.212 764.136 81.568 765.372 81.88 765.684L80.968 766.8C80.536 766.164 79.564 765 79.036 764.448L79.804 763.836ZM78.064 758.856H81.844V760.056H78.064V758.856ZM82.924 758.868H87.472V760.068H82.924V758.868ZM78.112 757.728L79.492 758.076C79.012 759.396 78.244 760.764 77.488 761.616C77.212 761.388 76.612 761.004 76.276 760.824C77.044 760.08 77.728 758.892 78.112 757.728ZM82.972 757.728L84.376 758.076C83.92 759.408 83.14 760.704 82.336 761.508C82.06 761.268 81.46 760.872 81.112 760.692C81.928 759.996 82.612 758.856 82.972 757.728ZM78.508 759.78L79.648 759.288C79.984 759.792 80.38 760.5 80.536 760.956L79.324 761.52C79.192 761.064 78.832 760.332 78.508 759.78ZM83.692 759.816L84.844 759.372C85.264 759.864 85.756 760.572 85.984 761.04L84.748 761.544C84.568 761.088 84.1 760.344 83.692 759.816ZM78.604 763.212L79.648 763.812C79.108 765.204 78.064 766.86 77.104 767.82C76.912 767.472 76.54 766.968 76.228 766.692C77.14 765.936 78.124 764.46 78.604 763.212Z" fill="white"/>
<path d="M118 768.144C115.492 768.144 113.728 766.392 113.728 763.56C113.728 760.752 115.48 759.048 118 759.048C120.508 759.048 122.248 760.752 122.248 763.56C122.248 766.392 120.544 768.144 118 768.144ZM118 767.184C119.86 767.184 121.108 765.768 121.108 763.56C121.108 761.364 119.872 760.008 118 760.008C116.116 760.008 114.88 761.364 114.88 763.56C114.88 765.768 116.128 767.184 118 767.184ZM130 768.144C127.492 768.144 125.728 766.392 125.728 763.56C125.728 760.752 127.48 759.048 130 759.048C132.508 759.048 134.248 760.752 134.248 763.56C134.248 766.392 132.544 768.144 130 768.144ZM130 767.184C131.86 767.184 133.108 765.768 133.108 763.56C133.108 761.364 131.872 760.008 130 760.008C128.116 760.008 126.88 761.364 126.88 763.56C126.88 765.768 128.128 767.184 130 767.184ZM138.352 768L141.328 763.476L138.544 759.192H139.78L141.208 761.46C141.46 761.856 141.7 762.216 142.024 762.732H142.072C142.372 762.216 142.588 761.856 142.84 761.46L144.244 759.192H145.42L142.648 763.5L145.636 768H144.364L142.852 765.624C142.588 765.192 142.3 764.748 141.952 764.22H141.904C141.58 764.748 141.304 765.192 141.04 765.624L139.552 768H138.352ZM150.352 768L153.328 763.476L150.544 759.192H151.78L153.208 761.46C153.46 761.856 153.7 762.216 154.024 762.732H154.072C154.372 762.216 154.588 761.856 154.84 761.46L156.244 759.192H157.42L154.648 763.5L157.636 768H156.364L154.852 765.624C154.588 765.192 154.3 764.748 153.952 764.22H153.904C153.58 764.748 153.304 765.192 153.04 765.624L151.552 768H150.352ZM170.172 765.053C170.156 765.412 170.102 765.773 170.008 766.137C169.914 766.496 169.773 766.826 169.586 767.127C169.398 767.428 169.154 767.67 168.854 767.854C168.557 768.033 168.197 768.123 167.775 768.123C167.506 768.123 167.27 768.076 167.066 767.982C166.867 767.885 166.703 767.746 166.574 767.566C166.449 767.387 166.361 767.17 166.311 766.916C166.264 766.662 166.256 766.379 166.287 766.066L166.586 762.82H167.447L167.148 766.066C167.125 766.352 167.131 766.584 167.166 766.764C167.205 766.943 167.264 767.082 167.342 767.18C167.42 767.273 167.508 767.338 167.605 767.373C167.707 767.408 167.805 767.426 167.898 767.426C168.133 767.426 168.342 767.365 168.525 767.244C168.709 767.119 168.863 766.949 168.988 766.734C169.117 766.516 169.217 766.264 169.287 765.979C169.357 765.689 169.4 765.381 169.416 765.053C169.443 764.471 169.416 763.936 169.334 763.447C169.256 762.959 169.121 762.525 168.93 762.146C168.742 761.768 168.496 761.447 168.191 761.186C167.887 760.924 167.523 760.725 167.102 760.588C166.68 760.451 166.197 760.383 165.654 760.383C165.162 760.383 164.707 760.459 164.289 760.611C163.875 760.76 163.502 760.975 163.17 761.256C162.842 761.537 162.559 761.875 162.32 762.27C162.086 762.664 161.9 763.109 161.764 763.605C161.631 764.098 161.553 764.629 161.529 765.199C161.502 765.785 161.533 766.324 161.623 766.816C161.713 767.305 161.857 767.74 162.057 768.123C162.26 768.51 162.516 768.836 162.824 769.102C163.133 769.371 163.49 769.574 163.896 769.711C164.303 769.852 164.756 769.922 165.256 769.922C165.6 769.922 165.947 769.881 166.299 769.799C166.654 769.717 166.951 769.605 167.189 769.465L167.412 770.133C167.139 770.309 166.797 770.439 166.387 770.525C165.98 770.611 165.596 770.654 165.232 770.654C164.639 770.654 164.096 770.572 163.604 770.408C163.115 770.248 162.682 770.012 162.303 769.699C161.928 769.391 161.615 769.014 161.365 768.568C161.115 768.127 160.932 767.623 160.814 767.057C160.697 766.49 160.652 765.871 160.68 765.199C160.707 764.559 160.803 763.955 160.967 763.389C161.135 762.822 161.363 762.309 161.652 761.848C161.941 761.387 162.285 760.99 162.684 760.658C163.086 760.322 163.537 760.064 164.037 759.885C164.541 759.705 165.088 759.615 165.678 759.615C166.279 759.615 166.824 759.697 167.312 759.861C167.801 760.025 168.229 760.262 168.596 760.57C168.967 760.879 169.273 761.256 169.516 761.701C169.758 762.146 169.934 762.65 170.043 763.213C170.156 763.775 170.199 764.389 170.172 765.053ZM164.154 765.551C164.127 765.824 164.127 766.068 164.154 766.283C164.182 766.498 164.234 766.68 164.312 766.828C164.391 766.977 164.492 767.09 164.617 767.168C164.746 767.242 164.896 767.279 165.068 767.279C165.182 767.279 165.301 767.252 165.426 767.197C165.551 767.139 165.674 767.049 165.795 766.928C165.916 766.807 166.029 766.648 166.135 766.453C166.24 766.258 166.328 766.023 166.398 765.75L166.785 766.172C166.695 766.492 166.578 766.773 166.434 767.016C166.293 767.258 166.135 767.461 165.959 767.625C165.783 767.789 165.596 767.914 165.396 768C165.201 768.082 165.002 768.123 164.799 768.123C164.514 768.123 164.264 768.062 164.049 767.941C163.834 767.816 163.66 767.641 163.527 767.414C163.395 767.188 163.301 766.918 163.246 766.605C163.195 766.289 163.188 765.938 163.223 765.551C163.258 765.141 163.33 764.762 163.439 764.414C163.549 764.066 163.684 763.756 163.844 763.482C164.008 763.209 164.191 762.977 164.395 762.785C164.602 762.594 164.82 762.449 165.051 762.352C165.281 762.25 165.518 762.199 165.76 762.199C166.182 762.199 166.514 762.262 166.756 762.387C166.998 762.508 167.229 762.652 167.447 762.82L166.949 763.4C166.836 763.291 166.688 763.189 166.504 763.096C166.32 763.002 166.104 762.955 165.854 762.955C165.639 762.955 165.438 763.01 165.25 763.119C165.062 763.229 164.893 763.393 164.74 763.611C164.592 763.83 164.467 764.102 164.365 764.426C164.264 764.746 164.193 765.121 164.154 765.551ZM176.781 768.144C174.273 768.144 172.509 766.392 172.509 763.56C172.509 760.752 174.261 759.048 176.781 759.048C179.289 759.048 181.029 760.752 181.029 763.56C181.029 766.392 179.325 768.144 176.781 768.144ZM176.781 767.184C178.641 767.184 179.889 765.768 179.889 763.56C179.889 761.364 178.653 760.008 176.781 760.008C174.897 760.008 173.661 761.364 173.661 763.56C173.661 765.768 174.909 767.184 176.781 767.184ZM188.781 768.144C186.273 768.144 184.509 766.392 184.509 763.56C184.509 760.752 186.261 759.048 188.781 759.048C191.289 759.048 193.029 760.752 193.029 763.56C193.029 766.392 191.325 768.144 188.781 768.144ZM188.781 767.184C190.641 767.184 191.889 765.768 191.889 763.56C191.889 761.364 190.653 760.008 188.781 760.008C186.897 760.008 185.661 761.364 185.661 763.56C185.661 765.768 186.909 767.184 188.781 767.184ZM197.133 768L200.109 763.476L197.325 759.192H198.561L199.989 761.46C200.241 761.856 200.481 762.216 200.805 762.732H200.853C201.153 762.216 201.369 761.856 201.621 761.46L203.025 759.192H204.201L201.429 763.5L204.417 768H203.145L201.633 765.624C201.369 765.192 201.081 764.748 200.733 764.22H200.685C200.361 764.748 200.085 765.192 199.821 765.624L198.333 768H197.133ZM209.133 768L212.109 763.476L209.325 759.192H210.561L211.989 761.46C212.241 761.856 212.481 762.216 212.805 762.732H212.853C213.153 762.216 213.369 761.856 213.621 761.46L215.025 759.192H216.201L213.429 763.5L216.417 768H215.145L213.633 765.624C213.369 765.192 213.081 764.748 212.733 764.22H212.685C212.361 764.748 212.085 765.192 211.821 765.624L210.333 768H209.133ZM219.625 767.426C219.625 767.242 219.682 767.088 219.795 766.963C219.912 766.834 220.08 766.77 220.299 766.77C220.518 766.77 220.684 766.834 220.797 766.963C220.914 767.088 220.973 767.242 220.973 767.426C220.973 767.605 220.914 767.758 220.797 767.883C220.684 768.008 220.518 768.07 220.299 768.07C220.08 768.07 219.912 768.008 219.795 767.883C219.682 767.758 219.625 767.605 219.625 767.426ZM225.309 767.227C225.566 767.227 225.805 767.174 226.023 767.068C226.242 766.963 226.422 766.818 226.562 766.635C226.703 766.447 226.783 766.234 226.803 765.996H227.834C227.814 766.371 227.688 766.721 227.453 767.045C227.223 767.365 226.92 767.625 226.545 767.824C226.17 768.02 225.758 768.117 225.309 768.117C224.832 768.117 224.416 768.033 224.061 767.865C223.709 767.697 223.416 767.467 223.182 767.174C222.951 766.881 222.777 766.545 222.66 766.166C222.547 765.783 222.49 765.379 222.49 764.953V764.707C222.49 764.281 222.547 763.879 222.66 763.5C222.777 763.117 222.951 762.779 223.182 762.486C223.416 762.193 223.709 761.963 224.061 761.795C224.416 761.627 224.832 761.543 225.309 761.543C225.805 761.543 226.238 761.645 226.609 761.848C226.98 762.047 227.271 762.32 227.482 762.668C227.697 763.012 227.814 763.402 227.834 763.84H226.803C226.783 763.578 226.709 763.342 226.58 763.131C226.455 762.92 226.283 762.752 226.064 762.627C225.85 762.498 225.598 762.434 225.309 762.434C224.977 762.434 224.697 762.5 224.471 762.633C224.248 762.762 224.07 762.938 223.938 763.16C223.809 763.379 223.715 763.623 223.656 763.893C223.602 764.158 223.574 764.43 223.574 764.707V764.953C223.574 765.23 223.602 765.504 223.656 765.773C223.711 766.043 223.803 766.287 223.932 766.506C224.064 766.725 224.242 766.9 224.465 767.033C224.691 767.162 224.973 767.227 225.309 767.227ZM228.766 764.9V764.766C228.766 764.309 228.832 763.885 228.965 763.494C229.098 763.1 229.289 762.758 229.539 762.469C229.789 762.176 230.092 761.949 230.447 761.789C230.803 761.625 231.201 761.543 231.643 761.543C232.088 761.543 232.488 761.625 232.844 761.789C233.203 761.949 233.508 762.176 233.758 762.469C234.012 762.758 234.205 763.1 234.338 763.494C234.471 763.885 234.537 764.309 234.537 764.766V764.9C234.537 765.357 234.471 765.781 234.338 766.172C234.205 766.562 234.012 766.904 233.758 767.197C233.508 767.486 233.205 767.713 232.85 767.877C232.498 768.037 232.1 768.117 231.654 768.117C231.209 768.117 230.809 768.037 230.453 767.877C230.098 767.713 229.793 767.486 229.539 767.197C229.289 766.904 229.098 766.562 228.965 766.172C228.832 765.781 228.766 765.357 228.766 764.9ZM229.85 764.766V764.9C229.85 765.217 229.887 765.516 229.961 765.797C230.035 766.074 230.146 766.32 230.295 766.535C230.447 766.75 230.637 766.92 230.863 767.045C231.09 767.166 231.354 767.227 231.654 767.227C231.951 767.227 232.211 767.166 232.434 767.045C232.66 766.92 232.848 766.75 232.996 766.535C233.145 766.32 233.256 766.074 233.33 765.797C233.408 765.516 233.447 765.217 233.447 764.9V764.766C233.447 764.453 233.408 764.158 233.33 763.881C233.256 763.6 233.143 763.352 232.99 763.137C232.842 762.918 232.654 762.746 232.428 762.621C232.205 762.496 231.943 762.434 231.643 762.434C231.346 762.434 231.084 762.496 230.857 762.621C230.635 762.746 230.447 762.918 230.295 763.137C230.146 763.352 230.035 763.6 229.961 763.881C229.887 764.158 229.85 764.453 229.85 764.766ZM236.975 762.92V768H235.885V761.66H236.916L236.975 762.92ZM236.752 764.59L236.248 764.572C236.252 764.139 236.309 763.738 236.418 763.371C236.527 763 236.689 762.678 236.904 762.404C237.119 762.131 237.387 761.92 237.707 761.771C238.027 761.619 238.398 761.543 238.82 761.543C239.117 761.543 239.391 761.586 239.641 761.672C239.891 761.754 240.107 761.885 240.291 762.064C240.475 762.244 240.617 762.475 240.719 762.756C240.82 763.037 240.871 763.377 240.871 763.775V768H239.787V763.828C239.787 763.496 239.73 763.23 239.617 763.031C239.508 762.832 239.352 762.688 239.148 762.598C238.945 762.504 238.707 762.457 238.434 762.457C238.113 762.457 237.846 762.514 237.631 762.627C237.416 762.74 237.244 762.896 237.115 763.096C236.986 763.295 236.893 763.523 236.834 763.781C236.779 764.035 236.752 764.305 236.752 764.59ZM240.859 763.992L240.133 764.215C240.137 763.867 240.193 763.533 240.303 763.213C240.416 762.893 240.578 762.607 240.789 762.357C241.004 762.107 241.268 761.91 241.58 761.766C241.893 761.617 242.25 761.543 242.652 761.543C242.992 761.543 243.293 761.588 243.555 761.678C243.82 761.768 244.043 761.906 244.223 762.094C244.406 762.277 244.545 762.514 244.639 762.803C244.732 763.092 244.779 763.436 244.779 763.834V768H243.689V763.822C243.689 763.467 243.633 763.191 243.52 762.996C243.41 762.797 243.254 762.658 243.051 762.58C242.852 762.498 242.613 762.457 242.336 762.457C242.098 762.457 241.887 762.498 241.703 762.58C241.52 762.662 241.365 762.775 241.24 762.92C241.115 763.061 241.02 763.223 240.953 763.406C240.891 763.59 240.859 763.785 240.859 763.992Z" fill="white"/>
<path d="M44.8 788.192L46.528 788.612C45.736 790.496 44.668 792.608 43.78 793.988L42.448 793.568C43.312 792.116 44.284 789.908 44.8 788.192ZM41.056 793.124C43.324 793.052 46.84 792.884 49.984 792.728L49.948 794.132C46.864 794.348 43.528 794.528 41.248 794.648L41.056 793.124ZM47.128 790.844L48.532 790.196C49.588 791.492 50.716 793.196 51.292 794.348L49.804 795.14C49.3 793.988 48.136 792.164 47.128 790.844ZM43.528 784.088L45.172 784.544C44.404 786.44 43.144 788.3 41.92 789.452C41.608 789.152 40.912 788.624 40.516 788.384C41.764 787.4 42.904 785.756 43.528 784.088ZM48.364 784.1C49.072 785.516 50.44 787.196 51.544 788.204C51.148 788.504 50.596 789.08 50.32 789.464C49.192 788.252 47.812 786.356 46.924 784.688L48.364 784.1ZM52.948 784.532H61.876V785.9H52.948V784.532ZM53.056 786.764H60.16V788.012H53.056V786.764ZM61.372 784.532H62.848V793.256C62.848 794.084 62.704 794.528 62.188 794.78C61.684 795.02 60.928 795.056 59.836 795.056C59.788 794.624 59.572 793.904 59.368 793.496C60.052 793.532 60.832 793.532 61.072 793.52C61.288 793.52 61.372 793.46 61.372 793.232V784.532ZM53.68 788.9H55.084V793.856H53.68V788.9ZM54.928 788.9H59.536V792.98H54.928V791.744H58.12V790.148H54.928V788.9ZM71.404 783.812H72.76V792.284H71.404V783.812ZM67.852 788.636L74.068 785.996L74.596 787.22L68.392 789.908L67.852 788.636ZM69.04 784.976H70.408V792.752C70.408 793.46 70.516 793.556 71.26 793.556C71.62 793.556 73.216 793.556 73.588 793.556C74.248 793.556 74.368 793.292 74.464 792.056C74.776 792.272 75.34 792.5 75.724 792.572C75.544 794.276 75.112 794.84 73.708 794.84C73.312 794.84 71.512 794.84 71.14 794.84C69.496 794.84 69.04 794.408 69.04 792.74V784.976ZM73.792 786.152H73.708L73.96 785.972L74.212 785.792L75.22 786.152L75.16 786.392C75.16 788.684 75.136 790.136 75.088 790.628C75.04 791.18 74.836 791.468 74.464 791.624C74.116 791.792 73.6 791.792 73.216 791.792C73.168 791.432 73.06 790.892 72.904 790.592C73.108 790.604 73.384 790.604 73.492 790.604C73.636 790.604 73.708 790.568 73.744 790.352C73.792 790.112 73.792 788.804 73.792 786.152ZM64.408 786.596H68.368V787.952H64.408V786.596ZM65.8 783.98H67.144V791.936H65.8V783.98ZM64.24 791.948C65.236 791.588 66.796 790.94 68.26 790.316L68.584 791.588C67.312 792.236 65.932 792.884 64.816 793.388L64.24 791.948ZM84.124 787.808H87.424V789.188H84.124V787.808ZM79.732 793.268H87.664V794.636H79.732V793.268ZM83.644 783.896H85.108V794H83.644V783.896ZM80.992 786.464H82.408V793.916H80.992V786.464ZM76.408 786.596H80.608V787.952H76.408V786.596ZM77.884 783.98H79.228V791.828H77.884V783.98ZM76.276 791.732C77.32 791.42 78.928 790.832 80.44 790.28L80.692 791.54C79.384 792.116 77.944 792.704 76.804 793.16L76.276 791.732Z" fill="white"/>
<path d="M118 794.144C115.492 794.144 113.728 792.392 113.728 789.56C113.728 786.752 115.48 785.048 118 785.048C120.508 785.048 122.248 786.752 122.248 789.56C122.248 792.392 120.544 794.144 118 794.144ZM118 793.184C119.86 793.184 121.108 791.768 121.108 789.56C121.108 787.364 119.872 786.008 118 786.008C116.116 786.008 114.88 787.364 114.88 789.56C114.88 791.768 116.128 793.184 118 793.184ZM130 794.144C127.492 794.144 125.728 792.392 125.728 789.56C125.728 786.752 127.48 785.048 130 785.048C132.508 785.048 134.248 786.752 134.248 789.56C134.248 792.392 132.544 794.144 130 794.144ZM130 793.184C131.86 793.184 133.108 791.768 133.108 789.56C133.108 787.364 131.872 786.008 130 786.008C128.116 786.008 126.88 787.364 126.88 789.56C126.88 791.768 128.128 793.184 130 793.184ZM141.484 783.872H142.432V786.116H141.484V783.872ZM141.496 786.404H142.42V794.996H141.496V786.404ZM136.6 785.588H147.412V786.464H136.6V785.588ZM137.836 788.108H145.72V788.984H138.736V793.472H137.836V788.108ZM145.372 788.108H146.296V792.332C146.296 792.848 146.176 793.124 145.78 793.28C145.36 793.424 144.688 793.436 143.656 793.436C143.62 793.16 143.476 792.8 143.344 792.548C144.16 792.572 144.892 792.572 145.096 792.56C145.312 792.548 145.372 792.5 145.372 792.332V788.108ZM154 794.144C151.492 794.144 149.728 792.392 149.728 789.56C149.728 786.752 151.48 785.048 154 785.048C156.508 785.048 158.248 786.752 158.248 789.56C158.248 792.392 156.544 794.144 154 794.144ZM154 793.184C155.86 793.184 157.108 791.768 157.108 789.56C157.108 787.364 155.872 786.008 154 786.008C152.116 786.008 150.88 787.364 150.88 789.56C150.88 791.768 152.128 793.184 154 793.184ZM166 794.144C163.492 794.144 161.728 792.392 161.728 789.56C161.728 786.752 163.48 785.048 166 785.048C168.508 785.048 170.248 786.752 170.248 789.56C170.248 792.392 168.544 794.144 166 794.144ZM166 793.184C167.86 793.184 169.108 791.768 169.108 789.56C169.108 787.364 167.872 786.008 166 786.008C164.116 786.008 162.88 787.364 162.88 789.56C162.88 791.768 164.128 793.184 166 793.184ZM177.184 786.716V788.096H179.944V786.716H177.184ZM176.344 786.068H180.832V788.744H176.344V786.068ZM175.792 790.22V791.996H177.388V790.22H175.792ZM175.024 789.56H178.18V792.656H175.024V789.56ZM179.764 790.22V791.996H181.444V790.22H179.764ZM178.996 789.56H182.236V792.656H178.996V789.56ZM173.116 784.448H183.148V785.252H173.992V794.972H173.116V784.448ZM173.692 793.556H183.46V794.384H173.692V793.556ZM190 794.144C187.492 794.144 185.728 792.392 185.728 789.56C185.728 786.752 187.48 785.048 190 785.048C192.508 785.048 194.248 786.752 194.248 789.56C194.248 792.392 192.544 794.144 190 794.144ZM190 793.184C191.86 793.184 193.108 791.768 193.108 789.56C193.108 787.364 191.872 786.008 190 786.008C188.116 786.008 186.88 787.364 186.88 789.56C186.88 791.768 188.128 793.184 190 793.184ZM202 794.144C199.492 794.144 197.728 792.392 197.728 789.56C197.728 786.752 199.48 785.048 202 785.048C204.508 785.048 206.248 786.752 206.248 789.56C206.248 792.392 204.544 794.144 202 794.144ZM202 793.184C203.86 793.184 205.108 791.768 205.108 789.56C205.108 787.364 203.872 786.008 202 786.008C200.116 786.008 198.88 787.364 198.88 789.56C198.88 791.768 200.128 793.184 202 793.184ZM214.36 793.712H218.32V794.504H214.36V793.712ZM214.948 785.156H218.116V785.936H214.948V785.156ZM214.012 790.616H218.728V794.9H217.864V791.396H214.84V794.936H214.012V790.616ZM217.792 785.156H217.948L218.116 785.12L218.692 785.36C217.768 788.312 215.572 790.28 213.292 791.252C213.184 791.048 212.944 790.736 212.764 790.568C214.888 789.752 217.012 787.82 217.792 785.312V785.156ZM215.152 783.92L216.016 784.124C215.476 785.756 214.588 787.28 213.592 788.276C213.448 788.12 213.1 787.832 212.884 787.7C213.868 786.8 214.696 785.396 215.152 783.92ZM214.912 785.648C215.608 787.364 217.216 789.428 219.676 790.364C219.484 790.532 219.232 790.88 219.112 791.108C216.64 790.04 215.056 787.868 214.324 786.14L214.912 785.648ZM209.068 789.248H209.824V793.604H209.068V789.248ZM209.872 785.216V787.328H212.128V785.216H209.872ZM209.068 784.424H212.968V788.12H209.068V784.424ZM210.76 787.724H211.576V793.208H210.76V787.724ZM208.444 793.508C209.632 793.268 211.432 792.848 213.16 792.44L213.244 793.244C211.6 793.652 209.872 794.072 208.612 794.384L208.444 793.508ZM211.048 789.86H213.076V790.664H211.048V789.86ZM226 794.144C223.492 794.144 221.728 792.392 221.728 789.56C221.728 786.752 223.48 785.048 226 785.048C228.508 785.048 230.248 786.752 230.248 789.56C230.248 792.392 228.544 794.144 226 794.144ZM226 793.184C227.86 793.184 229.108 791.768 229.108 789.56C229.108 787.364 227.872 786.008 226 786.008C224.116 786.008 222.88 787.364 222.88 789.56C222.88 791.768 224.128 793.184 226 793.184ZM237.616 789.248H242.26V790.076H237.616V789.248ZM233.812 787.04H237.016V787.892H233.812V787.04ZM233.812 789.344H237.124V790.196H233.812V789.344ZM238.72 784.424H241.54V785.228H238.72V784.424ZM242.08 789.248H242.248L242.404 789.212L242.992 789.44C242.092 792.524 239.848 794.204 237.184 794.984C237.088 794.756 236.872 794.396 236.692 794.192C239.164 793.568 241.324 791.996 242.08 789.404V789.248ZM238.9 790.028C239.68 792.08 241.324 793.556 243.616 794.168C243.4 794.348 243.148 794.708 243.016 794.948C240.64 794.216 238.984 792.584 238.12 790.244L238.9 790.028ZM233.392 784.832L234.244 785.108V794.948H233.392V784.832ZM232.396 792.32C233.656 792.128 235.588 791.804 237.436 791.48L237.472 792.308C235.72 792.632 233.872 792.968 232.552 793.208L232.396 792.32ZM238.312 784.424H239.152V786.152C239.152 787.136 238.912 788.324 237.7 789.08C237.58 788.912 237.256 788.588 237.076 788.468C238.168 787.808 238.312 786.932 238.312 786.128V784.424ZM236.728 783.932L237.496 784.568C236.512 785.06 235.096 785.468 233.872 785.744C233.824 785.552 233.692 785.252 233.572 785.072C234.712 784.784 236.008 784.34 236.728 783.932ZM241.036 784.424H241.888V787.388C241.888 787.616 241.9 787.748 241.96 787.796C241.996 787.832 242.056 787.844 242.152 787.844C242.224 787.844 242.392 787.844 242.488 787.844C242.596 787.844 242.704 787.832 242.752 787.796C242.8 787.772 242.848 787.676 242.872 787.532C242.908 787.364 242.92 786.98 242.932 786.488C243.088 786.644 243.388 786.776 243.616 786.848C243.592 787.328 243.556 787.856 243.496 788.06C243.424 788.252 243.304 788.384 243.136 788.456C243.004 788.54 242.764 788.576 242.572 788.576C242.404 788.576 242.092 788.576 241.96 788.576C241.72 788.576 241.444 788.516 241.276 788.36C241.108 788.216 241.036 788.012 241.036 787.34V784.424ZM250 794.144C247.492 794.144 245.728 792.392 245.728 789.56C245.728 786.752 247.48 785.048 250 785.048C252.508 785.048 254.248 786.752 254.248 789.56C254.248 792.392 252.544 794.144 250 794.144ZM250 793.184C251.86 793.184 253.108 791.768 253.108 789.56C253.108 787.364 251.872 786.008 250 786.008C248.116 786.008 246.88 787.364 246.88 789.56C246.88 791.768 248.128 793.184 250 793.184ZM257.848 785.132V786.956H259.636V785.132H257.848ZM257.032 784.376H260.488V787.724H257.032V784.376ZM256.48 788.564H261.004V789.356H256.48V788.564ZM257.608 788.924H258.436C258.232 789.92 257.944 791.168 257.728 791.96L256.912 791.804C257.152 791.036 257.428 789.836 257.608 788.924ZM257.704 790.424H259.936V791.192H257.5L257.704 790.424ZM259.6 790.424H260.44C260.44 790.424 260.428 790.664 260.416 790.796C260.224 793.304 260.044 794.288 259.708 794.648C259.504 794.864 259.3 794.936 258.976 794.972C258.712 794.984 258.22 794.984 257.716 794.96C257.704 794.732 257.608 794.384 257.464 794.168C257.98 794.216 258.448 794.216 258.64 794.216C258.82 794.228 258.94 794.204 259.036 794.096C259.276 793.856 259.456 792.932 259.6 790.568V790.424ZM264.124 784.748H266.992V785.492H264.124V784.748ZM261.712 786.308H267.004V787.04H261.712V786.308ZM263.692 783.92H264.556V786.692H263.692V783.92ZM261.328 786.308H262.144V789.38C262.144 791.06 261.976 793.436 260.86 795.032C260.716 794.876 260.38 794.624 260.176 794.54C261.22 793.016 261.328 790.928 261.328 789.38V786.308ZM262.432 788.288L265.984 787.94L266.068 788.564L262.516 788.948L262.432 788.288ZM263.74 787.124H264.544V789.272C264.544 789.524 264.592 789.56 264.928 789.56C265.072 789.56 265.84 789.56 266.044 789.56C266.308 789.56 266.356 789.476 266.392 788.804C266.56 788.912 266.872 789.02 267.088 789.068C267.016 789.992 266.788 790.232 266.14 790.232C265.96 790.232 265 790.232 264.82 790.232C263.956 790.232 263.74 790.04 263.74 789.272V787.124ZM266.752 786.308H266.884L267.028 786.272L267.592 786.416C267.448 787.148 267.256 788.012 267.112 788.552L266.416 788.384C266.536 787.88 266.68 787.064 266.752 786.428V786.308ZM263.116 790.76H263.896C263.812 792.8 263.464 794.204 262 795.008C261.892 794.804 261.652 794.504 261.472 794.36C262.78 793.688 263.044 792.524 263.116 790.76ZM264.88 790.748H265.66V793.712C265.66 793.796 265.684 793.88 265.744 793.904C265.816 793.94 265.912 793.964 266.032 793.964C266.128 793.964 266.32 793.964 266.464 793.964C266.572 793.964 266.728 793.94 266.788 793.904C266.86 793.868 266.92 793.784 266.944 793.652C266.98 793.46 266.992 792.992 266.992 792.452C267.148 792.596 267.448 792.752 267.676 792.824C267.664 793.388 267.604 793.988 267.544 794.192C267.472 794.42 267.34 794.552 267.16 794.66C267.016 794.732 266.752 794.78 266.524 794.78C266.368 794.78 265.972 794.78 265.84 794.78C265.576 794.78 265.3 794.732 265.12 794.588C264.928 794.42 264.88 794.24 264.88 793.688V790.748ZM274 794.144C271.492 794.144 269.728 792.392 269.728 789.56C269.728 786.752 271.48 785.048 274 785.048C276.508 785.048 278.248 786.752 278.248 789.56C278.248 792.392 276.544 794.144 274 794.144ZM274 793.184C275.86 793.184 277.108 791.768 277.108 789.56C277.108 787.364 275.872 786.008 274 786.008C272.116 786.008 270.88 787.364 270.88 789.56C270.88 791.768 272.128 793.184 274 793.184ZM282.121 785.469V794H280.99V785.469H282.121ZM285.695 789.307V790.232H281.875V789.307H285.695ZM286.275 785.469V786.395H281.875V785.469H286.275Z" fill="white"/>
<g clip-path="url(#clip0_884_58671)">
<circle cx="58" cy="814" r="18" fill="black"/>
<path d="M59 806C59 805.448 58.5523 805 58 805C57.4477 805 57 805.448 57 806H59ZM57 807C57 807.552 57.4477 808 58 808C58.5523 808 59 807.552 59 807H57ZM64 817C63.4477 817 63 817.448 63 818C63 818.552 63.4477 819 64 819V817ZM66 819C66.5523 819 67 818.552 67 818C67 817.448 66.5523 817 66 817V819ZM58 818V817C57.4477 817 57 817.448 57 818H58ZM60 819C60.5523 819 61 818.552 61 818C61 817.448 60.5523 817 60 817V819ZM57 822C57 822.552 57.4477 823 58 823C58.5523 823 59 822.552 59 822H57ZM59 811C59 810.448 58.5523 810 58 810C57.4477 810 57 810.448 57 811H59ZM58 814H57C57 814.552 57.4477 815 58 815V814ZM62 821C61.4477 821 61 821.448 61 822C61 822.552 61.4477 823 62 823V821ZM66 823C66.5523 823 67 822.552 67 822C67 821.448 66.5523 821 66 821V823ZM50 813C49.4477 813 49 813.448 49 814C49 814.552 49.4477 815 50 815V813ZM54 815C54.5523 815 55 814.552 55 814C55 813.448 54.5523 813 54 813V815ZM58.01 815C58.5623 815 59.01 814.552 59.01 814C59.01 813.448 58.5623 813 58.01 813V815ZM62.01 815C62.5623 815 63.01 814.552 63.01 814C63.01 813.448 62.5623 813 62.01 813V815ZM66 813C65.4477 813 65 813.448 65 814C65 814.552 65.4477 815 66 815V813ZM66.01 815C66.5623 815 67.01 814.552 67.01 814C67.01 813.448 66.5623 813 66.01 813V815ZM51 807H53V805H51V807ZM53 807V809H55V807H53ZM53 809H51V811H53V809ZM51 809V807H49V809H51ZM51 809H49C49 810.105 49.8954 811 51 811V809ZM53 809V811C54.1046 811 55 810.105 55 809H53ZM53 807H55C55 805.895 54.1046 805 53 805V807ZM51 805C49.8954 805 49 805.895 49 807H51V805ZM63 807H65V805H63V807ZM65 807V809H67V807H65ZM65 809H63V811H65V809ZM63 809V807H61V809H63ZM63 809H61C61 810.105 61.8954 811 63 811V809ZM65 809V811C66.1046 811 67 810.105 67 809H65ZM65 807H67C67 805.895 66.1046 805 65 805V807ZM63 805C61.8954 805 61 805.895 61 807H63V805ZM51 819H53V817H51V819ZM53 819V821H55V819H53ZM53 821H51V823H53V821ZM51 821V819H49V821H51ZM51 821H49C49 822.105 49.8954 823 51 823V821ZM53 821V823C54.1046 823 55 822.105 55 821H53ZM53 819H55C55 817.895 54.1046 817 53 817V819ZM51 817C49.8954 817 49 817.895 49 819H51V817ZM57 806V807H59V806H57ZM64 819H66V817H64V819ZM58 819H60V817H58V819ZM57 818V822H59V818H57ZM57 811V814H59V811H57ZM62 823H66V821H62V823ZM50 815H54V813H50V815ZM58 815H58.01V813H58V815ZM66 815H66.01V813H66V815ZM58 815H62.01V813H58V815Z" fill="white"/>
</g>
<g clip-path="url(#clip1_884_58671)">
<circle cx="102" cy="814" r="18" fill="black"/>
<path d="M98.6839 815.342C98.8862 814.938 99 814.482 99 814C99 813.518 98.8862 813.062 98.6839 812.658M98.6839 815.342C98.1913 816.325 97.1745 817 96 817C94.3431 817 93 815.657 93 814C93 812.343 94.3431 811 96 811C97.1745 811 98.1913 811.675 98.6839 812.658M98.6839 815.342L105.316 818.658M98.6839 812.658L105.316 809.342M105.316 809.342C105.809 810.325 106.826 811 108 811C109.657 811 111 809.657 111 808C111 806.343 109.657 805 108 805C106.343 805 105 806.343 105 808C105 808.482 105.114 808.938 105.316 809.342ZM105.316 818.658C105.114 819.062 105 819.518 105 820C105 821.657 106.343 823 108 823C109.657 823 111 821.657 111 820C111 818.343 109.657 817 108 817C106.826 817 105.809 817.675 105.316 818.658Z" stroke="white" stroke-width="2" stroke-linecap="round" stroke-linejoin="round"/>
</g>
<g clip-path="url(#clip2_884_58671)">
<rect x="270" y="796" width="80" height="36" rx="18" fill="black"/>
<path d="M338 811V814M338 814V817M338 814H341M338 814H335M333 809C333 811.209 331.209 813 329 813C326.791 813 325 811.209 325 809C325 806.791 326.791 805 329 805C331.209 805 333 806.791 333 809ZM323 822C323 818.686 325.686 816 329 816C332.314 816 335 818.686 335 822V823H323V822Z" stroke="white" stroke-width="2" stroke-linecap="round" stroke-linejoin="round"/>
<path d="M289.26 817.028H292.524V817.904H289.26V817.028ZM282.636 810.2H287.244V811.076H282.636V810.2ZM288.852 809.42H292.956V818.696H292.044V810.284H289.728V818.78H288.852V809.42ZM287.004 810.2H287.88C287.88 810.2 287.88 810.536 287.88 810.656C287.784 815.996 287.7 817.748 287.316 818.276C287.1 818.588 286.884 818.696 286.524 818.732C286.188 818.78 285.636 818.78 285.096 818.744C285.084 818.48 284.988 818.084 284.832 817.832C285.396 817.88 285.912 817.88 286.14 817.88C286.32 817.892 286.428 817.856 286.536 817.7C286.812 817.328 286.92 815.552 287.004 810.416V810.2ZM284.34 808.088H285.216C285.204 812.516 285.144 816.68 283.032 818.972C282.876 818.768 282.564 818.492 282.336 818.36C284.34 816.248 284.328 812.288 284.34 808.088ZM299.364 808.544H304.632V809.384H299.364V808.544ZM298.956 812.756H305.556V813.62H298.956V812.756ZM301.788 811.16H302.688V817.832C302.688 818.372 302.556 818.636 302.184 818.78C301.788 818.924 301.164 818.948 300.204 818.936C300.156 818.696 300 818.3 299.88 818.06C300.636 818.084 301.308 818.084 301.524 818.072C301.728 818.06 301.788 818 301.788 817.82V811.16ZM304.308 808.544H304.524L304.716 808.496L305.304 808.928C304.584 809.948 303.468 811.112 302.508 811.832C302.376 811.664 302.124 811.424 301.968 811.304C302.832 810.656 303.828 809.528 304.308 808.748V808.544ZM294.516 810.404H298.464V811.244H294.516V810.404ZM296.328 807.932L297.18 808.028C296.724 810.428 295.968 813.668 295.428 815.66L294.672 815.264C295.2 813.428 295.92 810.212 296.328 807.932ZM295.116 814.88L295.62 814.256C296.964 815.012 298.548 816.164 299.268 817.052L298.728 817.784C298.008 816.884 296.46 815.66 295.116 814.88ZM298.164 810.404H298.308L298.476 810.368L299.016 810.476C298.692 815.12 297.384 817.664 295.176 818.984C295.056 818.768 294.804 818.444 294.612 818.264C296.616 817.208 297.864 814.664 298.164 810.584V810.404ZM310.536 812.816C311.592 815.66 313.92 817.496 317.496 818.144C317.292 818.336 317.04 818.708 316.92 818.96C313.272 818.192 310.968 816.224 309.756 813.056L310.536 812.816ZM314.964 812.396H315.132L315.3 812.348L315.912 812.624C314.904 816.248 312.288 818.084 309.204 818.972C309.096 818.732 308.88 818.384 308.688 818.204C311.556 817.484 314.088 815.708 314.964 812.564V812.396ZM306.828 809.924H317.196V810.8H306.828V809.924ZM310.044 812.396H315.06V813.272H309.792L310.044 812.396ZM310.044 807.92H310.968C310.884 809.3 310.68 815.588 307.2 818.576C307.02 818.348 306.708 818.12 306.42 817.952C309.876 815.204 309.984 809.012 310.044 807.92Z" fill="white"/>
</g>
<circle cx="91" cy="99" r="75" fill="#D9D9D9"/>
<path d="M319.208 476.56L323.42 477.244C322.628 482.5 321.08 487.648 318.992 490.888C318.2 490.24 316.328 489.124 315.32 488.584C317.372 485.776 318.596 481.168 319.208 476.56ZM325.004 474.796H329.36V506.188H325.004V474.796ZM318.74 492.184H335.588V496.18H318.74V492.184ZM316.508 503.524H336.884V507.592H316.508V503.524ZM320.468 481.78H335.948V485.884H318.848L320.468 481.78ZM303.152 481.6H314.096V485.56H303.152V481.6ZM307.4 474.436L311.504 474.832C310.244 482.428 308.372 491.968 306.788 498.484L303.332 496.432C304.736 490.852 306.428 481.528 307.4 474.436ZM304.88 495.532L307.436 492.508C310.856 495.172 315.356 499.024 317.336 501.724L314.564 505.216C312.656 502.444 308.336 498.34 304.88 495.532ZM312.584 481.6H313.304L314.024 481.528L316.508 481.816C315.86 496.144 312.8 503.992 305.816 508.276C305.24 507.196 304.16 505.648 303.296 504.784C309.2 501.724 312.08 493.948 312.584 482.356V481.6ZM351.716 502.912H367.844V506.836H351.716V502.912ZM349.916 477.964H362.66V481.78H349.916V477.964ZM350.852 474.22L355.712 475.192C352.652 480.448 348.332 485.272 341.852 489.16C341.24 488.08 339.8 486.496 338.828 485.74C344.768 482.608 348.764 478.216 350.852 474.22ZM361.292 477.964H362.12L362.84 477.748L365.828 479.332C361.616 490.528 352.004 497.872 341.276 501.472C340.736 500.284 339.656 498.52 338.756 497.62C348.692 494.74 357.98 487.756 361.292 478.684V477.964ZM345.2 485.884L348.404 483.076C350.888 484.84 354.164 487.396 355.748 489.268L352.256 492.4C350.888 490.528 347.684 487.756 345.2 485.884ZM365.828 491.932H370.328V508.276H365.828V491.932ZM353.552 491.932H367.988V495.856H353.552V508.204H349.232V495.136L352.508 491.932H353.552Z" fill="white"/>
<path d="M355.256 531.928H357.692V532.576H355.256V531.928ZM354.584 526.12H358.364V526.828H354.584V526.12ZM354.236 528.748H361.532V529.492H354.236V528.748ZM355.412 530.212H358.1V534.328H355.412V533.656H357.368V530.884H355.412V530.212ZM354.884 530.212H355.604V535.084H354.884V530.212ZM356.036 524.944H356.828V526.624H356.036V524.944ZM360.44 530.104L361.196 530.26C360.524 532.792 359.264 534.724 357.5 535.96C357.392 535.816 357.116 535.504 356.936 535.36C358.688 534.268 359.852 532.432 360.44 530.104ZM354.944 527.044L355.568 526.9C355.796 527.428 355.952 528.124 355.976 528.592L355.316 528.748C355.304 528.292 355.148 527.584 354.944 527.044ZM359.648 525.7L360.272 525.376C360.8 525.964 361.316 526.78 361.544 527.332L360.884 527.692C360.668 527.14 360.152 526.3 359.648 525.7ZM357.236 526.876L357.968 527.044C357.776 527.62 357.584 528.292 357.416 528.724L356.816 528.58C356.972 528.1 357.164 527.368 357.236 526.876ZM350.6 525.448H354.608V526.252H350.6V525.448ZM351.536 527.968H353.696V528.724H351.536V527.968ZM351.536 530.44H353.696V531.208H351.536V530.44ZM351.164 525.856H351.92V533.536H351.164V525.856ZM353.24 525.844H354.02V535.972H353.24V525.844ZM350.396 533.416C351.224 533.272 352.424 533.032 353.648 532.78L353.708 533.572C352.58 533.812 351.452 534.064 350.552 534.256L350.396 533.416ZM358.64 524.944H359.456C359.456 530.296 359.84 534.868 360.62 534.904C360.8 534.904 360.944 534.232 361.016 533.104C361.16 533.284 361.484 533.5 361.628 533.572C361.4 535.456 360.968 535.948 360.584 535.936C359.012 535.912 358.736 531.124 358.64 524.944ZM369.608 528.364H370.424V533.248H369.608V528.364ZM367.724 531.004H372.5V531.7H367.724V531.004ZM366.344 532.852H373.64V533.608H366.344V532.852ZM367.196 529.144H372.512V529.876H368.024V535.948H367.196V529.144ZM372.116 529.144H372.968V534.988C372.968 535.432 372.872 535.684 372.548 535.804C372.236 535.948 371.744 535.96 370.988 535.96C370.952 535.732 370.808 535.384 370.688 535.168C371.24 535.192 371.756 535.18 371.912 535.18C372.068 535.168 372.116 535.132 372.116 534.988V529.144ZM372.032 525.1L372.716 525.748C371.42 526.072 369.56 526.3 367.988 526.42C367.952 526.24 367.832 525.94 367.748 525.748C369.26 525.628 371.024 525.364 372.032 525.1ZM367.652 525.556L368.54 525.736C368.228 526.9 367.736 528.088 367.196 528.844C367.016 528.712 366.62 528.496 366.404 528.4C366.968 527.68 367.4 526.612 367.652 525.556ZM369.272 526.66L370.028 526.468C370.304 526.972 370.52 527.656 370.592 528.112L369.8 528.34C369.74 527.884 369.524 527.176 369.272 526.66ZM371.54 526.42L372.272 526.12C372.788 526.816 373.304 527.752 373.532 528.376L372.752 528.724C372.548 528.1 372.032 527.128 371.54 526.42ZM364.292 525.964H365.144V535.984H364.292V525.964ZM362.528 528.4H366.608V529.228H362.528V528.4ZM364.28 528.724L364.832 528.928C364.448 530.596 363.644 532.732 362.852 533.86C362.756 533.608 362.54 533.248 362.384 533.044C363.128 532.06 363.932 530.188 364.28 528.724ZM365.948 525.184L366.632 525.82C365.6 526.264 364.052 526.6 362.732 526.792C362.696 526.6 362.576 526.312 362.468 526.132C363.728 525.916 365.156 525.568 365.948 525.184ZM365.108 529.78C365.396 530.032 366.452 531.16 366.692 531.448L366.164 532.12C365.9 531.664 365.036 530.536 364.7 530.14L365.108 529.78Z" fill="white"/>
<path d="M288.008 558.552L290.12 559.08C288.608 562.704 286.52 567.192 284.744 570.096L283.088 569.568C284.792 566.616 286.88 561.936 288.008 558.552ZM280.136 569.016C284.528 568.872 291.512 568.584 297.944 568.272L297.896 570C291.608 570.36 284.888 570.72 280.376 570.912L280.136 569.016ZM292.616 563.808L294.344 563.016C296.528 565.536 299 568.872 300.2 571.056L298.376 572.04C297.248 569.856 294.752 566.352 292.616 563.808ZM285.584 550.56L287.576 551.112C285.968 554.976 283.448 558.648 280.904 561.024C280.52 560.664 279.68 560.016 279.176 559.728C281.816 557.568 284.192 554.112 285.584 550.56ZM294.176 550.536C295.76 553.68 298.784 557.472 300.992 559.464C300.512 559.848 299.84 560.544 299.48 561C297.248 558.72 294.248 554.64 292.4 551.28L294.176 550.536ZM304.112 551.4H322.208V553.128H304.112V551.4ZM304.256 555.648H318.728V557.256H304.256V555.648ZM321.488 551.4H323.288V569.232C323.288 570.48 323.048 571.104 322.208 571.44C321.368 571.752 319.856 571.776 317.72 571.776C317.624 571.224 317.36 570.336 317.072 569.808C318.752 569.856 320.384 569.856 320.888 569.832C321.344 569.808 321.488 569.688 321.488 569.232V551.4ZM305.792 559.848H307.544V569.304H305.792V559.848ZM307.232 559.848H317.072V567.528H307.232V565.944H315.296V561.456H307.232V559.848ZM334.736 569.304H346.328V570.96H334.736V569.304ZM333.92 552.264H342.728V553.872H333.92V552.264ZM335 549.768L337.016 550.176C335.216 553.296 332.336 556.56 328.16 559.032C327.896 558.576 327.296 557.952 326.888 557.64C330.848 555.48 333.608 552.384 335 549.768ZM342.128 552.264H342.464L342.8 552.168L344 552.816C341.12 560.064 334.352 564.888 327.824 567C327.608 566.52 327.152 565.776 326.768 565.392C332.984 563.592 339.632 558.888 342.128 552.576V552.264ZM330.92 556.536L332.264 555.384C334.16 556.68 336.464 558.6 337.568 559.968L336.104 561.264C335.096 559.896 332.816 557.88 330.92 556.536ZM345.44 561.72H347.288V571.968H345.44V561.72ZM335.552 561.72H346.352V563.376H335.552V571.92H333.752V563.136L335.192 561.72H335.552ZM365.216 556.728H366.848V566.496H365.216V556.728ZM361.448 562.008H371V563.4H361.448V562.008ZM358.688 565.704H373.28V567.216H358.688V565.704ZM360.392 558.288H371.024V559.752H362.048V571.896H360.392V558.288ZM370.232 558.288H371.936V569.976C371.936 570.864 371.744 571.368 371.096 571.608C370.472 571.896 369.488 571.92 367.976 571.92C367.904 571.464 367.616 570.768 367.376 570.336C368.48 570.384 369.512 570.36 369.824 570.36C370.136 570.336 370.232 570.264 370.232 569.976V558.288ZM370.064 550.2L371.432 551.496C368.84 552.144 365.12 552.6 361.976 552.84C361.904 552.48 361.664 551.88 361.496 551.496C364.52 551.256 368.048 550.728 370.064 550.2ZM361.304 551.112L363.08 551.472C362.456 553.8 361.472 556.176 360.392 557.688C360.032 557.424 359.24 556.992 358.808 556.8C359.936 555.36 360.8 553.224 361.304 551.112ZM364.544 553.32L366.056 552.936C366.608 553.944 367.04 555.312 367.184 556.224L365.6 556.68C365.48 555.768 365.048 554.352 364.544 553.32ZM369.08 552.84L370.544 552.24C371.576 553.632 372.608 555.504 373.064 556.752L371.504 557.448C371.096 556.2 370.064 554.256 369.08 552.84ZM354.584 551.928H356.288V571.968H354.584V551.928ZM351.056 556.8H359.216V558.456H351.056V556.8ZM354.56 557.448L355.664 557.856C354.896 561.192 353.288 565.464 351.704 567.72C351.512 567.216 351.08 566.496 350.768 566.088C352.256 564.12 353.864 560.376 354.56 557.448ZM357.896 550.368L359.264 551.64C357.2 552.528 354.104 553.2 351.464 553.584C351.392 553.2 351.152 552.624 350.936 552.264C353.456 551.832 356.312 551.136 357.896 550.368ZM356.216 559.56C356.792 560.064 358.904 562.32 359.384 562.896L358.328 564.24C357.8 563.328 356.072 561.072 355.4 560.28L356.216 559.56Z" fill="white"/>
<defs>
<radialGradient id="paint0_radial_884_58671" cx="0" cy="0" r="1" gradientUnits="userSpaceOnUse" gradientTransform="translate(195 422) rotate(90) scale(422 195)">
<stop stop-color="#0F2B52"/>
<stop offset="1" stop-color="#0F0F31"/>
</radialGradient>
<radialGradient id="paint1_radial_884_58671" cx="0" cy="0" r="1" gradientUnits="userSpaceOnUse" gradientTransform="translate(195 618) rotate(90) scale(30 180)">
<stop stop-color="#0F2B52"/>
<stop offset="1" stop-color="#0F0F31"/>
</radialGradient>
<radialGradient id="paint2_radial_884_58671" cx="0" cy="0" r="1" gradientUnits="userSpaceOnUse" gradientTransform="translate(195 741.5) rotate(90) scale(85.5 180)">
<stop stop-color="#0F2B52"/>
<stop offset="1" stop-color="#0F0F31"/>
</radialGradient>
<clipPath id="clip0_884_58671">
<rect width="36" height="36" fill="white" transform="translate(40 796)"/>
</clipPath>
<clipPath id="clip1_884_58671">
<rect width="36" height="36" fill="white" transform="translate(84 796)"/>
</clipPath>
<clipPath id="clip2_884_58671">
<rect width="80" height="36" fill="white" transform="translate(270 796)"/>
</clipPath>
</defs>
</svg>
