<svg width="93" height="32" viewBox="0 0 93 32" fill="none" xmlns="http://www.w3.org/2000/svg">
<g clip-path="url(#clip0_359_10718)">
<path d="M88 0H5.5C2.73858 0 0.5 2.23858 0.5 5V27C0.5 29.7614 2.73858 32 5.5 32H88C90.7614 32 93 29.7614 93 27V5C93 2.23858 90.7614 0 88 0Z" fill="black"/>
<path fill-rule="evenodd" clip-rule="evenodd" d="M49.8535 11.3215C49.264 11.3215 48.767 11.1155 48.374 10.7095C48.1804 10.5124 48.0279 10.2789 47.9253 10.0224C47.8228 9.76595 47.7722 9.49165 47.7765 9.21546C47.7765 8.62296 47.978 8.12096 48.374 7.72296C48.7655 7.31746 49.2625 7.11096 49.852 7.11096C50.435 7.11096 50.9315 7.31746 51.331 7.72346C51.7275 8.13396 51.9285 8.63596 51.9285 9.21546C51.922 9.80996 51.721 10.3115 51.331 10.708C50.94 11.117 50.443 11.3215 49.8535 11.3215ZM32.3145 11.3215C31.738 11.3215 31.2375 11.1185 30.8285 10.7175C30.4225 10.318 30.2165 9.81296 30.2165 9.21746C30.2165 8.62146 30.4225 8.11646 30.8285 7.71696C31.2295 7.31546 31.73 7.11246 32.3145 7.11246C32.6001 7.11209 32.8827 7.17082 33.1445 7.28496C33.4055 7.39696 33.6185 7.54946 33.776 7.73596L33.8145 7.78346L33.3745 8.21546L33.3295 8.16146C33.081 7.86646 32.748 7.72146 32.308 7.72146C31.915 7.72146 31.5725 7.86146 31.2895 8.13746C31.0055 8.41496 30.861 8.77896 30.861 9.21896C30.861 9.65896 31.006 10.0225 31.2895 10.3005C31.5725 10.5765 31.9145 10.716 32.308 10.716C32.727 10.716 33.079 10.576 33.3535 10.3005C33.516 10.138 33.6165 9.91046 33.6525 9.62296H32.241V9.01596H34.258L34.266 9.07096C34.281 9.17346 34.2955 9.27896 34.2955 9.37596C34.2955 9.93646 34.1265 10.3895 33.792 10.724C33.412 11.1205 32.915 11.3215 32.3145 11.3215ZM55.0125 11.2355H55.6345V7.19896H55.006V9.55346L55.022 10.1005L53.231 7.22946L53.2115 7.19896H52.502V11.234H53.124V8.73646L53.1075 8.18746L55.0125 11.2355ZM45.178 11.2355H44.55V7.80596H43.457V7.19896H46.271V7.80596H45.178V11.2355ZM42.316 11.2355H42.9445V7.19896H42.316V11.2355ZM39.4125 11.2355H38.784V7.80596H37.691V7.19896H40.5055V7.80596H39.4125V11.2355ZM34.883 11.229H37.293V10.622H35.513V9.51446H37.1195V8.91346H35.5135V7.80596H37.293V7.19896H34.883V11.229ZM48.8355 10.292C48.9675 10.4281 49.1259 10.5358 49.3011 10.6085C49.4762 10.6811 49.6644 10.7172 49.854 10.7145C50.2615 10.7145 50.5945 10.5765 50.872 10.292C51.148 10.016 51.2875 9.65396 51.2875 9.21696C51.2875 8.78046 51.148 8.41696 50.8735 8.14196C50.7415 8.00608 50.5831 7.89858 50.408 7.82601C50.233 7.75345 50.045 7.71737 49.8555 7.71996C49.448 7.71996 49.1155 7.85796 48.839 8.14196C48.563 8.41796 48.4235 8.78046 48.4235 9.21696C48.4235 9.65396 48.561 10.0175 48.8355 10.292ZM44.9395 19.642C44.9395 18.0365 46.1835 16.872 47.718 16.872C49.2525 16.872 50.4965 18.0365 50.4965 19.642C50.4965 21.2405 49.2525 22.4125 47.718 22.4125C46.1915 22.4125 44.9395 21.233 44.9395 19.642ZM46.156 19.6355C46.156 20.6195 46.8785 21.3145 47.718 21.3145C48.558 21.3145 49.282 20.626 49.28 19.6355C49.28 18.637 48.5575 17.9565 47.718 17.9565C46.88 17.9565 46.156 18.637 46.156 19.6355ZM38.8775 19.6425C38.8775 18.0365 40.1215 16.8725 41.656 16.8725C43.189 16.8725 44.4345 18.0365 44.4345 19.6425C44.4345 21.2405 43.1905 22.4125 41.656 22.4125C40.1295 22.4125 38.8775 21.2335 38.8775 19.6425ZM40.094 19.6355C40.094 20.6195 40.8165 21.3145 41.656 21.3145C42.496 21.3145 43.218 20.626 43.218 19.6355C43.218 18.637 42.4955 17.9565 41.656 17.9565C40.818 17.9565 40.094 18.637 40.094 19.6355ZM34.4435 18.8905V17.718C34.4435 17.718 34.4435 17.7065 34.442 17.705H38.4135C38.4575 17.9145 38.4785 18.1615 38.4785 18.436C38.4785 19.3175 38.2335 20.4105 37.4585 21.185C36.6985 21.974 35.7375 22.393 34.456 22.393C32.082 22.393 30.093 20.467 30.093 18.095C30.093 15.729 32.084 13.7965 34.456 13.7965C35.765 13.7965 36.699 14.3115 37.4005 14.9835L36.569 15.815C36.064 15.344 35.3835 14.975 34.4495 14.975C32.7205 14.975 31.368 16.372 31.368 18.1015C31.368 19.8305 32.7205 21.227 34.45 21.227C35.572 21.227 36.2085 20.779 36.621 20.3665C36.9535 20.0335 37.171 19.548 37.2575 18.8905H34.4435ZM61.574 16.8655C63.013 16.8655 63.7145 18.0085 63.9465 18.6305C63.9465 18.6305 64.0765 18.9405 64.0765 18.939L60.3725 20.474C60.6615 21.0305 61.097 21.313 61.7185 21.313C62.334 21.313 62.7675 21.0095 63.0795 20.547L64.0195 21.177C63.716 21.6315 62.979 22.406 61.712 22.406C60.1355 22.406 58.963 21.191 58.963 19.636C58.963 17.9875 60.1485 16.8655 61.574 16.8655ZM61.6165 17.942C61.001 17.942 60.1405 18.486 60.17 19.556L62.6445 18.528C62.5065 18.181 62.102 17.942 61.6165 17.942ZM58.377 22.2405H57.161V14.102H58.377V22.2405ZM55.12 17.4875H55.1705V17.031H56.32V22.0015C56.32 24.0495 55.112 24.889 53.686 24.889C52.348 24.889 51.538 23.984 51.234 23.254L52.2915 22.812C52.4795 23.26 52.9425 23.796 53.688 23.796C54.5985 23.796 55.164 23.226 55.164 22.169V21.771H55.12C54.8455 22.104 54.316 22.401 53.6585 22.401C52.27 22.401 51.0035 21.1995 51.0035 19.644C51.0035 18.082 52.2765 16.8655 53.6585 16.8655C54.3245 16.8655 54.8455 17.161 55.12 17.4875ZM52.2255 19.644C52.2255 20.6135 52.927 21.315 53.767 21.315C54.6 21.315 55.251 20.6135 55.243 19.644C55.243 18.674 54.598 17.9585 53.767 17.9585C52.927 17.9585 52.2255 18.667 52.2255 19.644ZM66.733 14.102H69.6415C70.994 14.102 72.3125 15.0845 72.3125 16.6335C72.3125 18.1825 70.989 19.1585 69.643 19.1585H67.9495V22.2405H66.733V14.102ZM67.948 18.022H69.6775C70.582 18.022 71.103 17.2635 71.103 16.625C71.103 15.9805 70.5885 15.2285 69.6775 15.2285H67.948V18.022ZM75.0165 18.1015C75.3935 17.249 76.3045 16.8575 77.1875 16.8575C78.576 16.8575 79.6545 17.661 79.6545 19.1125V22.2305H78.482V21.6005H78.438C78.157 22.028 77.7075 22.3965 76.8905 22.3965C75.827 22.3965 74.872 21.695 74.872 20.602C74.872 19.4085 76.0525 18.772 77.217 18.772C77.7885 18.772 78.266 18.9605 78.4835 19.0835V18.9975C78.469 18.3255 77.8325 17.9485 77.2025 17.9485C76.7525 17.9485 76.327 18.1015 76.095 18.5495L75.0165 18.1015ZM76.08 20.62C76.08 21.12 76.637 21.315 77.035 21.315C77.3908 21.3116 77.7331 21.1789 77.9982 20.9416C78.2632 20.7043 78.4329 20.3787 78.4755 20.0255C78.157 19.8665 77.904 19.751 77.368 19.751C76.775 19.751 76.08 19.9895 76.08 20.62ZM82.535 20.5615L83.9315 17.0315H85.276L81.936 24.7085H80.6695L81.9065 21.966L79.7355 17.031H81.0445L82.491 20.561L82.535 20.5615ZM74.1995 22.2405H72.983V14.102H74.1995V22.2405Z" fill="white"/>
<path fill-rule="evenodd" clip-rule="evenodd" d="M10.147 7.6115C9.95848 7.8145 9.84998 8.12451 9.84998 8.53051V22.929C9.84998 23.335 9.95897 23.645 10.1535 23.84L10.2035 23.884L18.271 15.8165V15.6365L10.1975 7.5675L10.147 7.6115Z" fill="url(#paint0_linear_359_10718)"/>
<path fill-rule="evenodd" clip-rule="evenodd" d="M20.955 18.514L18.2645 15.8235V15.635L20.955 12.944L21.0135 12.98L24.1965 14.789C25.1075 15.302 25.1075 16.1495 24.1965 16.669L21.0135 18.478L20.955 18.514Z" fill="url(#paint1_linear_359_10718)"/>
<path fill-rule="evenodd" clip-rule="evenodd" d="M21.014 18.478L18.265 15.729L10.147 23.8465C10.4445 24.1645 10.943 24.2005 11.5 23.8905L21.014 18.478Z" fill="url(#paint2_linear_359_10718)"/>
<path fill-rule="evenodd" clip-rule="evenodd" d="M21.014 12.98L11.5 7.57501C10.943 7.25701 10.443 7.30101 10.147 7.61951L18.265 15.7285L21.014 12.98Z" fill="url(#paint3_linear_359_10718)"/>
<path opacity="0.2" d="M20.9549 18.4201L11.5059 23.7876C10.9784 24.0911 10.5074 24.0701 10.2039 23.7941L10.1534 23.8441L10.2034 23.8881C10.5074 24.1631 10.9784 24.1856 11.5059 23.8816L21.0199 18.4781L20.9549 18.4201Z" fill="black"/>
<path opacity="0.12" d="M24.1965 16.575L20.947 18.42L21.0055 18.478L24.188 16.669C24.6445 16.409 24.8685 16.068 24.8685 15.729C24.841 16.0405 24.6085 16.336 24.1965 16.575Z" fill="black"/>
<path opacity="0.25" fill-rule="evenodd" clip-rule="evenodd" d="M11.5 7.66999L24.1965 14.883C24.609 15.115 24.8415 15.419 24.8765 15.729C24.8765 15.3895 24.653 15.0485 24.1965 14.789L11.5 7.57499C10.589 7.05399 9.84998 7.48899 9.84998 8.52999V8.62399C9.84998 7.58149 10.589 7.15449 11.5 7.66899V7.66999Z" fill="white"/>
</g>
<defs>
<linearGradient id="paint0_linear_359_10718" x1="14.7275" y1="-2.2115" x2="1.80548" y2="1.231" gradientUnits="userSpaceOnUse">
<stop stop-color="#00A0FF"/>
<stop offset="0.007" stop-color="#00A1FF"/>
<stop offset="0.26" stop-color="#00BEFF"/>
<stop offset="0.512" stop-color="#00D2FF"/>
<stop offset="0.76" stop-color="#00DFFF"/>
<stop offset="1" stop-color="#00E3FF"/>
</linearGradient>
<linearGradient id="paint1_linear_359_10718" x1="25.3845" y1="9.09597" x2="9.62802" y2="9.09597" gradientUnits="userSpaceOnUse">
<stop stop-color="#FFE000"/>
<stop offset="0.409" stop-color="#FFBD00"/>
<stop offset="0.775" stop-color="#FFA500"/>
<stop offset="1" stop-color="#FF9C00"/>
</linearGradient>
<linearGradient id="paint2_linear_359_10718" x1="9.90647" y1="11.5135" x2="-0.467526" y2="28.9735" gradientUnits="userSpaceOnUse">
<stop stop-color="#FF3A44"/>
<stop offset="1" stop-color="#C31162"/>
</linearGradient>
<linearGradient id="paint3_linear_359_10718" x1="3.80797" y1="5.37101" x2="8.43547" y2="13.169" gradientUnits="userSpaceOnUse">
<stop stop-color="#32A071"/>
<stop offset="0.069" stop-color="#2DA771"/>
<stop offset="0.476" stop-color="#15CF74"/>
<stop offset="0.801" stop-color="#06E775"/>
<stop offset="1" stop-color="#00F076"/>
</linearGradient>
<clipPath id="clip0_359_10718">
<rect width="92.5" height="32" fill="white" transform="translate(0.5)"/>
</clipPath>
</defs>
</svg>
