<svg width="93" height="32" viewBox="0 0 93 32" fill="none" xmlns="http://www.w3.org/2000/svg">
<g clip-path="url(#clip0_359_10715)">
<path d="M87.5 0H5C2.23858 0 0 2.23858 0 5V27C0 29.7614 2.23858 32 5 32H87.5C90.2614 32 92.5 29.7614 92.5 27V5C92.5 2.23858 90.2614 0 87.5 0Z" fill="black"/>
<path fill-rule="evenodd" clip-rule="evenodd" d="M46.423 7.40748H45.813V11.702H46.423V7.40748ZM32.67 8.16998C32.4858 7.9754 32.2606 7.82414 32.0108 7.72713C31.761 7.63012 31.4928 7.58976 31.2255 7.60898H29.7475V11.702H31.226C32.445 11.702 33.1515 10.9505 33.1515 9.64298C33.1853 9.37713 33.1596 9.10709 33.0763 8.85236C32.9931 8.59763 32.8543 8.36457 32.67 8.16998ZM31.155 11.123H30.3835V8.18748H31.155C31.345 8.17686 31.535 8.20841 31.7114 8.27987C31.8878 8.35133 32.0462 8.46093 32.1752 8.60081C32.3042 8.74069 32.4007 8.90739 32.4578 9.08895C32.5148 9.27052 32.5309 9.46245 32.505 9.65098C32.533 9.84027 32.5183 10.0334 32.4622 10.2163C32.406 10.3993 32.3098 10.5673 32.1804 10.7084C32.0511 10.8494 31.892 10.9598 31.7146 11.0315C31.5372 11.1032 31.346 11.1345 31.155 11.123ZM34.554 8.77348C34.3223 8.9173 34.1354 9.12298 34.0144 9.36735C33.8934 9.61171 33.843 9.88503 33.869 10.1565C33.8491 10.3598 33.8719 10.5649 33.936 10.7589C34.0001 10.9528 34.1041 11.1311 34.2413 11.2825C34.3785 11.4338 34.5458 11.5547 34.7326 11.6374C34.9193 11.7202 35.1213 11.763 35.3255 11.763C35.5298 11.763 35.7318 11.7202 35.9185 11.6374C36.1052 11.5547 36.2726 11.4338 36.4097 11.2825C36.5469 11.1311 36.6509 10.9528 36.715 10.7589C36.7792 10.5649 36.802 10.3598 36.782 10.1565C36.8081 9.88504 36.7579 9.6117 36.6369 9.36731C36.5159 9.12292 36.329 8.91721 36.0973 8.77339C35.8656 8.62957 35.5984 8.55337 35.3257 8.55339C35.053 8.5534 34.7857 8.62964 34.554 8.77348ZM35.3265 9.09498C35.8545 9.09498 36.155 9.48698 36.155 10.1565C36.155 10.8285 35.8545 11.2195 35.3265 11.2195C34.7965 11.2195 34.4985 10.831 34.4985 10.1565C34.4985 9.48648 34.7965 9.09498 35.3265 9.09498ZM40.0235 11.7015H40.6555L41.5035 8.61298H40.894L40.3435 10.97H40.2955L39.6605 8.61298H39.0755L38.4405 10.97H38.395L37.8415 8.61298H37.2235L38.0745 11.7015H38.701L39.3365 9.42648H39.385L40.0235 11.7015ZM42.22 8.61298H42.807V9.10398H42.852C42.9294 8.92779 43.0598 8.78012 43.2251 8.68154C43.3903 8.58295 43.5822 8.53836 43.774 8.55398C43.9243 8.54278 44.0751 8.5655 44.2153 8.62046C44.3556 8.67542 44.4817 8.7612 44.5844 8.87148C44.687 8.98175 44.7635 9.11369 44.8083 9.25753C44.8531 9.40137 44.8649 9.55344 44.843 9.70248V11.7015H44.2335V9.85548C44.2335 9.35898 44.018 9.11198 43.567 9.11198C43.465 9.10722 43.3631 9.12459 43.2684 9.1629C43.1736 9.20122 43.0883 9.25956 43.0183 9.33394C42.9482 9.40831 42.8951 9.49696 42.8625 9.5938C42.8299 9.69064 42.8187 9.79339 42.8295 9.89498V11.702H42.22V8.61298ZM47.955 8.77348C47.7234 8.91726 47.5366 9.12287 47.4155 9.36713C47.2945 9.6114 47.2441 9.88461 47.27 10.156C47.2505 10.3591 47.2736 10.564 47.3379 10.7576C47.4022 10.9513 47.5062 11.1293 47.6434 11.2803C47.7806 11.4314 47.9478 11.5521 48.1344 11.6346C48.321 11.7172 48.5227 11.7599 48.7268 11.7599C48.9308 11.7599 49.1326 11.7172 49.3191 11.6346C49.5057 11.5521 49.673 11.4314 49.8101 11.2803C49.9473 11.1293 50.0514 10.9513 50.1157 10.7576C50.18 10.564 50.2031 10.3591 50.1835 10.156C50.2096 9.8845 50.1593 9.61114 50.0382 9.36675C49.9172 9.12235 49.7302 8.91666 49.4985 8.77289C49.2667 8.62911 48.9994 8.55298 48.7267 8.55309C48.4539 8.55319 48.1867 8.62953 47.955 8.77348ZM48.7275 9.09498C49.2555 9.09498 49.556 9.48698 49.556 10.1565C49.556 10.8285 49.2555 11.2195 48.7275 11.2195C48.1975 11.2195 47.8995 10.831 47.8995 10.1565C47.8995 9.48648 48.1975 9.09498 48.7275 9.09498ZM50.826 10.828C50.826 10.2725 51.24 9.95198 51.9745 9.90598L52.8115 9.85798V9.59148C52.8115 9.26498 52.5955 9.08098 52.179 9.08098C51.839 9.08098 51.603 9.20598 51.5355 9.42448H50.945C51.0075 8.89398 51.5065 8.55348 52.207 8.55348C52.9815 8.55348 53.418 8.93848 53.418 9.59148V11.7015H52.8315V11.2675H52.783C52.6852 11.4232 52.5478 11.5502 52.3848 11.6354C52.2219 11.7206 52.0392 11.761 51.8555 11.7525C51.7259 11.7658 51.595 11.7519 51.4711 11.7116C51.3472 11.6713 51.2331 11.6055 51.1361 11.5185C51.0392 11.4315 50.9615 11.3251 50.9081 11.2063C50.8547 11.0874 50.8267 10.9583 50.826 10.828ZM52.8115 10.5645V10.306L52.0575 10.3545C51.632 10.383 51.439 10.5275 51.439 10.7995C51.439 11.078 51.6805 11.2395 52.012 11.2395C52.1091 11.2492 52.2072 11.2394 52.3004 11.2105C52.3937 11.1816 52.4801 11.1342 52.5547 11.0713C52.6293 11.0083 52.6904 10.931 52.7345 10.8439C52.7787 10.7569 52.8048 10.6619 52.8115 10.5645ZM55.501 8.56198C54.721 8.56198 54.219 9.17998 54.219 10.156C54.219 11.1345 54.7155 11.753 55.501 11.753C55.6965 11.7602 55.8902 11.7138 56.0612 11.6188C56.2322 11.5238 56.3739 11.3838 56.471 11.214H56.5195V11.702H57.1035V7.40698H56.494V9.10398H56.4485C56.3583 8.93304 56.2213 8.79131 56.0535 8.69533C55.8857 8.59936 55.6941 8.55311 55.501 8.56198ZM55.6745 11.2055C55.158 11.2055 54.8495 10.8115 54.8495 10.156C54.8495 9.50598 55.1615 9.10948 55.6745 9.10948C56.185 9.10948 56.506 9.51498 56.506 10.159C56.506 10.8055 56.1885 11.2055 55.6745 11.2055ZM59.6255 10.156C59.6063 9.95315 59.6297 9.74854 59.6942 9.55527C59.7587 9.36201 59.8628 9.18433 59.9999 9.03364C60.137 8.88294 60.3041 8.76255 60.4905 8.68016C60.6768 8.59778 60.8783 8.55523 61.082 8.55523C61.2858 8.55523 61.4873 8.59778 61.6736 8.68016C61.8599 8.76255 62.027 8.88294 62.1641 9.03364C62.3012 9.18433 62.4054 9.36201 62.4698 9.55527C62.5343 9.74854 62.5577 9.95315 62.5385 10.156C62.5577 10.3588 62.5343 10.5634 62.4698 10.7567C62.4054 10.95 62.3012 11.1276 62.1641 11.2783C62.027 11.429 61.8599 11.5494 61.6736 11.6318C61.4873 11.7142 61.2858 11.7567 61.082 11.7567C60.8783 11.7567 60.6768 11.7142 60.4905 11.6318C60.3041 11.5494 60.137 11.429 59.9999 11.2783C59.8628 11.1276 59.7587 10.95 59.6942 10.7567C59.6297 10.5634 59.6063 10.3588 59.6255 10.156ZM61.911 10.156C61.911 9.48648 61.6105 9.09498 61.0825 9.09498C60.5525 9.09498 60.2545 9.48648 60.2545 10.156C60.2545 10.831 60.5525 11.2195 61.0825 11.2195C61.6105 11.2195 61.911 10.8285 61.911 10.156ZM63.356 8.61298H63.943V9.10348H63.9885C64.0659 8.92729 64.1963 8.77962 64.3616 8.68104C64.5268 8.58245 64.7187 8.53786 64.9105 8.55348C65.0608 8.54228 65.2116 8.565 65.3519 8.61996C65.4921 8.67492 65.6182 8.7607 65.7209 8.87098C65.8235 8.98125 65.9 9.11319 65.9448 9.25703C65.9896 9.40087 66.0014 9.55294 65.9795 9.70198V11.702H65.37V9.85498C65.37 9.35898 65.154 9.11198 64.7035 9.11198C64.6016 9.10749 64.4999 9.12502 64.4053 9.16339C64.3107 9.20176 64.2255 9.26006 64.1556 9.33432C64.0856 9.40859 64.0324 9.49707 63.9997 9.59373C63.967 9.6904 63.9555 9.79298 63.966 9.89448V11.7015H63.356V8.61298ZM69.424 8.62748V7.84448H68.814V8.62748H68.3235V9.14048H68.814V10.885C68.814 11.4805 69.0835 11.719 69.7615 11.719C69.8727 11.7179 69.9836 11.7075 70.093 11.688V11.18C70.0159 11.1891 69.9382 11.1938 69.8605 11.194C69.5575 11.194 69.424 11.0525 69.424 10.729V9.14098H70.093V8.62748H69.424ZM70.925 7.40748H71.5295V9.10948H71.5775C71.6585 8.93149 71.7924 8.78282 71.961 8.68376C72.1296 8.5847 72.3246 8.54008 72.5195 8.55598C72.669 8.54797 72.8184 8.57302 72.9571 8.62934C73.0957 8.68566 73.2203 8.77187 73.3219 8.88183C73.4234 8.99179 73.4995 9.12279 73.5446 9.2655C73.5898 9.40821 73.6029 9.55912 73.583 9.70748V11.702H72.973V9.85798C72.973 9.36498 72.743 9.11498 72.3125 9.11498C72.2078 9.10642 72.1024 9.12084 72.0038 9.15724C71.9051 9.19363 71.8157 9.25112 71.7416 9.32569C71.6675 9.40026 71.6106 9.49011 71.5748 9.58896C71.539 9.6878 71.5253 9.79327 71.5345 9.89798V11.702H70.925V7.40748ZM77.138 10.8675C77.0553 11.1499 76.8758 11.3941 76.6311 11.5576C76.3864 11.721 76.0921 11.7932 75.7995 11.7615C75.5961 11.7666 75.394 11.7275 75.2071 11.6468C75.0203 11.5661 74.8533 11.4457 74.7176 11.2941C74.5819 11.1424 74.4808 10.963 74.4213 10.7684C74.3618 10.5738 74.3453 10.3686 74.373 10.167C74.3459 9.96473 74.3626 9.75902 74.422 9.56378C74.4813 9.36854 74.5819 9.18832 74.7169 9.03533C74.8519 8.88234 75.0182 8.76014 75.2046 8.67701C75.3909 8.59387 75.593 8.55175 75.797 8.55348C76.6565 8.55348 77.175 9.14048 77.175 10.1105V10.323H74.994V10.3575C74.9844 10.4708 74.9986 10.585 75.0357 10.6925C75.0728 10.8001 75.1319 10.8987 75.2094 10.982C75.2868 11.0654 75.3809 11.1316 75.4854 11.1765C75.59 11.2213 75.7028 11.2438 75.8165 11.2425C75.9623 11.2599 76.1101 11.2336 76.2409 11.1668C76.3717 11.1 76.4796 10.9958 76.551 10.8675H77.138ZM74.994 9.87248H76.554C76.5617 9.7688 76.5476 9.66466 76.5127 9.56675C76.4777 9.46884 76.4227 9.37933 76.351 9.30398C76.2794 9.22863 76.1928 9.1691 76.0968 9.12923C76.0008 9.08937 75.8975 9.07003 75.7935 9.07248C75.6881 9.07114 75.5835 9.09092 75.4859 9.13065C75.3882 9.17038 75.2995 9.22927 75.225 9.30383C75.1505 9.37839 75.0917 9.46713 75.052 9.56479C75.0123 9.66246 74.9926 9.76708 74.994 9.87248ZM23.886 12.5025C23.3982 12.8024 22.9941 13.2208 22.7115 13.7189C22.4289 14.2169 22.2768 14.7784 22.2695 15.351C22.2703 15.9949 22.4606 16.6244 22.8167 17.1609C23.1728 17.6974 23.6789 18.1172 24.272 18.368C24.0389 19.1256 23.6874 19.8416 23.2305 20.4895C22.617 21.407 21.974 22.3035 20.953 22.3205C20.4675 22.3315 20.1395 22.192 19.798 22.0465C19.442 21.8945 19.071 21.7365 18.49 21.7365C17.874 21.7365 17.486 21.8995 17.112 22.057C16.7885 22.193 16.476 22.325 16.0345 22.343C15.0625 22.379 14.3195 21.3635 13.6835 20.4545C12.413 18.598 11.4235 15.2225 12.75 12.926C13.0563 12.3757 13.4998 11.9141 14.0375 11.5863C14.5752 11.2584 15.1886 11.0753 15.818 11.055C16.3695 11.0435 16.8985 11.256 17.3625 11.4425C17.7175 11.585 18.034 11.712 18.293 11.712C18.521 11.712 18.829 11.59 19.188 11.4475C19.753 11.2235 20.444 10.949 21.1485 11.0225C21.6885 11.0394 22.217 11.182 22.6922 11.4389C23.1674 11.6958 23.5762 12.06 23.886 12.5025ZM54.4685 20.165C54.563 21.01 55.3835 21.564 56.505 21.564C57.5795 21.564 58.352 21.0095 58.352 20.248C58.352 19.587 57.886 19.191 56.782 18.9195L55.678 18.6535C54.114 18.276 53.388 17.5445 53.388 16.3575C53.388 14.8875 54.669 13.8785 56.4875 13.8785C58.2875 13.8785 59.521 14.888 59.5625 16.3575H58.276C58.199 15.5075 57.496 14.9945 56.4695 14.9945C55.4425 14.9945 54.74 15.5135 54.74 16.2695C54.74 16.8715 55.1885 17.2255 56.2865 17.497L57.225 17.727C58.9725 18.1405 59.6985 18.8425 59.6985 20.0885C59.6985 21.682 58.4295 22.68 56.4105 22.68C54.5215 22.68 53.246 21.7055 53.1635 20.165H54.4685ZM31.049 20.236H34.296L35.075 22.5385H36.4735L33.3985 14.0205H31.9695L28.8945 22.5385H30.2695L31.049 20.236ZM33.9585 19.1735H31.385L32.6545 15.437H32.6895L33.9585 19.1735ZM40.5235 22.6035C42.0825 22.6035 43.1155 21.3635 43.1155 19.4335C43.1155 17.5085 42.0765 16.263 40.5005 16.263C40.1024 16.2501 39.7083 16.3455 39.3601 16.5388C39.0119 16.7322 38.7226 17.0163 38.523 17.361H38.5V16.328H37.2665V24.5925H38.5415V21.5165H38.5705C38.7613 21.8628 39.0458 22.1484 39.3914 22.3406C39.7369 22.5328 40.1297 22.6237 40.5245 22.603L40.5235 22.6035ZM40.1645 17.3495C41.1555 17.3495 41.8055 18.176 41.8055 19.4335C41.8055 20.702 41.1555 21.5225 40.1645 21.5225C39.1905 21.5225 38.5355 20.6845 38.5355 19.4335C38.5355 18.1935 39.1905 17.3495 40.1645 17.3495ZM49.9495 19.4335C49.9495 21.3635 48.9165 22.6035 47.358 22.6035C46.9631 22.6241 46.5704 22.5331 46.2248 22.3409C45.8792 22.1486 45.5947 21.8629 45.404 21.5165H45.374V24.5925H44.1V16.3275H45.334V17.361H45.3575C45.5571 17.0163 45.8464 16.7322 46.1946 16.5388C46.5428 16.3455 46.9369 16.2501 47.335 16.263C48.911 16.263 49.95 17.509 49.95 19.433L49.9495 19.4335ZM48.639 19.4335C48.639 18.176 47.989 17.3495 46.998 17.3495C46.024 17.3495 45.3685 18.1935 45.3685 19.4335C45.3685 20.6845 46.0235 21.5225 46.998 21.5225C47.989 21.5225 48.639 20.7025 48.639 19.4335ZM62.449 16.3285V14.8585H61.168V16.3285H60.2655V17.3375H61.168V20.897C61.168 22.1015 61.6585 22.5735 62.916 22.5735C63.1535 22.5785 63.3905 22.5585 63.624 22.5145V21.511C63.4848 21.5283 63.3448 21.5384 63.2045 21.541C62.6855 21.541 62.449 21.293 62.449 20.761V17.3375H63.63V16.328H62.449V16.3285ZM67.259 16.2515C65.4645 16.2515 64.3135 17.4795 64.3135 19.4335C64.3135 21.393 65.453 22.615 67.259 22.615C69.0655 22.615 70.205 21.393 70.205 19.4335C70.205 17.4795 69.0595 16.2515 67.259 16.2515ZM67.2585 17.3015C68.2915 17.3015 68.906 18.093 68.906 19.4335C68.906 20.779 68.2915 21.564 67.2585 21.564C66.226 21.564 65.612 20.779 65.612 19.4335C65.612 18.099 66.226 17.3015 67.2585 17.3015ZM72.472 16.3285H71.256V22.5385H72.5305V18.855C72.5096 18.6708 72.5288 18.4843 72.5867 18.3083C72.6446 18.1322 72.74 17.9708 72.8662 17.835C72.9924 17.6993 73.1465 17.5924 73.3178 17.5218C73.4892 17.4512 73.6738 17.4185 73.859 17.426C74.053 17.4205 74.2465 17.4465 74.432 17.503V16.311C74.2886 16.2789 74.142 16.263 73.995 16.2635C73.6551 16.2505 73.3211 16.355 73.0491 16.5593C72.7771 16.7637 72.5837 17.0554 72.5015 17.3855H72.472V16.3285ZM77.634 22.615C79.039 22.615 80.1365 21.8415 80.308 20.714H79.0975C78.9844 20.9946 78.7837 21.2311 78.5254 21.3885C78.267 21.5459 77.9647 21.6157 77.6635 21.5875C77.4342 21.596 77.2057 21.5556 76.9933 21.469C76.7808 21.3823 76.5892 21.2515 76.4312 21.0851C76.2732 20.9187 76.1524 20.7206 76.0768 20.504C76.0013 20.2873 75.9727 20.057 75.993 19.8285V19.7515H80.379V19.315C80.379 17.432 79.2985 16.2515 77.5805 16.2515C75.8335 16.2515 74.706 17.515 74.706 19.463C74.706 21.405 75.8275 22.615 77.634 22.615ZM79.104 18.8605H75.999C75.9986 18.6529 76.0392 18.4473 76.1186 18.2556C76.198 18.0638 76.3145 17.8896 76.4615 17.7431C76.6086 17.5966 76.7831 17.4806 76.9752 17.4019C77.1672 17.3232 77.373 17.2833 77.5805 17.2845C77.7863 17.28 77.9908 17.318 78.1812 17.3963C78.3716 17.4746 78.5437 17.5914 78.6868 17.7394C78.8299 17.8874 78.9408 18.0634 79.0126 18.2564C79.0844 18.4493 79.1155 18.655 79.104 18.8605ZM21.1605 7.40748C21.227 8.27472 20.9527 9.13371 20.396 9.80198C20.1295 10.1335 19.7912 10.4001 19.4067 10.5819C19.0221 10.7637 18.6013 10.8559 18.176 10.8515C18.1489 10.4345 18.2042 10.0163 18.3388 9.62066C18.4734 9.22507 18.6847 8.85988 18.9605 8.54598C19.5246 7.90338 20.3101 7.49688 21.1605 7.40748Z" fill="white"/>
</g>
<defs>
<clipPath id="clip0_359_10715">
<rect width="92.5" height="32" fill="white"/>
</clipPath>
</defs>
</svg>
