<svg width="207" height="67" viewBox="0 0 207 67" fill="none" xmlns="http://www.w3.org/2000/svg">
<g filter="url(#filter0_d_321_7028)">
<path d="M4 0H18.4009V51.3495H39.6372C38.8972 52.068 38.274 52.9029 37.7677 53.8544C37.2614 54.8058 36.8524 55.7184 36.5408 56.5922C36.1903 57.6214 35.9079 58.6602 35.6937 59.7087L34.3208 60C34.4182 59.6505 34.4766 59.301 34.4961 58.9515C34.535 58.6019 34.5545 58.2816 34.5545 57.9903C34.5545 56.7087 34.1455 55.7573 33.3276 55.1359C32.5292 54.5146 31.3803 54.0874 29.8808 53.8544C28.3813 53.6408 26.5507 53.5534 24.3891 53.5922C22.2275 53.6116 19.7933 53.6214 17.0864 53.6214H4V52.5437C5.03211 52.5437 5.87923 52.4466 6.54134 52.2524C7.20345 52.0388 7.72924 51.7573 8.11872 51.4078C8.5082 51.0388 8.7711 50.6214 8.90741 50.1553C9.0632 49.6893 9.1411 49.1942 9.1411 48.6699V4.8932C9.1411 4.50485 9.0632 4.08738 8.90741 3.64078C8.7711 3.19417 8.5082 2.78641 8.11872 2.41748C7.74872 2.02913 7.23266 1.70874 6.57055 1.45631C5.90844 1.20388 5.05159 1.07767 4 1.07767V0Z" fill="#0F0F31"/>
<path d="M60.2016 53.6214H40.6303V52.5437C41.6819 52.5437 42.5388 52.4369 43.2009 52.2233C43.8825 51.9903 44.4083 51.6893 44.7783 51.3204C45.1677 50.9515 45.4306 50.5243 45.567 50.0388C45.7033 49.5534 45.7714 49.0388 45.7714 48.4951V16.7476C45.7714 16.3592 45.6935 15.9417 45.5377 15.4951C45.4014 15.0485 45.1385 14.6408 44.7491 14.2718C44.3791 13.8835 43.863 13.5631 43.2009 13.3107C42.5388 13.0583 41.6819 12.932 40.6303 12.932V11.8544H60.2016V12.932C59.1305 12.932 58.2542 13.0485 57.5726 13.2816C56.9105 13.4951 56.3847 13.7961 55.9952 14.1845C55.6252 14.5534 55.372 14.9806 55.2357 15.466C55.0994 15.9515 55.0313 16.466 55.0313 17.0097V48.4951C55.0313 48.8835 55.0897 49.3107 55.2065 49.7767C55.3428 50.2427 55.5863 50.6796 55.9368 51.0874C56.3068 51.4951 56.8326 51.8447 57.5142 52.1359C58.1958 52.4078 59.0916 52.5437 60.2016 52.5437V53.6214Z" fill="#0F0F31"/>
<path d="M64.9337 11.8544H79.5975L101.71 38.6505V16.7476C101.71 16.3592 101.632 15.9417 101.476 15.4951C101.34 15.0485 101.077 14.6408 100.688 14.2718C100.318 13.8835 99.8017 13.5631 99.1396 13.3107C98.4774 13.0583 97.6206 12.932 96.569 12.932V11.8544H109.509V12.932C108.438 12.932 107.572 13.0485 106.91 13.2816C106.248 13.4951 105.722 13.7961 105.332 14.1845C104.962 14.5534 104.709 14.9806 104.573 15.466C104.436 15.9515 104.368 16.466 104.368 17.0097V53.6214H101.71L72.7038 18.7282V48.4951C72.7038 48.8835 72.7622 49.3107 72.8791 49.7767C73.0154 50.2427 73.2588 50.6796 73.6093 51.0874C73.9793 51.4951 74.4954 51.8447 75.1575 52.1359C75.8391 52.4078 76.7349 52.5437 77.8449 52.5437V53.6214H64.9337V52.5437C65.9853 52.5437 66.8422 52.4369 67.5043 52.2233C68.1859 51.9903 68.7116 51.6893 69.0816 51.3204C69.4711 50.9515 69.734 50.5243 69.8703 50.0388C70.0067 49.5534 70.0748 49.0388 70.0748 48.4951V15.5534C69.6074 15.0291 69.179 14.6019 68.7895 14.2718C68.4001 13.9417 68.0009 13.6796 67.5919 13.4854C67.2024 13.2718 66.7935 13.1262 66.365 13.0485C65.9366 12.9709 65.4595 12.932 64.9337 12.932V11.8544Z" fill="#0F0F31"/>
<path d="M152.478 21.1165L151.164 21.1748C150.599 19.9515 149.859 18.8641 148.944 17.9126C148.048 16.9612 147.036 16.1553 145.906 15.4951C144.796 14.835 143.618 14.3398 142.372 14.0097C141.125 13.6602 139.889 13.4854 138.662 13.4854C137.182 13.4854 135.789 13.7767 134.485 14.3592C133.18 14.9417 131.982 15.7379 130.892 16.7476C129.801 17.7573 128.818 18.9417 127.941 20.301C127.085 21.6408 126.354 23.0777 125.751 24.6116C125.166 26.1262 124.718 27.699 124.407 29.3301C124.095 30.9612 123.94 32.5534 123.94 34.1068C123.94 35.6796 124.125 37.2233 124.495 38.7379C124.865 40.2524 125.39 41.699 126.072 43.0777C126.753 44.4369 127.591 45.6893 128.584 46.8349C129.577 47.9806 130.687 48.9806 131.914 49.8349C133.141 50.6699 134.485 51.3204 135.945 51.7864C137.406 52.2524 138.954 52.4854 140.59 52.4854C142.07 52.4854 143.374 52.3495 144.504 52.0777C145.633 51.7864 146.607 51.4272 147.425 51C148.262 50.5728 148.963 50.1068 149.528 49.6019C150.093 49.0777 150.56 48.5825 150.93 48.1165C151.3 47.6505 151.573 47.2427 151.748 46.8932C151.943 46.5243 152.089 46.2816 152.186 46.165L151.719 50.2718C151.213 50.9515 150.512 51.5825 149.616 52.165C148.739 52.7282 147.707 53.2233 146.519 53.6505C145.332 54.0971 144.007 54.4369 142.547 54.6699C141.106 54.9223 139.577 55.0485 137.961 55.0485C135.819 55.0485 133.735 54.8349 131.71 54.4078C129.704 53.9806 127.815 53.3689 126.043 52.5728C124.271 51.7767 122.645 50.7961 121.164 49.6311C119.704 48.4466 118.438 47.1165 117.367 45.6408C116.316 44.165 115.488 42.534 114.884 40.7476C114.28 38.9612 113.969 37.0485 113.949 35.0097C114.008 31.8641 114.553 29.0388 115.585 26.534C116.637 24.0097 118.029 21.8155 119.762 19.9515C121.515 18.068 123.55 16.5146 125.867 15.2913C128.185 14.0485 130.658 13.1262 133.287 12.5243C134.67 12.1942 136.257 11.9806 138.048 11.8835C139.84 11.7864 141.641 11.7379 143.452 11.7379C145.205 11.7379 146.851 11.7573 148.389 11.7961C149.947 11.835 151.252 11.8544 152.303 11.8544C152.089 12.767 151.933 13.5825 151.836 14.301C151.758 15 151.719 15.6602 151.719 16.2816C151.719 17.1553 151.787 17.9709 151.923 18.7282C152.06 19.466 152.245 20.2621 152.478 21.1165Z" fill="#0F0F31"/>
<path d="M157.649 32.7379C157.649 31.1262 157.873 29.4757 158.321 27.7864C158.769 26.0777 159.431 24.4369 160.307 22.8641C161.183 21.2718 162.264 19.7767 163.549 18.3786C164.854 16.9612 166.344 15.7282 168.019 14.6796C169.713 13.6311 171.602 12.8058 173.686 12.2039C175.769 11.5825 178.028 11.2718 180.462 11.2718C182.975 11.2718 185.282 11.5534 187.385 12.1165C189.508 12.6796 191.416 13.4563 193.111 14.4466C194.824 15.4369 196.324 16.6117 197.609 17.9709C198.914 19.3301 199.995 20.8058 200.852 22.3981C201.728 23.9709 202.38 25.6408 202.809 27.4078C203.257 29.1748 203.481 30.9515 203.481 32.7379C203.481 34.4466 203.257 36.1748 202.809 37.9223C202.38 39.6699 201.728 41.3592 200.852 42.9903C199.995 44.6214 198.914 46.1553 197.609 47.5922C196.324 49.0291 194.824 50.2816 193.111 51.3495C191.416 52.4175 189.508 53.2621 187.385 53.8835C185.282 54.5049 182.975 54.8155 180.462 54.8155C177.989 54.8155 175.711 54.5049 173.627 53.8835C171.543 53.2816 169.654 52.4466 167.96 51.3786C166.285 50.3107 164.805 49.0583 163.52 47.6214C162.235 46.1845 161.154 44.6505 160.278 43.0194C159.401 41.3883 158.739 39.699 158.291 37.9515C157.863 36.1845 157.649 34.4466 157.649 32.7379ZM167.697 32.6214C167.697 34.2718 167.785 35.9029 167.96 37.5146C168.155 39.1262 168.457 40.6699 168.866 42.1456C169.275 43.6019 169.8 44.9612 170.443 46.2233C171.105 47.466 171.904 48.5534 172.838 49.4854C173.773 50.4175 174.854 51.1553 176.081 51.699C177.308 52.2427 178.7 52.5243 180.258 52.5437C181.816 52.5437 183.228 52.2718 184.493 51.7282C185.759 51.165 186.879 50.4078 187.853 49.4563C188.826 48.5049 189.664 47.3883 190.365 46.1068C191.066 44.8252 191.65 43.466 192.118 42.0291C192.585 40.5728 192.926 39.068 193.14 37.5146C193.374 35.9417 193.51 34.4078 193.549 32.9126C193.549 31.3786 193.451 29.8349 193.257 28.2816C193.081 26.7282 192.78 25.2427 192.351 23.8252C191.942 22.3883 191.407 21.0485 190.745 19.8058C190.082 18.5631 189.274 17.4854 188.32 16.5728C187.366 15.6408 186.266 14.9126 185.019 14.3883C183.773 13.8641 182.351 13.6019 180.755 13.6019C179.197 13.6019 177.794 13.835 176.548 14.301C175.321 14.767 174.221 15.4272 173.247 16.2816C172.293 17.1359 171.465 18.1456 170.764 19.3107C170.083 20.4757 169.518 21.767 169.07 23.1845C168.622 24.6019 168.281 26.1068 168.048 27.699C167.834 29.2913 167.717 30.932 167.697 32.6214Z" fill="#0F0F31"/>
</g>
<defs>
<filter id="filter0_d_321_7028" x="0.883117" y="0" width="205.714" height="66.2338" filterUnits="userSpaceOnUse" color-interpolation-filters="sRGB">
<feFlood flood-opacity="0" result="BackgroundImageFix"/>
<feColorMatrix in="SourceAlpha" type="matrix" values="0 0 0 0 0 0 0 0 0 0 0 0 0 0 0 0 0 0 127 0" result="hardAlpha"/>
<feOffset dy="3.11688"/>
<feGaussianBlur stdDeviation="1.55844"/>
<feComposite in2="hardAlpha" operator="out"/>
<feColorMatrix type="matrix" values="0 0 0 0 0 0 0 0 0 0 0 0 0 0 0 0 0 0 0.25 0"/>
<feBlend mode="normal" in2="BackgroundImageFix" result="effect1_dropShadow_321_7028"/>
<feBlend mode="normal" in="SourceGraphic" in2="effect1_dropShadow_321_7028" result="shape"/>
</filter>
</defs>
</svg>
