<svg width="24" height="24" viewBox="0 0 24 24" fill="none" xmlns="http://www.w3.org/2000/svg">
<path d="M14.5781 9.22501V13.0359C14.5781 13.1344 14.5031 13.2094 14.4047 13.2094H13.7953C13.7344 13.2094 13.6828 13.1766 13.6547 13.1391L11.9063 10.7813V13.0406C11.9063 13.1391 11.8313 13.2141 11.7328 13.2141H11.1234C11.025 13.2141 10.95 13.1391 10.95 13.0406V9.2297C10.95 9.13126 11.025 9.05626 11.1234 9.05626H11.7281C11.7797 9.05626 11.8406 9.08438 11.8688 9.13126L13.6172 11.4891V9.2297C13.6172 9.13126 13.6922 9.05626 13.7906 9.05626H14.4C14.4984 9.05157 14.5781 9.13126 14.5781 9.22032V9.22501ZM10.1859 9.05157H9.57657C9.47813 9.05157 9.40313 9.12657 9.40313 9.22501V13.0359C9.40313 13.1344 9.47813 13.2094 9.57657 13.2094H10.1859C10.2844 13.2094 10.3594 13.1344 10.3594 13.0359V9.22501C10.3594 9.13595 10.2844 9.05157 10.1859 9.05157ZM8.71407 12.2438H7.04532V9.22501C7.04532 9.12657 6.97032 9.05157 6.87188 9.05157H6.26251C6.16407 9.05157 6.08907 9.12657 6.08907 9.22501V13.0359C6.08907 13.0828 6.10313 13.1203 6.13595 13.1531C6.16876 13.1813 6.20626 13.2 6.25313 13.2H8.70001C8.79845 13.2 8.87345 13.125 8.87345 13.0266V12.4172C8.87345 12.3281 8.79845 12.2438 8.70938 12.2438H8.71407ZM17.7938 9.05157H15.3422C15.2531 9.05157 15.1688 9.12657 15.1688 9.22501V13.0359C15.1688 13.125 15.2438 13.2094 15.3422 13.2094H17.7891C17.8875 13.2094 17.9625 13.1344 17.9625 13.0359V12.4219C17.9625 12.3234 17.8875 12.2484 17.7891 12.2484H16.125V11.6109H17.7891C17.8875 11.6109 17.9625 11.5359 17.9625 11.4375V10.8234C17.9625 10.725 17.8875 10.65 17.7891 10.65H16.125V10.0078H17.7891C17.8875 10.0078 17.9625 9.93282 17.9625 9.83438V9.22501C17.9578 9.13595 17.8828 9.05157 17.7891 9.05157H17.7938ZM24 4.37813V19.6594C23.9953 22.0594 22.0266 24.0047 19.6219 24H4.34063C1.94063 23.9953 -0.00467905 22.0219 8.45362e-06 19.6219V4.34063C0.00469595 1.94063 1.97813 -0.00467905 4.37813 8.45362e-06H19.6594C22.0594 0.00469595 24.0047 1.97345 24 4.37813ZM20.7 10.9453C20.7 7.03595 16.7766 3.85313 11.9625 3.85313C7.14845 3.85313 3.22501 7.03595 3.22501 10.9453C3.22501 14.4469 6.33282 17.3859 10.5328 17.9438C11.5547 18.1641 11.4375 18.5391 11.2078 19.9172C11.1703 20.1375 11.0297 20.7797 11.9625 20.3906C12.8953 20.0016 16.9922 17.4281 18.8297 15.3188C20.0953 13.9266 20.7 12.5156 20.7 10.9547V10.9453Z" fill="white"/>
</svg>
