<svg width="1343" height="978" viewBox="0 0 1343 978" fill="none" xmlns="http://www.w3.org/2000/svg">
<g filter="url(#filter0_d_321_8041)">
<rect x="72.8569" y="49" width="1181.21" height="816.107" rx="408.054" fill="url(#paint0_radial_321_8041)"/>
</g>
<ellipse cx="403.92" cy="452.977" rx="222.243" ry="222.243" fill="url(#paint1_linear_321_8041)"/>
<ellipse cx="403.919" cy="452.976" rx="190.494" ry="190.494" fill="white"/>
<g filter="url(#filter1_i_321_8041)">
<rect x="679.503" y="179.937" width="380.988" height="101.597" rx="50.7984" fill="url(#paint2_linear_321_8041)"/>
</g>
<g filter="url(#filter2_i_321_8041)">
<ellipse cx="736.651" cy="230.733" rx="38.0988" ry="38.0988" fill="white"/>
</g>
<g clip-path="url(#clip0_321_8041)">
<path fill-rule="evenodd" clip-rule="evenodd" d="M717.601 215.919C717.601 214.796 718.047 213.719 718.841 212.925C719.635 212.132 720.712 211.686 721.834 211.686H751.467C752.59 211.686 753.666 212.132 754.46 212.925C755.254 213.719 755.7 214.796 755.7 215.919V239.201C755.7 240.324 755.254 241.401 754.46 242.195C753.666 242.989 752.59 243.435 751.467 243.435H743V245.551H745.117C745.678 245.551 746.217 245.774 746.614 246.171C747.011 246.568 747.234 247.106 747.234 247.668C747.234 248.229 747.011 248.767 746.614 249.164C746.217 249.561 745.678 249.784 745.117 249.784H728.184C727.623 249.784 727.085 249.561 726.688 249.164C726.291 248.767 726.068 248.229 726.068 247.668C726.068 247.106 726.291 246.568 726.688 246.171C727.085 245.774 727.623 245.551 728.184 245.551H730.301V243.435H721.834C720.712 243.435 719.635 242.989 718.841 242.195C718.047 241.401 717.601 240.324 717.601 239.201V215.919ZM738.767 245.551V243.435H734.534V245.551H738.767Z" fill="#092C4C"/>
</g>
<path d="M810.232 234.857H837.503V238.266H810.232V234.857ZM810.28 228.855H840.816V244.267H810.28V240.378H835.103V232.696H810.28V228.855ZM820.891 230.968H826.412V244.411C826.412 246.188 826.94 246.476 829.869 246.476C831.214 246.476 837.263 246.476 838.992 246.476C841.392 246.476 841.872 245.707 842.16 241.626C843.361 242.443 845.521 243.163 847.01 243.451C846.338 249.308 844.705 250.845 839.472 250.845C837.935 250.845 830.781 250.845 829.341 250.845C822.715 250.845 820.891 249.452 820.891 244.411V230.968ZM807.399 228.855H812.921V246.38H807.399V228.855ZM806.247 207.634H841.872V211.859H806.247V207.634ZM809.944 219.109H819.451V222.229H809.944V219.109ZM809.032 223.91H819.451V227.031H809.032V223.91ZM828.621 223.91H839.136V227.031H828.621V223.91ZM828.621 219.109H838.031V222.229H828.621V219.109ZM821.179 209.314H826.796V227.559H821.179V209.314ZM802.982 213.635H845.377V223.478H840.048V217.476H808.072V223.478H802.982V213.635ZM871.496 205.953L876.489 207.105C875.049 209.842 873.273 212.675 871.688 215.124C873.801 217.86 875.913 221.029 876.969 223.142L872.264 225.158C871.16 222.469 868.855 218.628 866.215 215.172C868.231 212.147 870.344 208.45 871.496 205.953ZM879.898 205.953L884.892 207.105C883.403 209.794 881.579 212.531 879.994 214.931C882.203 217.572 884.411 220.645 885.516 222.758L880.907 224.726C879.706 222.133 877.306 218.388 874.521 214.979C876.585 212.003 878.746 208.402 879.898 205.953ZM888.54 205.953L893.822 207.201C892.237 209.938 890.365 212.627 888.685 214.979C891.085 217.572 893.534 220.645 894.782 222.71L890.029 224.966C888.685 222.325 885.948 218.532 882.875 215.076C885.036 212.051 887.34 208.402 888.54 205.953ZM867.943 226.695H893.534V250.749H888.204V231.352H873.08V250.989H867.943V226.695ZM870.248 244.507H890.605V249.164H870.248V244.507ZM877.258 222.902L883.931 223.766C882.779 226.262 881.483 228.567 880.522 230.151L875.433 229.143C876.153 227.271 876.921 224.726 877.258 222.902ZM883.067 231.208L887.004 233.224C884.363 237.593 880.234 241.722 876.057 244.459C875.337 243.547 873.993 242.155 873.032 241.386C877.066 238.938 880.907 234.953 883.067 231.208ZM873.753 235.241L876.777 232.408C880.522 234.665 885.42 238.122 887.82 240.522L884.603 243.787C882.347 241.338 877.546 237.689 873.753 235.241ZM854.5 207.586H864.102V212.771H854.5V207.586ZM854.164 218.532H862.95V223.766H854.164V218.532ZM854.164 229.719H862.998V235.049H854.164V229.719ZM852.051 207.586H856.9V225.014C856.9 232.6 856.516 243.739 853.683 250.893C852.723 250.077 850.515 248.876 849.266 248.444C851.859 241.77 852.051 232.072 852.051 225.014V207.586ZM860.597 207.586H865.639V244.987C865.639 247.388 865.302 248.972 863.91 249.885C862.47 250.797 860.645 250.941 857.861 250.893C857.716 249.5 857.092 247.052 856.42 245.611C857.861 245.707 859.397 245.707 859.877 245.659C860.405 245.659 860.597 245.467 860.597 244.843V207.586Z" fill="white"/>
<g filter="url(#filter3_i_321_8041)">
<rect x="779.193" y="325.348" width="380.988" height="101.597" rx="50.7984" fill="url(#paint3_linear_321_8041)"/>
</g>
<g filter="url(#filter4_i_321_8041)">
<ellipse cx="836.158" cy="376.246" rx="38.0988" ry="38.0988" fill="white"/>
</g>
<g clip-path="url(#clip1_321_8041)">
<path d="M853.807 350.951H819.132C817.658 350.951 816.464 352.146 816.464 353.619V398.964C816.464 400.437 817.658 401.631 819.132 401.631H853.807C855.28 401.631 856.475 400.437 856.475 398.964V353.619C856.475 352.146 855.28 350.951 853.807 350.951Z" fill="#092C4C"/>
<path d="M814.864 354.952C814.864 352.743 816.655 350.951 818.865 350.951H854.074C856.284 350.951 858.075 352.743 858.075 354.952V397.363C858.075 399.573 856.284 401.365 854.074 401.365H818.865C816.655 401.365 814.864 399.573 814.864 397.363V354.952Z" fill="#092C4C"/>
<path d="M834.146 389.048H838.379H834.146Z" fill="white"/>
<path d="M834.146 389.048H838.379" stroke="white" stroke-width="4.2332" stroke-linecap="round" stroke-linejoin="round"/>
</g>
<path d="M904.594 354.291H942.956V360.004H904.594V354.291ZM902.001 374.648H945.741V380.457H902.001V374.648ZM907.475 363.077L912.708 361.54C914.388 364.613 916.069 368.694 916.597 371.335L911.028 373.111C910.547 370.519 909.011 366.294 907.475 363.077ZM934.842 361.396L940.987 362.981C939.259 366.63 937.29 370.567 935.706 373.063L930.665 371.575C932.153 368.79 933.93 364.565 934.842 361.396ZM920.774 356.691H926.776V396.35H920.774V356.691ZM972.195 354.147H993.465V359.476H972.195V354.147ZM972.195 366.342H988.664V371.527H972.195V366.342ZM969.267 354.147H974.836V367.83C974.836 376.136 973.876 388.62 967.922 396.35C967.01 395.341 964.61 393.517 963.361 392.941C968.787 385.787 969.267 375.32 969.267 367.782V354.147ZM978.101 370.135C980.646 379.929 986.023 388.139 994.857 391.74C993.561 392.893 991.833 395.101 991.016 396.59C981.606 391.98 976.325 382.906 973.252 371.239L978.101 370.135ZM987.607 366.342H988.616L989.576 366.15L993.177 367.254C990.872 381.994 984.535 391.308 975.076 396.398C974.308 395.053 972.772 392.941 971.571 391.884C979.829 388.043 985.783 378.969 987.607 367.35V366.342ZM949.966 361.204H967.154V366.582H949.966V361.204ZM956.351 351.314H961.777V396.398H956.351V351.314ZM956.159 364.901L959.472 366.102C958.032 373.784 955.055 383.098 951.454 388.043C950.926 386.459 949.63 384.106 948.765 382.714C952.03 378.537 954.911 371.047 956.159 364.901ZM961.585 368.934C962.785 370.279 967.154 376.328 968.066 377.721L964.85 382.138C963.601 379.209 960.48 373.832 958.992 371.431L961.585 368.934Z" fill="white"/>
<g filter="url(#filter5_i_321_8041)">
<rect x="779.194" y="470.756" width="380.988" height="101.597" rx="50.7984" fill="url(#paint4_linear_321_8041)"/>
</g>
<g filter="url(#filter6_i_321_8041)">
<ellipse cx="836.344" cy="521.554" rx="38.0988" ry="38.0988" fill="white"/>
</g>
<g clip-path="url(#clip2_321_8041)">
<path d="M820.469 502.504C820.469 500.82 821.138 499.205 822.329 498.014C823.52 496.823 825.135 496.154 826.819 496.154H845.868C847.552 496.154 849.167 496.823 850.358 498.014C851.549 499.205 852.218 500.82 852.218 502.504V540.603C852.218 542.287 851.549 543.902 850.358 545.093C849.167 546.283 847.552 546.952 845.868 546.952H826.819C825.135 546.952 823.52 546.283 822.329 545.093C821.138 543.902 820.469 542.287 820.469 540.603V502.504ZM839.518 537.428C839.518 536.586 839.184 535.778 838.588 535.183C837.993 534.587 837.185 534.253 836.343 534.253C835.501 534.253 834.694 534.587 834.098 535.183C833.503 535.778 833.168 536.586 833.168 537.428C833.168 538.27 833.503 539.077 834.098 539.673C834.694 540.268 835.501 540.603 836.343 540.603C837.185 540.603 837.993 540.268 838.588 539.673C839.184 539.077 839.518 538.27 839.518 537.428Z" fill="#092C4C"/>
</g>
<path d="M937.387 496.629L941.564 501.382C931.674 503.927 917.846 505.127 906.083 505.511C905.939 504.071 905.219 501.719 904.691 500.47C916.262 499.99 929.513 498.742 937.387 496.629ZM905.123 510.265H943.101V515.786H905.123V510.265ZM901.81 521.452H945.933V527.069H901.81V521.452ZM920.919 503.399H926.92V534.943C926.92 538.352 926.056 539.888 923.752 540.753C921.447 541.665 917.942 541.809 913.045 541.761C912.661 540.128 911.556 537.536 910.692 536.047C914.245 536.191 918.278 536.143 919.383 536.143C920.487 536.143 920.919 535.807 920.919 534.847V503.399ZM964.562 521.212H993.994V525.677H964.562V521.212ZM968.451 530.334L971.38 526.877C973.637 528.269 976.661 530.43 978.102 531.918L975.029 535.807C973.685 534.223 970.756 531.87 968.451 530.334ZM984.103 519.435L986.888 516.89C988.424 517.851 990.345 519.291 991.257 520.347L988.28 523.084C987.416 522.028 985.592 520.443 984.103 519.435ZM967.731 523.516H972.82C972.244 530.862 970.9 537.536 964.898 541.761C964.226 540.561 962.834 538.784 961.633 537.92C966.531 534.655 967.395 529.134 967.731 523.516ZM975.989 496.773H980.982C980.55 518.715 983.767 537.008 989.529 537.008C990.729 537.008 991.161 536.143 991.401 532.302C992.409 533.407 993.994 534.367 995.146 534.895C994.282 540.417 992.89 541.857 989.145 541.857C978.582 541.809 975.989 520.587 975.989 496.773ZM986.984 525.581L991.737 527.357C988.424 534.079 982.519 538.928 975.269 541.761C974.645 540.753 973.204 539.024 972.244 538.064C979.11 535.663 984.343 531.246 986.984 525.581ZM980.262 505.752L982.375 502.631C984.391 504.071 986.792 506.232 987.896 507.672L985.688 511.273C984.583 509.689 982.183 507.384 980.262 505.752ZM989.241 511.321L992.457 510.121C993.61 512.425 994.714 515.402 995.002 517.275L991.545 518.715C991.257 516.794 990.297 513.674 989.241 511.321ZM981.127 513.914C984.007 513.722 987.8 513.434 991.833 513.097L991.929 516.746C988.424 517.227 985.016 517.659 981.943 518.043L981.127 513.914ZM985.544 497.013L989.865 498.598C988.328 501.334 986.696 504.359 985.352 506.328L982.279 504.935C983.431 502.775 984.823 499.414 985.544 497.013ZM989.577 502.151L993.562 504.071C990.969 508.104 987.704 513.001 985.064 516.074L982.087 514.394C984.631 511.177 987.8 505.944 989.577 502.151ZM963.458 505.752L965.619 502.631C967.587 504.071 970.036 506.232 971.092 507.672L968.883 511.273C967.827 509.689 965.426 507.384 963.458 505.752ZM971.668 511.897L974.885 510.841C975.941 513.145 976.853 516.17 977.045 518.043L973.589 519.339C973.397 517.371 972.58 514.298 971.668 511.897ZM963.794 514.682C966.723 514.49 970.564 514.202 974.645 513.866L974.741 517.755C971.188 518.187 967.683 518.571 964.562 518.907L963.794 514.682ZM968.787 497.013L973.06 498.646C971.476 501.334 969.892 504.503 968.595 506.472L965.522 505.127C966.627 502.919 968.019 499.414 968.787 497.013ZM972.82 502.151L976.757 504.071C974.069 508.344 970.66 513.482 967.875 516.698L964.898 515.066C967.587 511.705 970.9 506.184 972.82 502.151ZM949.966 506.664H964.61V511.945H949.966V506.664ZM955.104 496.725H960.241V541.809H955.104V496.725ZM955.008 510.313L957.985 511.321C956.832 518.859 954.384 528.125 951.263 533.023C950.783 531.582 949.63 529.422 948.814 528.125C951.599 523.996 953.999 516.41 955.008 510.313ZM960.001 513.53C960.961 514.826 964.658 520.972 965.378 522.364L962.642 526.349C961.681 523.516 959.089 517.899 957.888 515.642L960.001 513.53Z" fill="white"/>
<g filter="url(#filter7_i_321_8041)">
<rect x="679.503" y="616.167" width="380.988" height="101.597" rx="50.7984" fill="url(#paint5_linear_321_8041)"/>
</g>
<g filter="url(#filter8_i_321_8041)">
<ellipse cx="736.651" cy="666.965" rx="38.0988" ry="38.0988" fill="white"/>
</g>
<path d="M743.001 655.058H730.301C727.233 655.058 724.745 657.546 724.745 660.614V673.314C724.745 676.382 727.233 678.87 730.301 678.87H743.001C746.069 678.87 748.557 676.382 748.557 673.314V660.614C748.557 657.546 746.069 655.058 743.001 655.058Z" fill="#092C4C"/>
<path d="M744.588 651.091V644.741C744.588 644.32 744.421 643.916 744.123 643.619C743.826 643.321 743.422 643.154 743.001 643.154H730.301C729.88 643.154 729.477 643.321 729.179 643.619C728.881 643.916 728.714 644.32 728.714 644.741V651.091C726.61 651.093 724.592 651.93 723.104 653.418C721.616 654.906 720.779 656.924 720.777 659.028V674.903C720.779 677.007 721.616 679.025 723.104 680.513C724.592 682.001 726.61 682.838 728.714 682.84V689.19C728.714 689.611 728.881 690.015 729.179 690.312C729.477 690.61 729.88 690.777 730.301 690.777H743.001C743.422 690.777 743.826 690.61 744.123 690.312C744.421 690.015 744.588 689.611 744.588 689.19V682.84C746.693 682.838 748.71 682.001 750.198 680.513C751.686 679.025 752.523 677.007 752.526 674.903V659.028C752.523 656.924 751.686 654.906 750.198 653.418C748.71 651.93 746.693 651.093 744.588 651.091ZM750.144 673.315C750.142 675.209 749.389 677.025 748.05 678.364C746.711 679.703 744.895 680.457 743.001 680.459H730.301C728.407 680.457 726.592 679.703 725.252 678.364C723.913 677.025 723.16 675.209 723.158 673.315V660.616C723.16 658.722 723.913 656.906 725.252 655.567C726.592 654.228 728.407 653.474 730.301 653.472H743.001C744.895 653.474 746.711 654.228 748.05 655.567C749.389 656.906 750.142 658.722 750.144 660.616V673.315Z" fill="#092C4C"/>
<path d="M837.695 642.04L841.872 646.793C831.981 649.338 818.154 650.538 806.391 650.922C806.247 649.482 805.527 647.129 804.998 645.881C816.569 645.401 829.821 644.153 837.695 642.04ZM805.431 655.676H843.408V661.197H805.431V655.676ZM802.118 666.863H846.241V672.48H802.118V666.863ZM821.227 648.81H827.228V680.354C827.228 683.763 826.364 685.299 824.059 686.164C821.755 687.076 818.25 687.22 813.353 687.172C812.969 685.539 811.864 682.947 811 681.458C814.553 681.602 818.586 681.554 819.69 681.554C820.795 681.554 821.227 681.218 821.227 680.258V648.81ZM868.567 645.593H893.485V650.25H868.567V645.593ZM869.431 652.747H892.669V657.212H869.431V652.747ZM867.703 659.757H894.254V664.462H867.703V659.757ZM878.314 642.232H883.787V663.214H878.314V642.232ZM868.183 681.458C872.168 680.738 878.073 679.442 883.835 678.145L884.363 682.851C879.178 684.147 873.656 685.491 869.431 686.548L868.183 681.458ZM891.565 665.71L894.974 669.935C892.093 671.904 888.924 674.064 886.476 675.361L883.979 671.904C886.236 670.463 889.644 667.679 891.565 665.71ZM884.315 662.829C885.851 671.616 889.068 679.202 895.406 682.611C894.254 683.667 892.621 685.731 891.805 687.22C884.843 682.755 881.626 674.256 879.85 663.598L884.315 662.829ZM877.113 662.589L882.01 664.078C879.034 669.119 873.896 673.392 868.759 676.033C867.991 675.025 866.31 672.96 865.254 672.048C870.103 669.983 874.713 666.622 877.113 662.589ZM849.89 681.074C854.259 680.402 860.837 679.25 867.127 678.145L867.559 682.995C861.845 684.099 855.796 685.347 851.09 686.212L849.89 681.074ZM852.483 654.187H866.166V658.94H852.483V654.187ZM850.562 662.301H866.935V667.151H850.562V662.301ZM850.802 669.983L854.355 669.119C855.075 671.76 855.748 675.217 855.94 677.473L852.195 678.434C852.099 676.129 851.523 672.624 850.802 669.983ZM863.334 668.735L867.271 669.647C866.454 672.384 865.782 675.409 865.11 677.425L861.701 676.561C862.325 674.448 862.998 670.992 863.334 668.735ZM856.564 656.108H861.269V681.122L856.564 681.842V656.108ZM856.66 642.136H859.733V643.192H861.317V644.681C859.493 648.33 856.708 653.371 852.051 657.74C851.283 656.588 849.698 654.763 848.594 653.995C852.531 650.538 855.22 645.929 856.66 642.136ZM857.332 642.136H861.413C864.006 644.633 867.223 648.138 868.711 650.682L864.774 654.955C863.526 652.507 860.597 648.33 858.196 646.121H857.332V642.136ZM872.072 670.415L874.617 667.823L877.209 668.687V682.371H872.072V670.415Z" fill="white"/>
<path d="M577.48 230.733C577.48 234.474 580.513 237.506 584.253 237.506C587.994 237.506 591.026 234.474 591.026 230.733C591.026 226.992 587.994 223.96 584.253 223.96C580.513 223.96 577.48 226.992 577.48 230.733ZM656.853 230.733C656.853 234.474 659.885 237.506 663.626 237.506C667.366 237.506 670.399 234.474 670.399 230.733C670.399 226.992 667.366 223.96 663.626 223.96C659.885 223.96 656.853 226.992 656.853 230.733ZM584.253 232.003H663.626V229.463H584.253V232.003Z" fill="white"/>
<path d="M577.48 666.966C577.48 670.707 580.513 673.739 584.253 673.739C587.994 673.739 591.026 670.707 591.026 666.966C591.026 663.226 587.994 660.193 584.253 660.193C580.513 660.193 577.48 663.226 577.48 666.966ZM656.853 666.966C656.853 670.707 659.885 673.739 663.626 673.739C667.366 673.739 670.399 670.707 670.399 666.966C670.399 663.226 667.366 660.193 663.626 660.193C659.885 660.193 656.853 663.226 656.853 666.966ZM584.253 668.236H663.626V665.696H584.253V668.236Z" fill="white"/>
<path d="M677.171 376.143C677.171 379.884 680.204 382.916 683.944 382.916C687.685 382.916 690.717 379.884 690.717 376.143C690.717 372.403 687.685 369.37 683.944 369.37C680.204 369.37 677.171 372.403 677.171 376.143ZM756.544 376.143C756.544 379.884 759.576 382.916 763.317 382.916C767.057 382.916 770.09 379.884 770.09 376.143C770.09 372.403 767.057 369.37 763.317 369.37C759.576 369.37 756.544 372.403 756.544 376.143ZM683.944 377.413H763.317V374.873H683.944V377.413Z" fill="white"/>
<path d="M677.171 521.555C677.171 525.296 680.204 528.328 683.944 528.328C687.685 528.328 690.717 525.296 690.717 521.555C690.717 517.814 687.685 514.782 683.944 514.782C680.204 514.782 677.171 517.814 677.171 521.555ZM756.544 521.555C756.544 525.296 759.576 528.328 763.317 528.328C767.057 528.328 770.09 525.296 770.09 521.555C770.09 517.814 767.057 514.782 763.317 514.782C759.576 514.782 756.544 517.814 756.544 521.555ZM683.944 522.825H763.317V520.285H683.944V522.825Z" fill="white"/>
<path d="M366.773 747.607C404.923 747.607 442.699 740.093 477.944 725.494C513.19 710.895 545.215 689.497 572.19 662.521C599.166 635.545 620.564 603.52 635.163 568.275C649.763 533.029 657.277 495.254 657.277 457.104C657.277 418.955 649.763 381.179 635.163 345.933C620.564 310.688 599.166 278.663 572.19 251.687C545.215 224.712 513.19 203.313 477.944 188.714C442.699 174.115 404.923 166.601 366.773 166.601V180.764C403.063 180.764 438.997 187.912 472.524 201.799C506.051 215.687 536.515 236.042 562.176 261.702C587.836 287.363 608.191 317.826 622.079 351.353C635.966 384.881 643.114 420.815 643.114 457.104C643.114 493.394 635.966 529.328 622.079 562.855C608.191 596.382 587.836 626.846 562.176 652.506C536.515 678.167 506.051 698.522 472.524 712.409C438.997 726.297 403.063 733.444 366.773 733.444V747.607Z" fill="url(#paint6_linear_321_8041)"/>
<g filter="url(#filter9_d_321_8041)">
<ellipse cx="20.3193" cy="20.3194" rx="20.3193" ry="20.3194" transform="matrix(-1 0 0 1 396.938 153.901)" fill="url(#paint7_radial_321_8041)"/>
</g>
<g filter="url(#filter10_d_321_8041)">
<ellipse cx="20.3193" cy="20.3194" rx="20.3193" ry="20.3194" transform="matrix(-1 0 0 1 568.383 210.413)" fill="url(#paint8_radial_321_8041)"/>
</g>
<g filter="url(#filter11_d_321_8041)">
<ellipse cx="20.3193" cy="20.3194" rx="20.3193" ry="20.3194" transform="matrix(-1 0 0 1 663.629 355.827)" fill="url(#paint9_radial_321_8041)"/>
</g>
<g filter="url(#filter12_d_321_8041)">
<ellipse cx="20.3193" cy="20.3194" rx="20.3193" ry="20.3194" transform="matrix(-1 0 0 1 663.629 501.236)" fill="url(#paint10_radial_321_8041)"/>
</g>
<g filter="url(#filter13_d_321_8041)">
<ellipse cx="20.3193" cy="20.3194" rx="20.3193" ry="20.3194" transform="matrix(-1 0 0 1 568.383 646.645)" fill="url(#paint11_radial_321_8041)"/>
</g>
<g filter="url(#filter14_d_321_8041)">
<ellipse cx="20.3193" cy="20.3194" rx="20.3193" ry="20.3194" transform="matrix(-1 0 0 1 403.922 711.41)" fill="url(#paint12_radial_321_8041)"/>
</g>
<defs>
<filter id="filter0_d_321_8041" x="0.838238" y="0.987541" width="1341.25" height="976.149" filterUnits="userSpaceOnUse" color-interpolation-filters="sRGB">
<feFlood flood-opacity="0" result="BackgroundImageFix"/>
<feColorMatrix in="SourceAlpha" type="matrix" values="0 0 0 0 0 0 0 0 0 0 0 0 0 0 0 0 0 0 127 0" result="hardAlpha"/>
<feOffset dx="8.00208" dy="32.0083"/>
<feGaussianBlur stdDeviation="40.0104"/>
<feComposite in2="hardAlpha" operator="out"/>
<feColorMatrix type="matrix" values="0 0 0 0 0.0352941 0 0 0 0 0.172549 0 0 0 0 0.298039 0 0 0 1 0"/>
<feBlend mode="normal" in2="BackgroundImageFix" result="effect1_dropShadow_321_8041"/>
<feBlend mode="normal" in="SourceGraphic" in2="effect1_dropShadow_321_8041" result="shape"/>
</filter>
<filter id="filter1_i_321_8041" x="679.503" y="179.937" width="386.068" height="106.677" filterUnits="userSpaceOnUse" color-interpolation-filters="sRGB">
<feFlood flood-opacity="0" result="BackgroundImageFix"/>
<feBlend mode="normal" in="SourceGraphic" in2="BackgroundImageFix" result="shape"/>
<feColorMatrix in="SourceAlpha" type="matrix" values="0 0 0 0 0 0 0 0 0 0 0 0 0 0 0 0 0 0 127 0" result="hardAlpha"/>
<feOffset dx="5.07984" dy="5.07984"/>
<feGaussianBlur stdDeviation="2.53992"/>
<feComposite in2="hardAlpha" operator="arithmetic" k2="-1" k3="1"/>
<feColorMatrix type="matrix" values="0 0 0 0 0 0 0 0 0 0 0 0 0 0 0 0 0 0 0.25 0"/>
<feBlend mode="normal" in2="shape" result="effect1_innerShadow_321_8041"/>
</filter>
<filter id="filter2_i_321_8041" x="698.552" y="192.634" width="78.7375" height="78.7374" filterUnits="userSpaceOnUse" color-interpolation-filters="sRGB">
<feFlood flood-opacity="0" result="BackgroundImageFix"/>
<feBlend mode="normal" in="SourceGraphic" in2="BackgroundImageFix" result="shape"/>
<feColorMatrix in="SourceAlpha" type="matrix" values="0 0 0 0 0 0 0 0 0 0 0 0 0 0 0 0 0 0 127 0" result="hardAlpha"/>
<feOffset dx="2.53992" dy="2.53992"/>
<feGaussianBlur stdDeviation="1.26996"/>
<feComposite in2="hardAlpha" operator="arithmetic" k2="-1" k3="1"/>
<feColorMatrix type="matrix" values="0 0 0 0 0 0 0 0 0 0 0 0 0 0 0 0 0 0 0.25 0"/>
<feBlend mode="normal" in2="shape" result="effect1_innerShadow_321_8041"/>
</filter>
<filter id="filter3_i_321_8041" x="779.193" y="325.348" width="386.068" height="106.677" filterUnits="userSpaceOnUse" color-interpolation-filters="sRGB">
<feFlood flood-opacity="0" result="BackgroundImageFix"/>
<feBlend mode="normal" in="SourceGraphic" in2="BackgroundImageFix" result="shape"/>
<feColorMatrix in="SourceAlpha" type="matrix" values="0 0 0 0 0 0 0 0 0 0 0 0 0 0 0 0 0 0 127 0" result="hardAlpha"/>
<feOffset dx="5.07984" dy="5.07984"/>
<feGaussianBlur stdDeviation="2.53992"/>
<feComposite in2="hardAlpha" operator="arithmetic" k2="-1" k3="1"/>
<feColorMatrix type="matrix" values="0 0 0 0 0 0 0 0 0 0 0 0 0 0 0 0 0 0 0.25 0"/>
<feBlend mode="normal" in2="shape" result="effect1_innerShadow_321_8041"/>
</filter>
<filter id="filter4_i_321_8041" x="798.059" y="338.147" width="78.7375" height="78.7374" filterUnits="userSpaceOnUse" color-interpolation-filters="sRGB">
<feFlood flood-opacity="0" result="BackgroundImageFix"/>
<feBlend mode="normal" in="SourceGraphic" in2="BackgroundImageFix" result="shape"/>
<feColorMatrix in="SourceAlpha" type="matrix" values="0 0 0 0 0 0 0 0 0 0 0 0 0 0 0 0 0 0 127 0" result="hardAlpha"/>
<feOffset dx="2.53992" dy="2.53992"/>
<feGaussianBlur stdDeviation="1.26996"/>
<feComposite in2="hardAlpha" operator="arithmetic" k2="-1" k3="1"/>
<feColorMatrix type="matrix" values="0 0 0 0 0 0 0 0 0 0 0 0 0 0 0 0 0 0 0.25 0"/>
<feBlend mode="normal" in2="shape" result="effect1_innerShadow_321_8041"/>
</filter>
<filter id="filter5_i_321_8041" x="779.194" y="470.756" width="386.068" height="106.677" filterUnits="userSpaceOnUse" color-interpolation-filters="sRGB">
<feFlood flood-opacity="0" result="BackgroundImageFix"/>
<feBlend mode="normal" in="SourceGraphic" in2="BackgroundImageFix" result="shape"/>
<feColorMatrix in="SourceAlpha" type="matrix" values="0 0 0 0 0 0 0 0 0 0 0 0 0 0 0 0 0 0 127 0" result="hardAlpha"/>
<feOffset dx="5.07984" dy="5.07984"/>
<feGaussianBlur stdDeviation="2.53992"/>
<feComposite in2="hardAlpha" operator="arithmetic" k2="-1" k3="1"/>
<feColorMatrix type="matrix" values="0 0 0 0 0 0 0 0 0 0 0 0 0 0 0 0 0 0 0.25 0"/>
<feBlend mode="normal" in2="shape" result="effect1_innerShadow_321_8041"/>
</filter>
<filter id="filter6_i_321_8041" x="798.246" y="483.455" width="78.7375" height="78.7374" filterUnits="userSpaceOnUse" color-interpolation-filters="sRGB">
<feFlood flood-opacity="0" result="BackgroundImageFix"/>
<feBlend mode="normal" in="SourceGraphic" in2="BackgroundImageFix" result="shape"/>
<feColorMatrix in="SourceAlpha" type="matrix" values="0 0 0 0 0 0 0 0 0 0 0 0 0 0 0 0 0 0 127 0" result="hardAlpha"/>
<feOffset dx="2.53992" dy="2.53992"/>
<feGaussianBlur stdDeviation="1.26996"/>
<feComposite in2="hardAlpha" operator="arithmetic" k2="-1" k3="1"/>
<feColorMatrix type="matrix" values="0 0 0 0 0 0 0 0 0 0 0 0 0 0 0 0 0 0 0.25 0"/>
<feBlend mode="normal" in2="shape" result="effect1_innerShadow_321_8041"/>
</filter>
<filter id="filter7_i_321_8041" x="679.503" y="616.167" width="386.068" height="106.677" filterUnits="userSpaceOnUse" color-interpolation-filters="sRGB">
<feFlood flood-opacity="0" result="BackgroundImageFix"/>
<feBlend mode="normal" in="SourceGraphic" in2="BackgroundImageFix" result="shape"/>
<feColorMatrix in="SourceAlpha" type="matrix" values="0 0 0 0 0 0 0 0 0 0 0 0 0 0 0 0 0 0 127 0" result="hardAlpha"/>
<feOffset dx="5.07984" dy="5.07984"/>
<feGaussianBlur stdDeviation="2.53992"/>
<feComposite in2="hardAlpha" operator="arithmetic" k2="-1" k3="1"/>
<feColorMatrix type="matrix" values="0 0 0 0 0 0 0 0 0 0 0 0 0 0 0 0 0 0 0.25 0"/>
<feBlend mode="normal" in2="shape" result="effect1_innerShadow_321_8041"/>
</filter>
<filter id="filter8_i_321_8041" x="698.552" y="628.866" width="78.7375" height="78.7374" filterUnits="userSpaceOnUse" color-interpolation-filters="sRGB">
<feFlood flood-opacity="0" result="BackgroundImageFix"/>
<feBlend mode="normal" in="SourceGraphic" in2="BackgroundImageFix" result="shape"/>
<feColorMatrix in="SourceAlpha" type="matrix" values="0 0 0 0 0 0 0 0 0 0 0 0 0 0 0 0 0 0 127 0" result="hardAlpha"/>
<feOffset dx="2.53992" dy="2.53992"/>
<feGaussianBlur stdDeviation="1.26996"/>
<feComposite in2="hardAlpha" operator="arithmetic" k2="-1" k3="1"/>
<feColorMatrix type="matrix" values="0 0 0 0 0 0 0 0 0 0 0 0 0 0 0 0 0 0 0.25 0"/>
<feBlend mode="normal" in2="shape" result="effect1_innerShadow_321_8041"/>
</filter>
<filter id="filter9_d_321_8041" x="353.759" y="153.901" width="45.7185" height="45.7185" filterUnits="userSpaceOnUse" color-interpolation-filters="sRGB">
<feFlood flood-opacity="0" result="BackgroundImageFix"/>
<feColorMatrix in="SourceAlpha" type="matrix" values="0 0 0 0 0 0 0 0 0 0 0 0 0 0 0 0 0 0 127 0" result="hardAlpha"/>
<feOffset dy="2.53992"/>
<feGaussianBlur stdDeviation="1.26996"/>
<feComposite in2="hardAlpha" operator="out"/>
<feColorMatrix type="matrix" values="0 0 0 0 0 0 0 0 0 0 0 0 0 0 0 0 0 0 0.25 0"/>
<feBlend mode="normal" in2="BackgroundImageFix" result="effect1_dropShadow_321_8041"/>
<feBlend mode="normal" in="SourceGraphic" in2="effect1_dropShadow_321_8041" result="shape"/>
</filter>
<filter id="filter10_d_321_8041" x="525.204" y="210.413" width="45.7185" height="45.7185" filterUnits="userSpaceOnUse" color-interpolation-filters="sRGB">
<feFlood flood-opacity="0" result="BackgroundImageFix"/>
<feColorMatrix in="SourceAlpha" type="matrix" values="0 0 0 0 0 0 0 0 0 0 0 0 0 0 0 0 0 0 127 0" result="hardAlpha"/>
<feOffset dy="2.53992"/>
<feGaussianBlur stdDeviation="1.26996"/>
<feComposite in2="hardAlpha" operator="out"/>
<feColorMatrix type="matrix" values="0 0 0 0 0 0 0 0 0 0 0 0 0 0 0 0 0 0 0.25 0"/>
<feBlend mode="normal" in2="BackgroundImageFix" result="effect1_dropShadow_321_8041"/>
<feBlend mode="normal" in="SourceGraphic" in2="effect1_dropShadow_321_8041" result="shape"/>
</filter>
<filter id="filter11_d_321_8041" x="620.45" y="355.827" width="45.7185" height="45.7185" filterUnits="userSpaceOnUse" color-interpolation-filters="sRGB">
<feFlood flood-opacity="0" result="BackgroundImageFix"/>
<feColorMatrix in="SourceAlpha" type="matrix" values="0 0 0 0 0 0 0 0 0 0 0 0 0 0 0 0 0 0 127 0" result="hardAlpha"/>
<feOffset dy="2.53992"/>
<feGaussianBlur stdDeviation="1.26996"/>
<feComposite in2="hardAlpha" operator="out"/>
<feColorMatrix type="matrix" values="0 0 0 0 0 0 0 0 0 0 0 0 0 0 0 0 0 0 0.25 0"/>
<feBlend mode="normal" in2="BackgroundImageFix" result="effect1_dropShadow_321_8041"/>
<feBlend mode="normal" in="SourceGraphic" in2="effect1_dropShadow_321_8041" result="shape"/>
</filter>
<filter id="filter12_d_321_8041" x="620.45" y="501.236" width="45.7185" height="45.7185" filterUnits="userSpaceOnUse" color-interpolation-filters="sRGB">
<feFlood flood-opacity="0" result="BackgroundImageFix"/>
<feColorMatrix in="SourceAlpha" type="matrix" values="0 0 0 0 0 0 0 0 0 0 0 0 0 0 0 0 0 0 127 0" result="hardAlpha"/>
<feOffset dy="2.53992"/>
<feGaussianBlur stdDeviation="1.26996"/>
<feComposite in2="hardAlpha" operator="out"/>
<feColorMatrix type="matrix" values="0 0 0 0 0 0 0 0 0 0 0 0 0 0 0 0 0 0 0.25 0"/>
<feBlend mode="normal" in2="BackgroundImageFix" result="effect1_dropShadow_321_8041"/>
<feBlend mode="normal" in="SourceGraphic" in2="effect1_dropShadow_321_8041" result="shape"/>
</filter>
<filter id="filter13_d_321_8041" x="525.204" y="646.645" width="45.7185" height="45.7185" filterUnits="userSpaceOnUse" color-interpolation-filters="sRGB">
<feFlood flood-opacity="0" result="BackgroundImageFix"/>
<feColorMatrix in="SourceAlpha" type="matrix" values="0 0 0 0 0 0 0 0 0 0 0 0 0 0 0 0 0 0 127 0" result="hardAlpha"/>
<feOffset dy="2.53992"/>
<feGaussianBlur stdDeviation="1.26996"/>
<feComposite in2="hardAlpha" operator="out"/>
<feColorMatrix type="matrix" values="0 0 0 0 0 0 0 0 0 0 0 0 0 0 0 0 0 0 0.25 0"/>
<feBlend mode="normal" in2="BackgroundImageFix" result="effect1_dropShadow_321_8041"/>
<feBlend mode="normal" in="SourceGraphic" in2="effect1_dropShadow_321_8041" result="shape"/>
</filter>
<filter id="filter14_d_321_8041" x="360.744" y="711.41" width="45.7185" height="45.7185" filterUnits="userSpaceOnUse" color-interpolation-filters="sRGB">
<feFlood flood-opacity="0" result="BackgroundImageFix"/>
<feColorMatrix in="SourceAlpha" type="matrix" values="0 0 0 0 0 0 0 0 0 0 0 0 0 0 0 0 0 0 127 0" result="hardAlpha"/>
<feOffset dy="2.53992"/>
<feGaussianBlur stdDeviation="1.26996"/>
<feComposite in2="hardAlpha" operator="out"/>
<feColorMatrix type="matrix" values="0 0 0 0 0 0 0 0 0 0 0 0 0 0 0 0 0 0 0.25 0"/>
<feBlend mode="normal" in2="BackgroundImageFix" result="effect1_dropShadow_321_8041"/>
<feBlend mode="normal" in="SourceGraphic" in2="effect1_dropShadow_321_8041" result="shape"/>
</filter>
<radialGradient id="paint0_radial_321_8041" cx="0" cy="0" r="1" gradientUnits="userSpaceOnUse" gradientTransform="translate(663.461 457.054) rotate(90) scale(408.054 590.604)">
<stop stop-color="#3068A5"/>
<stop offset="1" stop-color="#0F0F31"/>
</radialGradient>
<linearGradient id="paint1_linear_321_8041" x1="181.677" y1="452.977" x2="626.162" y2="452.977" gradientUnits="userSpaceOnUse">
<stop stop-color="#0C1B3C"/>
<stop offset="1" stop-color="#202743" stop-opacity="0"/>
</linearGradient>
<linearGradient id="paint2_linear_321_8041" x1="679.503" y1="196.023" x2="1032.64" y2="273.143" gradientUnits="userSpaceOnUse">
<stop stop-color="#1B79D5"/>
<stop offset="1" stop-color="#62D5E8"/>
</linearGradient>
<linearGradient id="paint3_linear_321_8041" x1="779.193" y1="341.434" x2="1132.33" y2="418.555" gradientUnits="userSpaceOnUse">
<stop stop-color="#1B79D5"/>
<stop offset="1" stop-color="#62D5E8"/>
</linearGradient>
<linearGradient id="paint4_linear_321_8041" x1="779.194" y1="486.842" x2="1132.33" y2="563.963" gradientUnits="userSpaceOnUse">
<stop stop-color="#1B79D5"/>
<stop offset="1" stop-color="#62D5E8"/>
</linearGradient>
<linearGradient id="paint5_linear_321_8041" x1="679.503" y1="632.253" x2="1032.64" y2="709.374" gradientUnits="userSpaceOnUse">
<stop stop-color="#1B79D5"/>
<stop offset="1" stop-color="#62D5E8"/>
</linearGradient>
<linearGradient id="paint6_linear_321_8041" x1="374.966" y1="747.607" x2="366.773" y2="174.478" gradientUnits="userSpaceOnUse">
<stop stop-color="#3068A5" stop-opacity="0.44"/>
<stop offset="1" stop-color="#0F0F31"/>
</linearGradient>
<radialGradient id="paint7_radial_321_8041" cx="0" cy="0" r="1" gradientUnits="userSpaceOnUse" gradientTransform="translate(34.4505 9.60551) rotate(138.204) scale(35.0603)">
<stop stop-color="#91D7F4"/>
<stop offset="1" stop-color="#54A2E6"/>
</radialGradient>
<radialGradient id="paint8_radial_321_8041" cx="0" cy="0" r="1" gradientUnits="userSpaceOnUse" gradientTransform="translate(34.4505 9.60551) rotate(138.204) scale(35.0603)">
<stop stop-color="#91D7F4"/>
<stop offset="1" stop-color="#54A2E6"/>
</radialGradient>
<radialGradient id="paint9_radial_321_8041" cx="0" cy="0" r="1" gradientUnits="userSpaceOnUse" gradientTransform="translate(34.4505 9.60551) rotate(138.204) scale(35.0603)">
<stop stop-color="#91D7F4"/>
<stop offset="1" stop-color="#54A2E6"/>
</radialGradient>
<radialGradient id="paint10_radial_321_8041" cx="0" cy="0" r="1" gradientUnits="userSpaceOnUse" gradientTransform="translate(34.4505 9.60551) rotate(138.204) scale(35.0603)">
<stop stop-color="#91D7F4"/>
<stop offset="1" stop-color="#54A2E6"/>
</radialGradient>
<radialGradient id="paint11_radial_321_8041" cx="0" cy="0" r="1" gradientUnits="userSpaceOnUse" gradientTransform="translate(34.4505 9.60551) rotate(138.204) scale(35.0603)">
<stop stop-color="#91D7F4"/>
<stop offset="1" stop-color="#54A2E6"/>
</radialGradient>
<radialGradient id="paint12_radial_321_8041" cx="0" cy="0" r="1" gradientUnits="userSpaceOnUse" gradientTransform="translate(34.4505 9.60551) rotate(138.204) scale(35.0603)">
<stop stop-color="#91D7F4"/>
<stop offset="1" stop-color="#54A2E6"/>
</radialGradient>
<clipPath id="clip0_321_8041">
<rect width="50.7984" height="50.7984" fill="white" transform="translate(711.252 205.335)"/>
</clipPath>
<clipPath id="clip1_321_8041">
<rect width="50.7984" height="50.7984" fill="white" transform="translate(810.863 350.951)"/>
</clipPath>
<clipPath id="clip2_321_8041">
<rect width="50.7984" height="50.7984" fill="white" transform="translate(810.944 496.154)"/>
</clipPath>
</defs>
</svg>
