<svg width="808" height="808" viewBox="0 0 808 808" fill="none" xmlns="http://www.w3.org/2000/svg">
<g filter="url(#filter0_d_941_62622)">
<circle cx="404" cy="110" r="110" fill="url(#paint0_radial_941_62622)"/>
</g>
<g filter="url(#filter1_d_941_62622)">
<circle cx="404" cy="690" r="110" fill="url(#paint1_radial_941_62622)"/>
</g>
<g filter="url(#filter2_d_941_62622)">
<circle cx="114" cy="400" r="110" transform="rotate(-90 114 400)" fill="url(#paint2_radial_941_62622)"/>
</g>
<g filter="url(#filter3_d_941_62622)">
<circle cx="694" cy="400" r="110" transform="rotate(-90 694 400)" fill="url(#paint3_radial_941_62622)"/>
</g>
<circle opacity="0.5" cx="404" cy="400" r="289.5" stroke="#97BEDE" stroke-dasharray="10 10"/>
<circle opacity="0.3" cx="404" cy="400" r="179.5" stroke="#97BEDE" stroke-dasharray="2 2"/>
<circle opacity="0.1" cx="404" cy="400" r="89.5" stroke="#97BEDE"/>
<path d="M327.52 95.4H400.48V104.36H327.52V95.4ZM334.8 78.76H380.16V87.56H334.8V78.76ZM352.96 69.08H362.96V100.28H352.96V69.08ZM383.76 109.56L391.76 116.6C380.88 120.92 366.48 124.68 354 127.24C353.52 125.16 352.16 121.8 351.04 119.96C362.88 117.32 375.92 113.32 383.76 109.56ZM388.72 72.2L397.6 76.6C381.92 99.64 357.84 117.16 332.08 127.64C330.64 125.48 327.36 121.48 325.44 119.48C351.44 110.2 374.72 93.56 388.72 72.2ZM348 109.72H357.92V130.84C357.92 133.96 358.88 134.44 364.8 134.44C367.44 134.44 378.8 134.44 382.16 134.44C387.2 134.44 388 133 388.64 124.52C390.88 126.04 395.04 127.48 397.68 127.96C396.32 139.96 393.36 143 382.88 143C380.08 143 366.8 143 364.08 143C351.44 143 348 140.28 348 130.92V109.72ZM438.08 106.2V110.2H449.28V106.2H438.08ZM430.32 100.04H457.6V116.36H430.32V100.04ZM415.04 81.56H435.12V87.56H415.04V81.56ZM427.28 131.08H438.96V137.32H427.28V131.08ZM452 81.56H472.16V87.56H452V81.56ZM468.24 71.48H477.76V134.92C477.76 138.84 477.2 141 474.88 142.52C472.64 143.96 469.52 144.12 465.68 144.12C465.36 141.88 464.32 138.04 463.28 135.8C464.88 135.96 466.72 135.88 467.36 135.88C468.08 135.88 468.24 135.56 468.24 134.76V71.48ZM415.84 71.48H441.04V97.8H415.84V90.76H432V78.52H415.84V71.48ZM473.44 71.48V78.52H455.52V90.76H473.44V97.8H446.4V71.48H473.44ZM410.48 71.48H419.84V144.12H410.48V71.48ZM424.32 118.84H442V139.16H435.28V125H430.64V139.32H424.32V118.84ZM448.48 131.08H460.32V137.32H448.48V131.08ZM445.44 118.84H463.6V139.16H456.96V125H451.92V139.32H445.44V118.84Z" fill="white"/>
<path d="M328.48 698.04H399.84V705.88H328.48V698.04ZM328.64 662.12H399.52V670.04H328.64V662.12ZM331.92 676.44H396.48V683.96H331.92V676.44ZM335.92 687.48H392.72V694.44H335.92V687.48ZM359.12 680.28H368.64V724.2H359.12V680.28ZM352.16 649H361.12V665.88H352.16V649ZM366.96 649H376.08V665.32H366.96V649ZM357.36 701.56L364.88 704.92C357.28 713.24 344.48 720.04 332.16 723.24C330.88 720.92 328.08 717.24 326 715.24C338.08 712.92 350.8 707.64 357.36 701.56ZM370.56 701.32C377.04 707.64 389.52 712.6 402 714.68C399.84 716.68 396.96 720.68 395.52 723.32C382.88 720.12 370.64 713.32 363.12 704.28L370.56 701.32ZM385.36 649.64L395.44 652.04C392.88 656.44 390.16 660.76 388.08 663.72L380.32 661.32C382.16 658.04 384.24 653.16 385.36 649.64ZM374.8 666.84L384.96 669.16C382.8 673 380.72 676.52 379.04 679.08L370.88 676.76C372.32 673.88 374 669.8 374.8 666.84ZM334.4 652.2L342.64 649.4C344.96 652.84 347.6 657.64 348.72 660.76L340 663.88C339.12 660.76 336.56 655.88 334.4 652.2ZM344.56 670.12L353.84 668.68C355.2 670.92 356.72 674.04 357.36 676.2L347.6 677.88C347.12 675.8 345.76 672.44 344.56 670.12ZM408.24 652.68H434.48V660.76H408.24V652.68ZM440.24 693.88H472.8V701.88H440.24V693.88ZM407.12 677.16H436.88V685.56H407.12V677.16ZM420.16 680.6H429.28V713.88C429.28 718.2 428.56 720.76 425.76 722.28C423.04 723.72 419.44 723.88 414.4 723.88C414.16 721.32 412.88 717.32 411.68 714.76C414.64 714.92 417.92 714.92 418.88 714.92C419.84 714.84 420.16 714.6 420.16 713.72V680.6ZM469.68 693.88H479.36C479.36 693.88 479.28 696.28 479.12 697.56C477.76 711.4 476.4 717.64 474.08 720.12C472.32 722.04 470.56 722.68 468.24 723C466.24 723.24 462.88 723.32 459.2 723.16C459.04 720.52 458.08 716.76 456.64 714.36C459.52 714.6 462.16 714.68 463.44 714.68C464.64 714.68 465.36 714.6 466.08 713.8C467.52 712.44 468.72 707.4 469.68 695.16V693.88ZM452.72 686.76H462.24C460.96 703.16 457.6 716.76 438.64 724.28C437.6 721.96 435.12 718.6 433.12 716.84C449.68 710.76 451.6 699.8 452.72 686.76ZM410.08 669.4L416.08 663.24C422.56 665.56 431.36 669.72 435.92 672.92L429.44 679.8C425.36 676.6 416.72 672.04 410.08 669.4ZM434.56 677.16H435.84L437.12 676.76L442.88 678.68C441.6 685.96 439.52 694.2 437.36 699.64L430.96 696.6C432.4 691.96 433.84 684.52 434.56 678.52V677.16ZM466.64 661.08L476.64 662.6C471.2 677.48 459.28 685.16 443.6 689.64C442.48 687.48 439.52 683.56 437.6 681.64C452.32 678.68 462.96 672.52 466.64 661.08ZM450.64 649L459.6 651.48C455.6 660.12 449.12 668.44 443.12 673.64C441.28 672.12 437.52 669.48 435.28 668.28C441.52 663.72 447.44 656.44 450.64 649ZM451.76 663.16C457.28 672.28 468.48 678.92 482.48 681.56C480.4 683.48 477.68 687.24 476.4 689.72C461.6 685.96 450.48 677.64 443.76 665.72L451.76 663.16ZM419.28 680.04L425.44 682.44C422.4 693.08 417.04 705.16 410.24 711.32C409.36 708.6 407.28 704.6 405.76 702.04C411.6 697.08 416.8 688.04 419.28 680.04ZM450.4 657.16H480.32V665.08H446.56L450.4 657.16ZM432.16 652.68H434.24L435.68 652.36L441.84 656.2C438.24 662.04 431.92 668.44 426.16 672.44C424.48 671 421.76 669 419.92 667.88C424.88 664.36 430 658.44 432.16 654.36V652.68Z" fill="white"/>
<path d="M643.76 374.12L654 376.12C647.92 384.76 639.76 391.96 627.44 397.64C626.16 395.4 623.2 392.04 621.12 390.52C632.4 386.2 639.76 380.12 643.76 374.12ZM646 379.48H669.92V386.68H639.44L646 379.48ZM667.04 379.48H668.88L670.48 379.08L676.96 382.92C666.4 400.6 643.76 410.2 620.72 414.68C619.84 412.2 617.84 408.28 616.16 406.2C637.6 402.92 659.04 394.28 667.04 380.84V379.48ZM642.16 384.92C651.44 395.32 670.08 401.72 691.68 403.8C689.52 406.04 686.88 410.36 685.52 413.08C663.52 410.04 645.28 402.2 633.84 388.6L642.16 384.92ZM631.36 409.16H677.36V434.04H667.52V417H640.72V434.2H631.36V409.16ZM636.08 423.88H672.32V431.72H636.08V423.88ZM648.8 359.16H658.72V370.52H648.8V359.16ZM619.52 365.64H688.48V383.32H678.64V374.28H628.88V383.32H619.52V365.64ZM712.72 400.92H756.56V409.8H712.72V400.92ZM713.6 380.28H762.24V413.8H752.56V389.16H713.6V380.28ZM752.88 359.16L760.56 366.28C747.2 370.52 728.72 373.48 712.88 375.24C712.48 373.08 711.28 369.56 710.16 367.56C725.52 365.8 742.64 362.68 752.88 359.16ZM707.44 365.32L719.36 368.6C719.28 369.4 718.64 369.8 717.2 370.12V388.84C717.2 401.48 715.6 421.32 704.24 434.28C702.8 432.12 698.96 428.84 696.56 427.72C706.48 416.28 707.44 400.44 707.44 388.68V365.32Z" fill="white"/>
<path d="M52 386.92H95.52V395.8H52V386.92ZM52 404.04H95.52V412.92H52V404.04ZM52 421.24H95.52V430.12H52V421.24ZM45.44 369.48H103.6V433.96H93.36V378.68H55.2V434.12H45.44V369.48ZM68.16 359L79.76 360.2C77.84 365.56 75.52 370.84 73.76 374.36L64.96 372.76C66.24 368.76 67.6 363.16 68.16 359ZM149.28 407.56L160 408.84C158.48 412.44 156.96 415.72 155.92 418.04L147.44 416.52C148.16 413.72 148.96 410.2 149.28 407.56ZM140.96 401.32V405.16H166.16V401.32H140.96ZM132.08 395.4H175.68V411H132.08V395.4ZM126.48 414.6H183.36V434.2H173.84V421.24H135.52V434.2H126.48V414.6ZM132.08 425.64H177.84V432.36H132.08V425.64ZM119.6 385H188.56V400.6H178.88V392.28H128.8V400.6H119.6V385ZM146.32 362.52L154 365C151.44 368.12 148.88 371.16 146.88 373.16L141.36 370.92C143.12 368.52 145.2 364.92 146.32 362.52ZM132.08 376.36L137.6 371.16C141.76 373.4 147.68 376.84 150.72 379.08L144.96 384.92C142.08 382.6 136.32 378.92 132.08 376.36ZM133.04 359.08H141.36C140.64 373.64 137.84 381.88 121.6 386.36C120.88 384.28 118.72 381.16 117.04 379.64C130.8 376.36 132.48 370.6 133.04 359.08ZM124 362.28L130.08 364.44C128.8 368.36 126.88 372.44 123.52 374.92L117.68 371.4C120.64 369.32 122.88 365.64 124 362.28ZM181.84 362.36L190.08 365.08C187.28 368.2 184.56 371.4 182.48 373.48L176.64 371.16C178.48 368.6 180.72 364.92 181.84 362.36ZM166.72 376.68L172.08 370.92C177.44 373.48 185.36 377.48 189.44 380.12L183.76 386.68C180 383.96 172.24 379.64 166.72 376.68ZM167.36 359.08H176C175.36 373.64 172.64 381.8 155.92 385.96C155.28 383.88 153.12 380.6 151.36 378.92C165.36 375.88 166.88 370.52 167.36 359.08ZM158.16 362.36L164.32 364.6C162.96 368.52 161.04 372.36 157.76 375L151.84 371.32C154.8 369.24 157.04 365.64 158.16 362.36Z" fill="white"/>
<defs>
<filter id="filter0_d_941_62622" x="290" y="0" width="228" height="228" filterUnits="userSpaceOnUse" color-interpolation-filters="sRGB">
<feFlood flood-opacity="0" result="BackgroundImageFix"/>
<feColorMatrix in="SourceAlpha" type="matrix" values="0 0 0 0 0 0 0 0 0 0 0 0 0 0 0 0 0 0 127 0" result="hardAlpha"/>
<feOffset dy="4"/>
<feGaussianBlur stdDeviation="2"/>
<feComposite in2="hardAlpha" operator="out"/>
<feColorMatrix type="matrix" values="0 0 0 0 0 0 0 0 0 0 0 0 0 0 0 0 0 0 0.25 0"/>
<feBlend mode="normal" in2="BackgroundImageFix" result="effect1_dropShadow_941_62622"/>
<feBlend mode="normal" in="SourceGraphic" in2="effect1_dropShadow_941_62622" result="shape"/>
</filter>
<filter id="filter1_d_941_62622" x="290" y="580" width="228" height="228" filterUnits="userSpaceOnUse" color-interpolation-filters="sRGB">
<feFlood flood-opacity="0" result="BackgroundImageFix"/>
<feColorMatrix in="SourceAlpha" type="matrix" values="0 0 0 0 0 0 0 0 0 0 0 0 0 0 0 0 0 0 127 0" result="hardAlpha"/>
<feOffset dy="4"/>
<feGaussianBlur stdDeviation="2"/>
<feComposite in2="hardAlpha" operator="out"/>
<feColorMatrix type="matrix" values="0 0 0 0 0 0 0 0 0 0 0 0 0 0 0 0 0 0 0.25 0"/>
<feBlend mode="normal" in2="BackgroundImageFix" result="effect1_dropShadow_941_62622"/>
<feBlend mode="normal" in="SourceGraphic" in2="effect1_dropShadow_941_62622" result="shape"/>
</filter>
<filter id="filter2_d_941_62622" x="0" y="290" width="228" height="228" filterUnits="userSpaceOnUse" color-interpolation-filters="sRGB">
<feFlood flood-opacity="0" result="BackgroundImageFix"/>
<feColorMatrix in="SourceAlpha" type="matrix" values="0 0 0 0 0 0 0 0 0 0 0 0 0 0 0 0 0 0 127 0" result="hardAlpha"/>
<feOffset dy="4"/>
<feGaussianBlur stdDeviation="2"/>
<feComposite in2="hardAlpha" operator="out"/>
<feColorMatrix type="matrix" values="0 0 0 0 0 0 0 0 0 0 0 0 0 0 0 0 0 0 0.25 0"/>
<feBlend mode="normal" in2="BackgroundImageFix" result="effect1_dropShadow_941_62622"/>
<feBlend mode="normal" in="SourceGraphic" in2="effect1_dropShadow_941_62622" result="shape"/>
</filter>
<filter id="filter3_d_941_62622" x="580" y="290" width="228" height="228" filterUnits="userSpaceOnUse" color-interpolation-filters="sRGB">
<feFlood flood-opacity="0" result="BackgroundImageFix"/>
<feColorMatrix in="SourceAlpha" type="matrix" values="0 0 0 0 0 0 0 0 0 0 0 0 0 0 0 0 0 0 127 0" result="hardAlpha"/>
<feOffset dy="4"/>
<feGaussianBlur stdDeviation="2"/>
<feComposite in2="hardAlpha" operator="out"/>
<feColorMatrix type="matrix" values="0 0 0 0 0 0 0 0 0 0 0 0 0 0 0 0 0 0 0.25 0"/>
<feBlend mode="normal" in2="BackgroundImageFix" result="effect1_dropShadow_941_62622"/>
<feBlend mode="normal" in="SourceGraphic" in2="effect1_dropShadow_941_62622" result="shape"/>
</filter>
<radialGradient id="paint0_radial_941_62622" cx="0" cy="0" r="1" gradientUnits="userSpaceOnUse" gradientTransform="translate(480.5 52) rotate(138.204) scale(189.801)">
<stop stop-color="#91D7F4"/>
<stop offset="1" stop-color="#54A2E6"/>
</radialGradient>
<radialGradient id="paint1_radial_941_62622" cx="0" cy="0" r="1" gradientUnits="userSpaceOnUse" gradientTransform="translate(480.5 632) rotate(138.204) scale(189.801)">
<stop stop-color="#91D7F4"/>
<stop offset="1" stop-color="#54A2E6"/>
</radialGradient>
<radialGradient id="paint2_radial_941_62622" cx="0" cy="0" r="1" gradientUnits="userSpaceOnUse" gradientTransform="translate(190.5 342) rotate(138.204) scale(189.801)">
<stop stop-color="#91D7F4"/>
<stop offset="1" stop-color="#54A2E6"/>
</radialGradient>
<radialGradient id="paint3_radial_941_62622" cx="0" cy="0" r="1" gradientUnits="userSpaceOnUse" gradientTransform="translate(770.5 342) rotate(138.204) scale(189.801)">
<stop stop-color="#91D7F4"/>
<stop offset="1" stop-color="#54A2E6"/>
</radialGradient>
</defs>
</svg>
